<?xml version="1.0" standalone="no"?>
<!DOCTYPE svg PUBLIC "-//W3C//DTD SVG 1.1//EN" "http://www.w3.org/Graphics/SVG/1.1/DTD/svg11.dtd" >
<svg xmlns="http://www.w3.org/2000/svg" xmlns:xlink="http://www.w3.org/1999/xlink" version="1.1">
<metadata>
Created by FontForge 20201107 at Thu Jun 18 10:03:23 2009
 By Jimmy Wärting
Converted by Andrey V. Panov from TeX fonts. Some glyphs are copied from Blue Sky fonts released by AMS.
</metadata>
<defs>
<font id="CMUSerif-Roman" horiz-adv-x="500" >
  <font-face 
    font-family="CMU Serif"
    font-weight="500"
    font-stretch="normal"
    units-per-em="1000"
    panose-1="2 0 6 3 0 0 0 0 0 0"
    ascent="800"
    descent="-200"
    x-height="431"
    cap-height="683"
    bbox="-1135 -387 1495 1094"
    underline-thickness="50"
    underline-position="-150"
    stemh="31"
    stemv="70"
    unicode-range="U+0020-1D703"
  />
<missing-glyph horiz-adv-x="760" 
d="M10 10v755h740v-755h-740zM70 112l276 276l-276 275v-551zM105 70h550l-275 276zM105 705l275 -276l275 276h-550zM414 388l276 -276v551z" />
    <glyph glyph-name="igrave" unicode="i&#x300;" horiz-adv-x="277" 
d="M-4 605c0 16 14 37 35 37c19 0 22 -7 150 -132l-15 -20c-14 7 -27 14 -134 75c-9 5 -36 16 -36 40zM35 0v31c67 0 78 0 78 45v269c0 49 -9 55 -74 55v31l140 11v-367c0 -39 4 -44 70 -44v-31c-34 1 -69 3 -104 3c-24 0 -78 -2 -110 -3z" />
    <glyph glyph-name="iacute" unicode="i&#x301;" horiz-adv-x="277" 
d="M33 0v31c67 0 78 0 78 45v269c0 49 -9 55 -74 55v31l140 11v-367c0 -39 4 -44 70 -44v-31c-34 1 -69 3 -104 3c-24 0 -78 -2 -110 -3zM80 510c129 125 131 132 150 132c21 0 35 -21 35 -37c0 -23 -23 -33 -35 -39c-108 -61 -121 -69 -135 -76z" />
    <glyph glyph-name="icircumflex" unicode="i&#x302;" horiz-adv-x="277" 
d="M10 500l134 149h1l133 -149l-18 -18l-115 114h-1l-116 -114zM34 0v31c67 0 78 0 78 45v269c0 49 -9 55 -74 55v31l140 11v-367c0 -39 4 -44 70 -44v-31c-34 1 -69 3 -104 3c-24 0 -78 -2 -110 -3z" />
    <glyph glyph-name="idieresis" unicode="i&#x308;" horiz-adv-x="333" 
d="M215 606c0 31 26 53 53 53c28 0 52 -22 52 -53s-26 -52 -52 -52c-31 0 -53 25 -53 52zM21 606c0 31 26 53 53 53c28 0 52 -22 52 -53s-26 -52 -52 -52c-31 0 -53 25 -53 52zM61 0v31c67 0 78 0 78 45v269c0 49 -9 55 -74 55v31l140 11v-367c0 -39 4 -44 70 -44v-31
c-34 1 -69 3 -104 3c-24 0 -78 -2 -110 -3z" />
    <glyph glyph-name="Aogonek" unicode="A&#x328;" horiz-adv-x="750" 
d="M32 0v31c87 2 103 42 118 85l199 574c5 15 10 26 25 26c20 0 21 -15 31 -41l209 -601c15 -41 33 -43 97 -43h6v-31c-24 1 -49 2 -73 2h-2c-5 0 -9 1 -14 1h-1c-32 0 -82 -54 -82 -97c0 -46 46 -77 83 -77c47 0 61 43 68 50c4 4 9 6 14 2c2 -2 3 -4 3 -8
c0 -25 -37 -90 -105 -90c-52 0 -108 37 -108 99c0 54 44 95 74 121l-132 -3v31h2c32 0 79 1 79 32c0 11 2 2 -54 165h-248c-17 -55 -47 -128 -47 -147c0 -18 15 -48 74 -50v-31c-39 2 -78 3 -117 3c-20 0 -49 0 -99 -3zM232 259h226l-113 325z" />
    <glyph glyph-name="imacron" unicode="i&#x304;" horiz-adv-x="277" 
d="M-36 550v32h360v-32h-360zM33 0v31c67 0 78 0 78 45v269c0 49 -9 55 -74 55v31l140 11v-367c0 -39 4 -44 70 -44v-31c-34 1 -69 3 -104 3c-24 0 -78 -2 -110 -3z" />
    <glyph glyph-name="ibreve" unicode="i&#x306;" horiz-adv-x="277" 
d="M-6 639h23c6 -82 91 -98 128 -98c53 0 122 28 127 98h22c-4 -88 -77 -136 -150 -136c-70 0 -146 46 -150 136zM33 0v31c67 0 78 0 78 45v269c0 49 -9 55 -74 55v31l140 11v-367c0 -39 4 -44 70 -44v-31c-34 1 -69 3 -104 3c-24 0 -78 -2 -110 -3z" />
    <glyph glyph-name="IJ" unicode="IJ" horiz-adv-x="861" 
d="M28 0v31h15c77 0 92 7 93 44v535c-1 39 -20 42 -93 42h-15v31c49 -2 97 -3 147 -3c53 0 105 1 158 3v-31h-15c-78 0 -92 -6 -93 -42v-536c1 -37 15 -43 93 -43h15v-31c-74 3 -118 3 -148 3c-52 0 -105 -1 -157 -3zM388 111c0 43 33 58 56 58c30 0 55 -22 55 -55
c0 -29 -21 -56 -57 -56c-2 0 -5 1 -7 1c39 -54 93 -58 109 -58c61 0 94 62 102 112c2 16 2 32 2 49v444c0 42 -19 46 -114 46h-19v31c56 -2 113 -3 169 -3c38 0 77 1 128 3v-31h-5c-63 0 -72 -5 -72 -44v-458c0 -103 -88 -172 -187 -172c-107 0 -160 75 -160 133z" />
    <glyph glyph-name="ij" unicode="ij" horiz-adv-x="583" 
d="M88 615c0 31 26 53 53 53c26 0 52 -22 52 -53s-26 -52 -52 -52c-31 0 -53 24 -53 52zM251 -126c0 30 24 47 46 47c23 0 46 -18 46 -46c0 -18 -8 -35 -36 -45c23 -10 41 -12 51 -12c42 0 70 36 70 140v385c0 47 -11 57 -78 57h-8v30l153 11v-483
c0 -126 -82 -163 -136 -163c-57 0 -108 31 -108 79zM389 615c0 31 26 53 53 53c28 0 52 -22 52 -53s-26 -52 -52 -52c-31 0 -53 25 -53 52zM46 0v31c67 0 78 0 78 45v269c0 49 -9 55 -74 55v31l140 11v-367c0 -39 4 -44 70 -44v-31c-34 1 -69 3 -104 3c-24 0 -78 -2 -110 -3
z" />
    <glyph glyph-name="jcircumflex" unicode="j&#x302;" horiz-adv-x="305" 
d="M43 500l134 149h1l133 -149l-18 -18l-115 114h-1l-116 -114zM-40 -125c0 26 18 46 46 46s46 -20 46 -46c0 -27 -20 -41 -35 -45c26 -13 49 -13 54 -13c64 0 73 86 73 131v396c0 49 -9 56 -86 56v31l152 11v-492c0 -91 -62 -155 -137 -155c-57 0 -113 28 -113 80z" />
    <glyph glyph-name="uni01D0" unicode="i&#x30c;" horiz-adv-x="277" 
d="M-10 631l13 15c134 -90 133 -90 140 -90c8 0 13 4 141 90l12 -15l-152 -147h-1zM33 0v31c67 0 78 0 78 45v269c0 49 -9 55 -74 55v31l140 11v-367c0 -39 4 -44 70 -44v-31c-34 1 -69 3 -104 3c-24 0 -78 -2 -110 -3z" />
    <glyph glyph-name="uni01F0" unicode="j&#x30c;" horiz-adv-x="305" 
d="M23 631l13 15c134 -90 133 -90 140 -90c8 0 13 4 141 90l12 -15l-152 -147h-1zM-40 -125c0 26 18 46 46 46s46 -20 46 -46c0 -27 -20 -41 -35 -45c26 -13 49 -13 54 -13c64 0 73 86 73 131v396c0 49 -9 56 -86 56v31l152 11v-492c0 -91 -62 -155 -137 -155
c-57 0 -113 28 -113 80z" />
    <glyph glyph-name="uni0410_acutecomb" unicode="&#x410;&#x301;" horiz-adv-x="750" 
d="M286 765c153 95 154 97 168 97c20 0 34 -21 34 -37c0 -30 -37 -36 -42 -37c-119 -37 -135 -42 -150 -46zM32 0v31c54 1 94 16 112 67l207 598c5 14 8 20 24 20s18 -7 23 -20l216 -625c11 -33 25 -40 85 -40h18v-31c-42 2 -88 3 -131 3c-38 0 -108 0 -144 -3v31
c27 0 83 0 83 30c0 4 -2 10 -3 14l-53 153h-247l-46 -131c-1 -2 -2 -12 -2 -15c0 -26 25 -51 75 -51v-31c-32 1 -84 3 -115 3c-36 0 -79 -2 -102 -3zM233 259h225l-113 325z" />
    <glyph glyph-name="ff" unicode="ff" horiz-adv-x="583" 
d="M27 0v31h8c65 0 70 8 70 46v323h-78v30h78v111c0 116 121 164 213 164c71 0 99 -26 114 -42c28 25 62 42 106 42c61 0 90 -40 90 -71c0 -26 -19 -44 -43 -44c-23 0 -43 18 -43 44c0 25 17 36 29 42c-11 3 -22 6 -33 6c-37 0 -91 -37 -91 -141v-111h117v-30h-114v-322
c0 -40 8 -47 85 -47h12v-31c-43 2 -87 3 -130 3c-45 0 -78 -1 -112 -3v31h8c65 0 69 8 69 46v323h-210v-323c0 -38 4 -46 70 -46h8v-31c-38 2 -77 3 -115 3c-22 0 -54 0 -108 -3zM169 430h213v85c0 22 0 45 3 64c-19 11 -27 25 -27 41c0 26 20 38 36 44c-7 4 -30 18 -76 18
c-51 0 -149 -28 -149 -142v-110z" />
    <glyph glyph-name="fi" unicode="fi" horiz-adv-x="555" 
d="M27 0v31h8c65 0 70 8 70 46v323h-78v30h78v112c0 115 121 163 214 163c76 0 129 -46 129 -99c0 -31 -22 -48 -46 -48s-46 19 -46 46s20 45 48 46c-7 6 -35 32 -87 32c-56 0 -148 -34 -148 -141v-111h136v2l145 11v-371c0 -36 16 -41 67 -41h10v-31c-38 2 -76 3 -114 3
c-22 0 -54 0 -108 -3v31h10c59 0 67 8 67 44v234c0 9 1 18 1 27c0 49 -5 64 -56 64h-155v-323c0 -38 4 -46 70 -46h8v-31c-38 2 -77 3 -115 3c-22 0 -54 0 -108 -3z" />
    <glyph glyph-name="fl" unicode="fl" horiz-adv-x="555" 
d="M27 0v31h8c65 0 70 8 70 46v323h-78v30h78v111c0 116 118 164 215 164c73 0 71 -15 95 -15c7 0 11 0 35 4v-618c0 -39 8 -45 72 -45h5v-31c-38 2 -76 3 -114 3c-22 0 -54 0 -108 -3v31h8c65 0 69 8 69 46v323h-210v-323c0 -38 4 -46 70 -46h8v-31c-38 2 -77 3 -115 3
c-22 0 -54 0 -108 -3zM169 430h213v164c-7 5 -24 16 -24 40s17 34 24 39v1c-18 5 -37 8 -62 8c-57 0 -151 -29 -151 -145v-107z" />
    <glyph glyph-name="ffi" unicode="ffi" horiz-adv-x="833" 
d="M27 0v31h8c65 0 70 8 70 46v323h-78v30h78v111c0 116 121 164 211 164c70 0 101 -34 116 -55c35 27 86 55 162 55c84 0 132 -50 132 -99c0 -32 -23 -47 -46 -47s-46 15 -46 45c0 14 7 42 48 46c-7 6 -35 32 -87 32c-55 0 -148 -34 -148 -141v-111h135v2l145 11v-371
c0 -36 16 -41 68 -41h10v-31c-38 2 -76 3 -114 3c-22 0 -55 0 -109 -3v31h11c59 0 67 8 67 44v260c0 49 -4 65 -55 65h-155v-323c0 -38 4 -46 70 -46h7v-31c-38 2 -76 3 -114 3c-22 0 -54 0 -108 -3v31h8c65 0 69 8 69 46v323h-210v-323c0 -38 4 -46 70 -46h8v-31
c-38 2 -77 3 -115 3c-22 0 -54 0 -108 -3zM169 430h213v80l1 51c-17 9 -29 21 -29 43c0 14 6 43 47 46c-9 9 -34 32 -85 32c-48 0 -147 -28 -147 -142v-110z" />
    <glyph glyph-name="ffl" unicode="ffl" horiz-adv-x="833" 
d="M27 0v31h8c65 0 70 8 70 46v323h-78v30h78v111c-2 114 121 164 212 164c59 0 97 -17 120 -51c13 9 64 51 160 51c73 0 71 -15 96 -15c7 0 10 0 34 4v-619c0 -39 9 -44 73 -44h5v-31c-38 2 -76 3 -114 3c-22 0 -55 0 -109 -3v31h8c65 0 70 8 70 46v323h-210v-323
c0 -38 4 -46 70 -46h7v-31c-38 2 -76 3 -114 3c-22 0 -54 0 -108 -3v31h8c65 0 69 8 69 46v323h-210v-323c0 -38 4 -46 70 -46h8v-31c-38 2 -77 3 -115 3c-22 0 -54 0 -108 -3zM169 430h213v85c1 22 0 46 4 64c-17 10 -28 21 -28 41c0 26 20 38 36 44c-7 4 -30 18 -76 18
c-51 0 -149 -28 -149 -142v-110zM447 430h213v164c-7 5 -24 16 -24 40s17 34 24 39v1c-18 5 -38 8 -63 8c-57 0 -150 -29 -150 -145v-107z" />
    <glyph glyph-name=".notdef" horiz-adv-x="760" 
d="M10 10v755h740v-755h-740zM70 112l276 276l-276 275v-551zM105 70h550l-275 276zM105 705l275 -276l275 276h-550zM414 388l276 -276v551z" />
    <glyph glyph-name="space" unicode=" " horiz-adv-x="333" 
 />
    <glyph glyph-name="exclam" unicode="!" horiz-adv-x="278" 
d="M85 664c0 34 28 52 53 52c26 0 53 -19 53 -52c0 -4 -1 -7 -1 -11l-38 -442c-1 -14 -4 -23 -15 -23c-12 0 -12 15 -13 27l-38 435c0 5 -1 9 -1 14zM85 53c0 31 26 53 53 53c28 0 52 -22 52 -53s-26 -52 -52 -52c-31 0 -53 25 -53 52z" />
    <glyph glyph-name="quotedbl" unicode="&#x22;" 
d="M119 664c0 37 30 46 46 46s47 -9 47 -46c0 -12 -34 -306 -35 -317h-23c-7 74 -35 306 -35 317zM287 663c0 32 22 47 46 47c16 0 46 -9 46 -46c0 -11 -28 -242 -35 -317h-22c-2 14 -35 302 -35 316z" />
    <glyph glyph-name="numbersign" unicode="#" horiz-adv-x="833" 
d="M57 153c0 11 16 11 26 11h178l47 172h-228c-11 0 -23 1 -23 11c0 11 16 12 30 12h228l81 296c4 14 8 37 20 37c7 0 9 -5 9 -12c0 -9 -4 -22 -6 -30l-80 -291h215l81 296c4 14 7 37 19 37c7 0 10 -5 10 -12c0 -9 -5 -22 -7 -30l-80 -291h173c11 0 25 -1 25 -12
c-1 -11 -15 -11 -26 -11h-179l-46 -172h227c11 0 24 -1 24 -11c0 -11 -13 -12 -24 -12h-234l-82 -296c-4 -14 -8 -37 -19 -37c-7 0 -9 5 -9 12c0 9 4 22 6 30l80 291h-215l-81 -296c-4 -14 -8 -37 -19 -37c-7 0 -10 5 -10 12c0 9 5 22 7 30l80 291h-173c-11 0 -25 1 -25 12z
M285 164h215l47 172h-215z" />
    <glyph glyph-name="dollar" unicode="$" 
d="M55 177c0 41 29 51 46 51c23 0 46 -17 46 -45c0 -25 -18 -46 -45 -46c-5 0 -11 1 -17 2c24 -93 93 -114 149 -119v299c-25 6 -102 16 -150 93c-19 30 -29 66 -29 101c0 96 70 180 179 192v45h31v-45c151 -10 178 -121 178 -175c0 -42 -29 -50 -45 -50
c-24 0 -46 17 -46 45c0 24 18 46 45 46c5 0 11 -1 16 -2c-26 82 -93 100 -148 105v-271c28 -7 109 -19 155 -108c16 -31 24 -66 24 -100c0 -103 -74 -195 -179 -205v-45h-31v45c-153 11 -179 131 -179 187zM107 543c0 -63 46 -104 84 -120c14 -6 29 -8 43 -12v262
c-74 -8 -127 -63 -127 -130zM265 21c83 11 127 79 127 144c0 62 -37 112 -85 133c-13 6 -28 9 -42 13v-290z" />
    <glyph glyph-name="percent" unicode="%" horiz-adv-x="833" 
d="M56 549c0 117 71 201 147 201c32 0 53 -15 72 -32c55 -52 117 -77 187 -77c73 0 140 27 190 95c6 7 11 14 21 14c11 0 20 -9 20 -20c0 -6 -2 -9 -8 -18l-506 -753c-8 -11 -10 -15 -20 -15s-20 9 -20 20c0 2 0 7 9 20l449 669l-1 1c-6 -4 -57 -35 -133 -35
c-36 0 -86 5 -151 42c21 -52 21 -99 21 -113c0 -112 -57 -201 -130 -201c-75 0 -147 81 -147 202zM118 548c0 -166 66 -179 86 -179c52 0 104 72 104 180c0 105 -51 179 -104 179c-21 0 -86 -13 -86 -180zM499 146c0 117 71 201 147 201c71 0 130 -87 130 -202
c0 -112 -57 -201 -130 -201c-75 0 -147 81 -147 202zM561 145c0 -166 66 -179 86 -179c52 0 104 72 104 180c0 105 -51 179 -104 179c-21 0 -86 -13 -86 -180z" />
    <glyph glyph-name="ampersand" unicode="&#x26;" horiz-adv-x="777" 
d="M42 128c0 54 26 81 71 127l91 97c-35 89 -41 161 -41 203c0 106 74 161 136 161c71 0 87 -83 87 -129c0 -66 -68 -142 -122 -202c44 -115 153 -252 166 -267c43 53 88 121 143 218c1 3 6 10 6 20c0 25 -25 44 -71 44v31c27 -2 111 -3 122 -3c6 0 60 1 97 3v-31
c-89 -1 -110 -36 -149 -102c-46 -79 -86 -147 -132 -200c32 -38 84 -89 138 -89c45 0 109 33 112 112h25c-2 -86 -65 -143 -141 -143c-48 0 -107 16 -176 76c-37 -33 -96 -76 -181 -76c-99 0 -181 63 -181 150zM125 160c0 -54 23 -151 106 -151c28 0 90 7 154 64
c-37 37 -73 89 -92 117c-43 62 -58 92 -80 139c-54 -52 -88 -88 -88 -169zM226 578c0 -31 3 -89 30 -169c24 26 105 113 105 179c0 2 0 106 -60 106c-35 0 -75 -32 -75 -116z" />
    <glyph glyph-name="quotesingle" unicode="'" horiz-adv-x="278" 
d="M92 664c0 37 30 46 46 46c26 0 46 -16 46 -46c0 -5 0 -10 -1 -15l-33 -302h-23l-34 302c-1 5 -1 10 -1 15z" />
    <glyph glyph-name="parenleft" unicode="(" horiz-adv-x="388" 
d="M99 250c0 84 12 195 63 305c59 127 149 195 159 195c6 0 10 -3 10 -10c0 -3 0 -5 -13 -17c-123 -125 -161 -299 -161 -473c0 -153 32 -342 157 -468c17 -17 17 -19 17 -22c0 -7 -4 -10 -10 -10c-10 0 -96 65 -156 188c-55 113 -66 234 -66 312z" />
    <glyph glyph-name="parenright" unicode=")" horiz-adv-x="388" 
d="M57 -240c0 3 0 5 13 17c124 126 161 302 161 473c0 209 -57 368 -155 467c-19 18 -19 20 -19 23c0 6 4 10 10 10c10 0 96 -65 156 -188c55 -113 66 -234 66 -312c0 -84 -12 -195 -63 -305c-59 -127 -149 -195 -159 -195c-6 0 -10 4 -10 10z" />
    <glyph glyph-name="asterisk" unicode="*" 
d="M65 441c0 12 4 19 23 28l139 66l-141 66c-17 8 -21 16 -21 27c0 13 11 28 27 28c6 0 8 0 22 -11l124 -90c-2 22 -15 160 -15 170c0 13 11 25 27 25c13 0 26 -10 26 -25l-15 -170l111 82c26 19 28 19 35 19c16 0 27 -15 27 -28c0 -12 -4 -19 -23 -28l-139 -66l141 -66
c17 -8 21 -16 21 -27c0 -13 -11 -28 -27 -28c-8 0 -11 3 -16 6s-80 59 -130 95c2 -22 15 -160 15 -170c0 -13 -11 -25 -27 -25c-13 0 -26 10 -26 25l15 170l-140 -101c-33 0 -33 26 -33 28z" />
    <glyph glyph-name="plus" unicode="+" horiz-adv-x="778" 
d="M57 250c0 10 13 12 24 12c5 0 11 -1 14 -1h282v283c0 3 -1 8 -1 13c0 11 2 24 12 24s12 -13 12 -24v-296h282c3 0 9 1 14 1c11 0 23 -2 23 -12s-13 -12 -24 -12c-5 0 -10 1 -13 1h-282v-297c0 -11 -2 -23 -12 -23s-12 13 -12 24c0 5 1 10 1 13v283h-282
c-3 0 -10 -1 -15 -1c-11 0 -23 2 -23 12z" />
    <glyph glyph-name="comma" unicode="," horiz-adv-x="277" 
d="M86 53c0 26 18 53 53 53c40 0 64 -41 64 -105c0 -115 -79 -194 -91 -194c-5 0 -10 4 -10 11c0 4 1 5 7 11c44 47 72 108 72 172c0 14 -1 15 -2 15l-2 -2c-10 -8 -22 -14 -38 -14c-36 0 -53 27 -53 53z" />
    <glyph glyph-name="hyphen" unicode="-" horiz-adv-x="333" 
d="M10 186v59h266v-59h-266z" />
    <glyph glyph-name="period" unicode="." horiz-adv-x="278" 
d="M85 53c0 27 22 52 53 52c28 0 52 -21 52 -52s-26 -53 -52 -53c-31 0 -53 26 -53 53z" />
    <glyph glyph-name="slash" unicode="/" 
d="M57 -236c0 3 0 5 4 16l353 943c3 7 7 25 18 25c4 0 10 -4 10 -12c0 -4 -2 -9 -3 -13l-354 -944c-8 -22 -11 -27 -19 -27c-6 0 -9 6 -9 12z" />
    <glyph glyph-name="zero" unicode="0" 
d="M39 320c0 80 5 158 37 227c41 93 114 119 174 119c42 0 124 -16 170 -112c35 -74 40 -154 40 -234c0 -79 -5 -157 -37 -226c-44 -95 -120 -116 -174 -116c-49 0 -122 20 -165 101c-41 76 -45 166 -45 241zM122 332c0 -59 0 -151 11 -211c18 -96 77 -121 116 -121
c45 0 102 30 117 125c11 64 11 132 11 207c0 63 0 139 -10 195c-19 99 -85 117 -118 117c-25 0 -100 -9 -119 -128c-8 -54 -8 -120 -8 -184z" />
    <glyph glyph-name="one" unicode="1" 
d="M89 571v31c32 0 120 0 182 64c23 0 23 -2 23 -26v-561c0 -37 3 -48 93 -48h32v-31c-35 3 -122 3 -162 3s-127 0 -162 -3v31h32c90 0 93 12 93 48v518c-52 -26 -111 -26 -131 -26z" />
    <glyph glyph-name="two" unicode="2" 
d="M50 0c0 24 0 26 11 37l192 214c55 62 105 141 105 221c0 82 -43 163 -134 163c-58 0 -112 -37 -135 -102c3 1 5 1 13 1c35 0 53 -26 53 -52c0 -41 -35 -53 -52 -53c-3 0 -53 0 -53 56c0 89 74 181 187 181c122 0 212 -80 212 -194c0 -100 -60 -154 -216 -292l-106 -103
h180c22 0 88 0 95 8c10 15 17 59 22 89h25l-28 -174h-371z" />
    <glyph glyph-name="three" unicode="3" 
d="M42 135c0 44 32 58 56 58c29 0 56 -20 56 -56c0 -38 -31 -60 -66 -55c35 -59 110 -76 153 -76c44 0 113 29 113 165c0 98 -37 166 -119 166h-44c-17 0 -24 0 -24 11c0 10 7 11 15 12c7 0 31 2 39 3c25 1 59 4 89 52c26 44 28 102 28 114c0 90 -55 112 -96 112
c-36 0 -102 -13 -133 -62c15 0 62 0 62 -50c0 -29 -20 -51 -51 -51c-29 0 -51 19 -51 52c0 76 76 136 177 136c96 0 184 -56 184 -138c0 -79 -58 -149 -140 -176c104 -21 167 -99 167 -181c0 -102 -91 -193 -213 -193c-109 0 -202 66 -202 157z" />
    <glyph glyph-name="four" unicode="4" 
d="M28 165v31l307 469c8 12 11 12 20 12c16 0 16 -6 16 -26v-455h100v-31h-100v-87c0 -36 2 -47 76 -47h21v-31c-41 3 -94 3 -136 3s-94 0 -135 -3v31h21c74 0 76 11 76 47v87h-266zM56 196h244v373z" />
    <glyph glyph-name="five" unicode="5" 
d="M50 161c0 46 35 53 49 53c33 0 50 -25 50 -49s-17 -49 -50 -49c-11 0 -14 1 -17 2c17 -59 74 -112 147 -112c46 0 83 26 107 65c24 42 24 102 24 137c0 50 -2 89 -18 126c-8 18 -33 64 -85 64c-81 0 -118 -54 -129 -70c-4 -6 -6 -9 -13 -9c-14 0 -14 8 -14 26v296
c0 16 0 24 10 24c2 0 4 0 12 -3c47 -21 93 -28 133 -28c67 0 116 20 136 29c5 3 7 3 8 3c7 0 10 -5 10 -11c0 -13 -70 -104 -193 -104c-32 0 -65 7 -85 13v-195c36 35 79 51 127 51c108 0 190 -100 190 -219c0 -127 -102 -223 -218 -223c-112 0 -181 97 -181 183z" />
    <glyph glyph-name="six" unicode="6" 
d="M42 316c0 221 135 350 263 350c83 0 127 -48 127 -108c0 -39 -30 -48 -46 -48c-22 0 -46 15 -46 46c0 45 40 45 55 45c-22 34 -64 40 -88 40c-51 0 -175 -36 -175 -289v-24c20 48 57 99 125 99c111 0 200 -96 200 -223c0 -132 -95 -226 -206 -226c-93 0 -209 71 -209 338
zM134 226c0 -18 0 -98 18 -145c6 -15 36 -75 99 -75c23 0 69 5 99 65c17 36 17 86 17 134c0 49 0 100 -18 137c-31 62 -77 62 -93 62c-90 0 -122 -100 -122 -178z" />
    <glyph glyph-name="seven" unicode="7" 
d="M56 470l33 206h25c4 -19 6 -32 128 -32h243c0 -21 0 -23 -9 -35l-135 -190c-44 -62 -58 -148 -62 -171c-8 -54 -11 -109 -11 -164v-51c0 -10 0 -55 -46 -55s-46 45 -46 55c0 102 33 241 123 376c22 33 101 142 112 158h-207c-13 0 -91 0 -98 -6c-13 -12 -22 -75 -25 -91
h-25z" />
    <glyph glyph-name="eight" unicode="8" 
d="M42 151c0 99 86 155 144 184c-25 17 -62 42 -73 54c-42 47 -44 92 -44 110c0 93 81 167 181 167c91 0 180 -57 180 -149c0 -66 -49 -118 -121 -155c64 -40 80 -50 99 -71c38 -42 49 -87 49 -123c0 -107 -95 -190 -208 -190c-105 0 -207 67 -207 173zM92 151
c0 -83 72 -145 158 -145c82 0 157 52 157 126c0 61 -47 91 -75 110l-123 78c-85 -47 -117 -111 -117 -169zM113 538c0 -17 4 -51 50 -81l124 -80c60 35 99 83 99 140c0 72 -64 124 -137 124c-71 0 -136 -42 -136 -103z" />
    <glyph glyph-name="nine" unicode="9" 
d="M42 441c0 75 23 117 64 162c43 45 92 63 147 63c89 0 204 -68 204 -337c0 -215 -122 -351 -251 -351c-85 0 -139 41 -139 108c0 39 30 48 46 48c22 0 46 -15 46 -46c0 -17 -8 -46 -52 -46c27 -34 81 -36 98 -36c58 0 162 46 162 280v32c-23 -58 -64 -100 -125 -100
c-112 0 -200 98 -200 223zM132 440c0 -49 0 -99 18 -136c31 -63 77 -63 93 -63c88 0 122 97 122 180c0 46 -4 109 -16 141c-17 45 -50 79 -96 79c-35 0 -73 -13 -100 -63c-21 -37 -21 -84 -21 -138z" />
    <glyph glyph-name="colon" unicode=":" horiz-adv-x="277" 
d="M86 378c0 29 24 53 53 53s53 -24 53 -53s-24 -53 -53 -53s-53 24 -53 53zM86 53c0 29 24 53 53 53s53 -24 53 -53s-24 -53 -53 -53s-53 24 -53 53z" />
    <glyph glyph-name="semicolon" unicode=";" horiz-adv-x="278" 
d="M85 378c0 27 22 52 53 52c28 0 52 -21 52 -52s-26 -53 -52 -53c-31 0 -53 26 -53 53zM86 53c0 26 18 53 53 53c40 0 64 -41 64 -105c0 -115 -79 -194 -91 -194c-5 0 -10 4 -10 11c0 4 1 5 7 11c44 47 72 108 72 172c0 14 -1 15 -2 15l-2 -2c-10 -8 -22 -14 -38 -14
c-36 0 -53 27 -53 53z" />
    <glyph glyph-name="less" unicode="&#x3c;" horiz-adv-x="778" 
d="M85 250c0 9 10 13 16 16l555 253c8 4 17 10 25 10c5 0 10 -4 10 -10c0 -9 -10 -13 -23 -19l-488 -224c-19 -9 -39 -18 -58 -26c19 -8 39 -17 58 -26l488 -224c18 -8 23 -11 23 -19c0 -6 -5 -10 -10 -10c-8 0 -17 6 -25 10l-555 253c-7 3 -15 7 -16 16z" />
    <glyph glyph-name="equal" unicode="=" horiz-adv-x="778" 
d="M57 152c1 12 10 12 20 12h613c13 0 29 1 29 -11c0 -11 -16 -12 -27 -12h-608c-12 0 -27 1 -27 11zM57 347c0 5 3 12 21 12h611c13 0 30 1 30 -12c0 -11 -14 -11 -25 -11h-617c-8 0 -20 1 -20 11z" />
    <glyph glyph-name="greater" unicode="&#x3e;" horiz-adv-x="778" 
d="M85 -19c0 8 6 11 24 19l488 224c19 9 38 18 58 26c-20 8 -39 17 -58 26l-488 224c-11 6 -24 10 -24 19c0 6 6 10 11 10c8 0 17 -6 25 -10l555 -253c5 -3 16 -7 16 -16c-1 -9 -10 -13 -29 -22l-542 -247c-8 -4 -17 -10 -25 -10c-5 0 -11 4 -11 10z" />
    <glyph glyph-name="question" unicode="?" horiz-adv-x="472" 
d="M56 572c0 65 62 133 170 133c149 0 189 -77 189 -135c0 -42 -21 -78 -48 -98c-35 -26 -132 -97 -132 -223v-35c0 -18 0 -27 -13 -27c-12 0 -12 6 -12 24v45c0 61 22 153 88 225c18 18 34 36 34 95c0 39 0 107 -109 107c-42 0 -100 -15 -131 -68c14 0 56 0 56 -45
c0 -26 -18 -46 -46 -46c-23 0 -46 14 -46 48zM169 53c0 29 24 53 53 53s53 -24 53 -53s-24 -53 -53 -53s-53 24 -53 53z" />
    <glyph glyph-name="at" unicode="@" horiz-adv-x="777" 
d="M56 347c0 199 150 358 333 358c161 0 332 -133 332 -367c0 -107 -14 -210 -102 -210c-38 0 -90 19 -100 71c-30 -42 -78 -71 -132 -71c-103 0 -198 93 -198 219s95 219 198 219c39 0 91 -14 137 -77c6 -7 7 -8 23 -8h17c23 0 24 -1 24 -24v-241c0 -15 0 -66 35 -66
c66 0 73 90 73 182c0 241 -171 351 -308 351c-164 0 -307 -145 -307 -336c0 -179 130 -336 312 -336c94 0 187 24 272 64c5 3 7 3 23 3h9c16 0 23 0 23 -10c0 -16 -120 -51 -146 -57c-64 -15 -128 -22 -180 -22c-200 0 -338 170 -338 358zM258 347c0 -111 60 -197 132 -197
c20 0 71 6 115 69c14 21 14 25 14 43v170c0 18 0 21 -13 40c-36 56 -84 72 -116 72c-73 0 -132 -86 -132 -197z" />
    <glyph glyph-name="A" unicode="A" horiz-adv-x="750" 
d="M32 0v31c54 1 94 16 112 67l207 598c5 14 8 20 24 20s18 -7 23 -20l216 -625c11 -33 25 -40 85 -40h18v-31c-42 2 -88 3 -131 3c-38 0 -108 0 -144 -3v31c27 0 83 0 83 30c0 4 -2 10 -3 14l-53 153h-247l-46 -131c-1 -2 -2 -12 -2 -15c0 -26 25 -51 75 -51v-31
c-32 1 -84 3 -115 3c-36 0 -79 -2 -102 -3zM233 259h225l-113 325z" />
    <glyph glyph-name="B" unicode="B" horiz-adv-x="708" 
d="M36 0v31h24c77 0 79 11 79 47v527c0 36 -2 47 -79 47h-24v31h366c130 0 222 -82 222 -169c0 -74 -69 -138 -166 -157c111 -12 193 -87 193 -174c0 -94 -90 -183 -223 -183h-392zM222 71c0 -33 2 -40 49 -40h125c103 0 155 82 155 153c0 67 -42 160 -141 160h-188v-273z
M222 366h145c111 0 160 84 160 148c0 53 -35 138 -132 138h-124c-47 0 -49 -7 -49 -40v-246z" />
    <glyph glyph-name="C" unicode="C" horiz-adv-x="722" 
d="M56 342c0 204 161 363 348 363c96 0 147 -50 184 -86l50 74c8 12 12 12 16 12c11 0 11 -7 11 -24v-237c0 -21 0 -24 -16 -24c-14 0 -14 3 -16 17c-20 146 -109 237 -218 237c-61 0 -256 -34 -256 -333c0 -298 196 -332 257 -332c109 0 216 82 224 225c1 10 1 16 12 16
c13 0 13 -7 13 -17c0 -116 -98 -255 -261 -255c-186 0 -348 157 -348 364z" />
    <glyph glyph-name="D" unicode="D" horiz-adv-x="763" 
d="M35 0v31h24c77 0 79 11 79 47v527c0 36 -2 47 -79 47h-24v31h366c171 0 306 -157 306 -347c0 -188 -138 -336 -306 -336h-366zM224 71c0 -33 2 -40 49 -40h101c101 0 158 58 178 85c36 49 55 109 55 220c0 78 -9 164 -52 223c-51 71 -120 93 -182 93h-100
c-47 0 -49 -7 -49 -40v-541z" />
    <glyph glyph-name="E" unicode="E" horiz-adv-x="680" 
d="M33 0v31h24c77 0 79 11 79 47v524c0 36 -2 47 -79 47h-24v31h563l28 -225h-25c-16 139 -43 194 -196 194h-129c-47 0 -49 -7 -49 -40v-240h90c97 0 108 31 108 117h25v-265h-25c0 85 -11 117 -108 117h-90v-267c0 -33 2 -40 49 -40h133c172 0 195 73 220 227h25l-42 -258
h-577z" />
    <glyph glyph-name="F" unicode="F" horiz-adv-x="652" 
d="M33 0v31h24c77 0 79 11 79 47v524c0 36 -2 47 -79 47h-24v31h549l28 -225h-25c-16 138 -41 194 -191 194h-120c-47 0 -49 -7 -49 -40v-253h86c96 0 106 33 106 117h25v-265h-25c0 85 -10 117 -106 117h-86v-246c0 -35 0 -48 95 -48h33v-31c-36 3 -127 3 -168 3
c-39 0 -117 0 -152 -3z" />
    <glyph glyph-name="G" unicode="G" horiz-adv-x="784" 
d="M56 342c0 205 162 363 348 363c99 0 153 -54 185 -86l50 74c8 12 12 12 16 12c11 0 11 -7 11 -24v-237c0 -21 0 -24 -16 -24c-14 0 -14 3 -16 17c-20 147 -111 237 -218 237c-60 0 -257 -33 -257 -332c0 -298 198 -333 263 -333c28 0 155 9 155 121v64c0 37 -3 48 -93 48
h-32v31c36 -3 121 -3 161 -3c30 0 85 2 122 3v-31c-65 0 -69 -5 -69 -44v-174c0 -15 0 -23 -9 -23c-11 0 -51 40 -64 62c-34 -59 -114 -85 -187 -85c-190 0 -350 159 -350 364z" />
    <glyph glyph-name="H" unicode="H" horiz-adv-x="750" 
d="M33 0v31h24c77 0 79 11 79 47v527c0 36 -2 47 -79 47h-24v31c35 -3 110 -3 148 -3s112 0 147 3v-31h-24c-77 0 -79 -11 -79 -47v-234h299v234c0 36 -2 47 -79 47h-24v31c35 -3 110 -3 148 -3s112 0 147 3v-31h-24c-77 0 -79 -11 -79 -47v-527c0 -36 2 -47 79 -47h24v-31
c-35 3 -110 3 -148 3s-112 0 -147 -3v31h24c77 0 79 11 79 47v262h-299v-262c0 -36 2 -47 79 -47h24v-31c-35 3 -110 3 -148 3s-112 0 -147 -3z" />
    <glyph glyph-name="I" unicode="I" horiz-adv-x="361" 
d="M28 0v31h26c79 0 82 11 82 47v527c0 36 -3 47 -82 47h-26v31c35 -3 114 -3 153 -3c38 0 117 0 152 3v-31h-26c-79 0 -82 -11 -82 -47v-527c0 -36 3 -47 82 -47h26v-31c-35 3 -114 3 -153 3c-38 0 -117 0 -152 -3z" />
    <glyph glyph-name="J" unicode="J" horiz-adv-x="513" 
d="M41 112c0 44 34 58 56 58c28 0 56 -20 56 -56c0 -26 -12 -56 -64 -56c36 -58 104 -58 110 -58c53 0 103 56 103 148v456c0 35 0 48 -98 48h-36v31c38 -3 126 -3 168 -3c47 0 85 1 129 3v-31c-63 0 -77 0 -77 -41v-444c0 -34 0 -36 -1 -44c-11 -75 -84 -145 -186 -145
c-89 0 -160 60 -160 134z" />
    <glyph glyph-name="K" unicode="K" horiz-adv-x="777" 
d="M33 0v31h24c77 0 79 11 79 47v527c0 36 -2 47 -79 47h-24v31c35 -3 110 -3 148 -3s112 0 147 3v-31h-24c-77 0 -79 -11 -79 -47v-318l313 299c8 7 18 17 18 33c0 9 -6 32 -46 33v31c34 -3 91 -3 127 -3c27 0 59 0 85 3v-31c-81 -1 -134 -52 -142 -60l-180 -173l231 -340
c30 -44 51 -48 105 -48v-31c-42 2 -80 3 -115 3c-38 0 -108 0 -143 -3v31c20 0 59 0 59 30c0 12 -9 25 -15 34l-181 268l-116 -110v-175c0 -36 2 -47 79 -47h24v-31c-35 3 -110 3 -148 3s-112 0 -147 -3z" />
    <glyph glyph-name="L" unicode="L" horiz-adv-x="625" 
d="M33 0v31h24c77 0 79 11 79 47v527c0 36 -2 47 -79 47h-24v31c35 -3 113 -3 152 -3c41 0 132 0 168 3v-31h-33c-95 0 -95 -14 -95 -48v-533c0 -33 2 -40 49 -40h82c176 0 190 125 201 227h25l-28 -258h-521z" />
    <glyph glyph-name="M" unicode="M" horiz-adv-x="916" 
d="M37 0v31c103 0 103 47 103 74v500c0 36 -2 47 -79 47h-24v31h169c23 0 26 0 35 -22l217 -560l219 563c7 18 7 19 33 19h169v-31h-24c-77 0 -79 -11 -79 -47v-527c0 -36 2 -47 79 -47h24v-31c-37 3 -104 3 -143 3s-107 0 -144 -3v31h24c77 0 79 11 79 47v574h-1l-246 -633
c-4 -11 -7 -19 -18 -19c-10 0 -15 9 -20 22l-241 622h-1v-539c0 -27 0 -74 103 -74v-31c-35 1 -84 3 -117 3s-82 -2 -117 -3z" />
    <glyph glyph-name="N" unicode="N" horiz-adv-x="750" 
d="M33 0v31c103 0 103 47 103 74v522c0 19 -1 20 -24 23c-15 1 -35 2 -50 2h-29v31h170c19 0 20 -1 29 -13l353 -519v427c0 27 0 74 -103 74v31c35 -1 84 -3 117 -3s82 2 117 3v-31c-103 0 -103 -47 -103 -74v-552c0 -19 0 -26 -14 -26c-7 0 -8 1 -17 13l-408 600
c-4 6 -5 7 -10 12v-520c0 -27 0 -74 103 -74v-31c-35 1 -84 3 -117 3s-82 -2 -117 -3z" />
    <glyph glyph-name="O" unicode="O" horiz-adv-x="777" 
d="M56 339c0 206 153 366 332 366c182 0 333 -162 333 -366c0 -202 -151 -361 -333 -361c-178 0 -332 156 -332 361zM159 353c0 -261 134 -349 230 -349c92 0 229 84 229 349c0 256 -143 327 -230 327c-83 0 -229 -68 -229 -327z" />
    <glyph glyph-name="P" unicode="P" horiz-adv-x="680" 
d="M35 0v31h24c77 0 79 11 79 47v527c0 36 -2 47 -79 47h-24v31h353c137 0 236 -88 236 -186c0 -100 -108 -181 -228 -181h-169v-238c0 -36 2 -47 79 -47h24v-31c-35 3 -110 3 -148 3s-112 0 -147 -3zM224 342h138c159 0 159 108 159 155c0 49 0 155 -159 155h-89
c-47 0 -49 -7 -49 -40v-270z" />
    <glyph glyph-name="Q" unicode="Q" horiz-adv-x="777" 
d="M56 339c0 206 153 366 332 366c182 0 333 -162 333 -366c0 -151 -85 -279 -203 -332c24 -64 49 -98 96 -98c43 0 85 30 91 84c1 10 2 18 11 18c11 0 11 -11 11 -21c0 -51 -19 -184 -121 -184c-93 0 -107 92 -122 187c-29 -9 -64 -15 -95 -15c-182 0 -333 159 -333 361z
M156 339c0 -230 112 -303 166 -323c-1 2 -14 21 -14 48c0 41 31 84 82 84c59 0 91 -50 113 -106c106 78 118 219 118 297c0 255 -136 341 -233 341c-92 0 -232 -81 -232 -341zM330 64c0 -15 8 -61 59 -61c22 0 54 4 88 23c-11 58 -33 100 -87 100c-39 0 -60 -33 -60 -62z
" />
    <glyph glyph-name="R" unicode="R" horiz-adv-x="736" 
d="M35 0v31h24c77 0 79 11 79 47v527c0 36 -2 47 -79 47h-24v31h314c147 0 261 -84 261 -180c0 -78 -78 -139 -175 -163c55 -19 104 -52 122 -116l13 -80c14 -93 22 -144 71 -144c25 0 60 18 66 89c1 7 1 16 12 16c13 0 13 -11 13 -17c0 -28 -17 -110 -95 -110
c-30 0 -85 6 -126 42c-41 38 -41 78 -41 143c0 67 0 98 -38 134c-35 34 -77 34 -93 34h-115v-253c0 -36 2 -47 79 -47h24v-31c-36 3 -107 3 -146 3s-110 0 -146 -3zM224 353h111c148 0 172 81 172 150c0 145 -112 149 -202 149c-20 0 -49 0 -59 -2c-22 -3 -22 -15 -22 -38
v-259z" />
    <glyph glyph-name="S" unicode="S" horiz-adv-x="555" 
d="M56 2v200c0 18 0 25 13 25c3 0 11 0 12 -10c1 -36 4 -100 62 -154c53 -49 129 -54 158 -54c84 0 134 72 134 143c0 33 -10 66 -31 92c-28 37 -58 44 -85 51c-70 17 -121 29 -132 33c-78 27 -131 100 -131 183c0 106 84 194 195 194c89 0 130 -41 160 -70l35 57
c7 12 8 13 15 13c11 0 11 -7 11 -24v-201c0 -19 0 -24 -13 -24c-11 0 -11 6 -12 12c-6 45 -28 209 -195 209c-78 0 -132 -61 -132 -131c0 -58 39 -112 101 -127l128 -31c84 -20 150 -102 150 -202c0 -110 -80 -208 -197 -208c-89 0 -153 36 -184 70c-33 -53 -36 -56 -36 -57
c-7 -11 -8 -13 -15 -13c-11 0 -11 7 -11 24z" />
    <glyph glyph-name="T" unicode="T" horiz-adv-x="722" 
d="M36 452l19 225h611l19 -225h-25c-14 161 -29 194 -180 194c-19 0 -46 0 -57 -2c-18 -4 -18 -18 -18 -38v-527c0 -34 0 -48 105 -48h40v-31c-41 3 -144 3 -190 3s-148 0 -189 -3v31h40c105 0 105 14 105 48v527c0 23 0 34 -21 38c-10 2 -36 2 -54 2
c-151 0 -166 -33 -180 -194h-25z" />
    <glyph glyph-name="U" unicode="U" horiz-adv-x="750" 
d="M33 652v31c35 -3 110 -3 148 -3s112 0 147 3v-31h-24c-77 0 -79 -11 -79 -47v-381c0 -190 118 -215 165 -215c95 0 192 80 192 222v347c0 27 0 74 -103 74v31c36 -1 84 -3 119 -3c34 0 82 2 118 3v-31c-103 0 -103 -45 -103 -78v-320c0 -40 0 -49 -3 -69
c-17 -114 -107 -207 -222 -207c-136 0 -252 109 -252 250v377c0 36 -2 47 -79 47h-24z" />
    <glyph glyph-name="V" unicode="V" horiz-adv-x="750" 
d="M19 652v31c36 -1 79 -3 127 -3c38 0 107 0 143 3v-31c-25 0 -82 0 -82 -29c0 -2 0 -4 6 -18l191 -505l183 482c2 6 5 12 5 20c0 23 -21 49 -73 50v31c26 -1 84 -3 114 -3c26 0 66 1 97 3v-31c-68 -1 -95 -30 -109 -67l-223 -588c-5 -14 -7 -19 -24 -19
c-13 0 -18 3 -25 22l-232 614c-14 38 -33 38 -98 38z" />
    <glyph glyph-name="W" unicode="W" horiz-adv-x="1027" 
d="M18 652v31c41 -1 84 -3 122 -3s106 0 142 3v-31c-26 0 -84 0 -84 -30c0 -3 1 -10 2 -13l161 -492l139 429l-22 70c-12 36 -33 36 -90 36v31c41 -1 84 -3 122 -3s106 0 142 3v-31c-26 0 -84 0 -84 -30c0 -5 2 -11 3 -15l160 -490l150 462c2 6 5 14 5 20
c0 19 -20 52 -87 53v31c26 -1 90 -3 119 -3c30 0 61 1 91 3v-31c-39 0 -82 -10 -100 -67l-191 -587c-4 -13 -6 -20 -20 -20c-13 0 -16 10 -19 19l-166 509l-165 -508c-4 -13 -6 -20 -20 -20c-13 0 -16 10 -19 19l-200 613c-12 37 -16 42 -91 42z" />
    <glyph glyph-name="X" unicode="X" horiz-adv-x="750" 
d="M24 0v31c101 0 131 46 145 66l164 242l-184 278c-19 28 -38 35 -93 35h-19v31c37 -2 99 -3 130 -3c38 0 111 0 146 3v-31c-43 -1 -65 -18 -65 -30c0 -4 5 -12 7 -15l129 -193l114 169c7 11 9 13 9 23c0 23 -22 45 -62 46v31c40 -3 88 -3 128 -3c25 0 72 2 111 3v-31
c-89 -1 -123 -33 -145 -65l-137 -201l211 -319c21 -31 42 -36 94 -36h19v-31c-42 2 -88 3 -130 3c-38 0 -111 0 -146 -3v31c43 1 65 18 65 30c0 3 -3 7 -5 11l-158 239l-142 -210c-7 -11 -10 -15 -10 -24c0 -18 17 -45 63 -46v-31c-36 3 -91 3 -128 3c-33 0 -75 -2 -111 -3z
" />
    <glyph glyph-name="Y" unicode="Y" horiz-adv-x="750" 
d="M11 652v31c42 -2 88 -3 130 -3c39 0 112 0 148 3v-31c-45 0 -70 -4 -70 -25c0 -5 0 -7 7 -17l181 -295l165 268c4 6 10 19 10 30c0 20 -16 39 -57 39v31c26 -1 84 -3 115 -3c27 0 67 1 98 3v-31c-32 0 -91 -4 -128 -65l-193 -314v-193c0 -39 3 -49 80 -49h23v-31
c-36 3 -107 3 -146 3s-110 0 -146 -3v31h24c77 0 79 11 79 47v195l-210 342c-16 26 -24 37 -92 37h-18z" />
    <glyph glyph-name="Z" unicode="Z" horiz-adv-x="611" 
d="M56 17c0 8 0 9 7 20l389 615h-157c-164 0 -194 -81 -201 -194h-25l11 225h448c20 0 26 0 26 -16c0 -7 0 -8 -7 -19l-388 -614h164c185 0 204 94 212 233h25l-17 -267h-461c-21 0 -26 0 -26 17z" />
    <glyph glyph-name="bracketleft" unicode="[" horiz-adv-x="278" 
d="M104 -250v1000h151v-23h-84v-954h84v-23h-151z" />
    <glyph glyph-name="backslash" unicode="\" 
d="M57 736c0 7 3 12 9 12c10 0 15 -16 17 -21l354 -945c2 -6 5 -13 5 -18c0 -7 -4 -12 -10 -12c-10 0 -15 18 -17 23l-354 946c-4 10 -4 12 -4 15z" />
    <glyph glyph-name="bracketright" unicode="]" horiz-adv-x="278" 
d="M21 -227h84v954h-84v23h151v-1000h-151v23z" />
    <glyph glyph-name="asciicircum" unicode="^" horiz-adv-x="611" 
d="M117 484l187 144l188 -144l-15 -21l-173 112l-172 -112z" />
    <glyph glyph-name="underscore" unicode="_" horiz-adv-x="778" 
d="M84 -213c0 16 14 20 30 20h548c14 0 30 -3 30 -20c0 -18 -17 -20 -28 -20h-551c-24 0 -29 12 -29 20z" />
    <glyph glyph-name="grave" unicode="`" 
d="M100 605c0 16 14 37 35 37c19 0 22 -7 150 -132l-15 -20c-14 7 -27 14 -134 75c-9 5 -36 16 -36 40z" />
    <glyph glyph-name="a" unicode="a" 
d="M42 95c0 44 25 96 100 130c63 30 133 33 184 36v37c0 89 -57 128 -106 128c-32 0 -81 -11 -108 -46c46 -1 51 -34 51 -46c0 -26 -18 -46 -46 -46c-26 0 -46 17 -46 47c0 66 69 113 151 113c48 0 98 -16 137 -55c36 -37 36 -76 36 -118v-200c0 -5 4 -50 37 -50
c11 0 36 6 36 64v56h25v-56c0 -81 -61 -95 -82 -95c-47 0 -74 42 -78 82c-19 -47 -65 -87 -131 -87c-63 0 -160 25 -160 106zM119 96c0 -50 41 -85 90 -85c45 0 117 34 117 129v100c-165 -6 -207 -89 -207 -144z" />
    <glyph glyph-name="b" unicode="b" horiz-adv-x="555" 
d="M28 652v31l144 11v-317c16 18 59 65 137 65c114 0 212 -99 212 -226c0 -129 -104 -227 -223 -227c-74 0 -116 50 -131 73c-27 -47 -35 -61 -36 -62h-25v596c0 49 -8 56 -78 56zM175 114c0 -18 0 -21 14 -42c24 -37 60 -61 105 -61c54 0 92 33 113 64c29 45 31 105 31 142
c0 41 -3 98 -29 139c-24 38 -60 64 -105 64c-24 0 -79 -8 -118 -64c-11 -16 -11 -17 -11 -36v-206z" />
    <glyph glyph-name="c" unicode="c" horiz-adv-x="444" 
d="M34 216c0 124 92 232 217 232c77 0 153 -39 153 -107c0 -30 -20 -47 -46 -47c-28 0 -46 20 -46 46c0 13 6 43 47 46c-35 36 -98 37 -107 37c-53 0 -135 -42 -135 -205c0 -161 88 -204 141 -204c37 0 102 12 131 105c2 6 4 10 13 10c3 0 13 0 13 -10s-32 -130 -166 -130
c-116 0 -215 99 -215 227z" />
    <glyph glyph-name="d" unicode="d" horiz-adv-x="555" 
d="M34 215c0 129 105 227 223 227c54 0 97 -26 126 -62v216c0 49 -8 56 -78 56v31l144 11v-607c0 -49 8 -56 78 -56v-31l-147 -11v66c-25 -32 -70 -66 -134 -66c-114 0 -212 99 -212 226zM117 214c0 -41 3 -98 29 -139c24 -38 60 -64 105 -64c43 0 88 22 118 70
c11 17 11 19 11 37v205c0 18 0 20 -11 37c-31 45 -73 60 -108 60c-54 0 -92 -33 -113 -64c-29 -45 -31 -105 -31 -142z" />
    <glyph glyph-name="e" unicode="e" horiz-adv-x="444" 
d="M28 220c0 125 92 228 208 228c125 0 179 -97 179 -196c0 -21 -3 -21 -25 -21h-279c0 -36 0 -102 30 -150c23 -37 63 -67 113 -67c10 0 100 0 135 103c2 8 4 14 13 14c5 0 13 -2 13 -12c0 -19 -45 -130 -167 -130c-115 0 -220 97 -220 231zM112 252h237
c0 39 -10 174 -113 174c-34 0 -118 -25 -124 -174z" />
    <glyph glyph-name="f" unicode="f" horiz-adv-x="305" 
d="M33 400v31h79v115c0 106 85 159 155 159c53 0 90 -33 90 -70c0 -24 -15 -44 -44 -44c-27 0 -43 20 -43 43c0 25 18 38 30 42c-15 7 -30 7 -33 7c-44 0 -92 -48 -92 -136v-116h117v-31h-114v-322c0 -36 2 -47 76 -47h21v-31c-40 3 -87 3 -127 3c-28 0 -75 -2 -114 -3v31
c67 0 78 0 78 45v324h-79z" />
    <glyph glyph-name="g" unicode="g" 
d="M28 -79c0 40 32 83 92 100c-31 20 -44 58 -44 89c0 35 18 68 31 83c-25 21 -47 59 -47 103c0 77 69 146 162 146c22 0 64 -3 106 -36c42 41 86 47 106 47c39 0 51 -32 51 -49c0 -23 -19 -30 -29 -30c-16 0 -29 12 -29 29c0 12 5 23 16 27c-3 1 -8 1 -10 1
c-18 0 -54 -5 -90 -39c25 -23 41 -60 41 -97c0 -77 -69 -146 -162 -146c-19 0 -60 3 -99 31c-17 -20 -17 -43 -17 -47c0 -32 21 -63 53 -67c7 -1 50 -1 75 -1c61 0 119 0 172 -28c51 -28 65 -79 65 -114c0 -78 -104 -129 -222 -129c-122 0 -221 55 -221 127zM80 -79
c0 -53 69 -104 170 -104c98 0 169 50 169 104c0 86 -112 86 -198 86h-59c-44 -3 -82 -40 -82 -86zM135 295c0 -23 0 -123 87 -123c40 0 63 28 71 40c15 25 16 57 16 84c0 23 0 123 -87 123c-40 0 -63 -28 -71 -40c-15 -25 -16 -57 -16 -84z" />
    <glyph glyph-name="h" unicode="h" horiz-adv-x="555" 
d="M32 0v31c67 0 78 0 78 45v520c0 49 -8 56 -78 56v31l144 11v-348h1c16 36 60 96 144 96c58 0 91 -20 105 -37c31 -36 31 -67 31 -153v-191c1 -30 26 -30 78 -30v-31c-34 1 -86 3 -112 3c-27 0 -78 -2 -113 -3v31c67 0 78 0 78 45v233c0 57 -11 111 -74 111
c-64 0 -135 -56 -135 -160v-184c0 -45 11 -45 78 -45v-31c-34 1 -86 3 -112 3c-27 0 -78 -2 -113 -3z" />
    <glyph glyph-name="i" unicode="i" horiz-adv-x="277" 
d="M75 616c0 26 22 53 53 53c28 0 53 -21 53 -53s-25 -53 -53 -53c-31 0 -53 26 -53 53zM33 0v31c67 0 78 0 78 45v269c0 49 -9 55 -74 55v31l140 11v-367c0 -39 4 -44 70 -44v-31c-34 1 -69 3 -104 3c-24 0 -78 -2 -110 -3z" />
    <glyph glyph-name="j" unicode="j" horiz-adv-x="305" 
d="M104 616c0 29 24 53 53 53s53 -24 53 -53s-24 -53 -53 -53s-53 24 -53 53zM-40 -125c0 26 18 46 46 46s46 -20 46 -46c0 -27 -20 -41 -35 -45c26 -13 49 -13 54 -13c64 0 73 86 73 131v396c0 49 -9 56 -86 56v31l152 11v-492c0 -91 -62 -155 -137 -155
c-57 0 -113 28 -113 80z" />
    <glyph glyph-name="k" unicode="k" horiz-adv-x="527" 
d="M28 0v31c67 0 78 0 78 45v520c0 49 -8 56 -78 56v31l144 11v-480l141 122c8 7 22 19 22 39c0 13 -10 24 -29 25v31c14 -1 76 -3 112 -3c28 0 41 0 70 3v-31c-21 -1 -63 -3 -126 -54c-10 -8 -81 -68 -81 -72c0 -3 5 -9 6 -11l127 -179c38 -53 60 -53 97 -53v-31
c-29 2 -58 3 -87 3c-21 0 -80 -2 -108 -3v31c19 0 36 4 36 23c0 18 -42 74 -119 180l-64 -55v-103c0 -45 11 -45 78 -45v-31c-40 2 -80 3 -110 3c-29 0 -76 -2 -109 -3z" />
    <glyph glyph-name="l" unicode="l" horiz-adv-x="277" 
d="M33 0v31c67 0 78 0 78 45v520c0 49 -8 56 -78 56v31l144 11v-618c0 -45 11 -45 78 -45v-31c-37 1 -86 3 -111 3s-78 -2 -111 -3z" />
    <glyph glyph-name="m" unicode="m" horiz-adv-x="833" 
d="M32 0v31c67 0 78 0 78 45v268c0 49 -8 56 -78 56v31l141 11v-105c28 62 75 105 148 105c45 0 119 -11 133 -98c17 38 61 98 145 98c58 0 91 -20 105 -37c31 -36 31 -67 31 -153v-191c1 -30 26 -30 78 -30v-31c-34 1 -86 3 -112 3c-27 0 -78 -2 -113 -3v31
c67 0 78 0 78 45v233c0 57 -11 111 -74 111c-64 0 -135 -56 -135 -160v-184c0 -45 11 -45 78 -45v-31c-34 1 -86 3 -112 3c-27 0 -78 -2 -113 -3v31c67 0 78 0 78 45v233c0 57 -11 111 -74 111c-64 0 -135 -56 -135 -160v-184c0 -45 11 -45 78 -45v-31c-34 1 -86 3 -112 3
c-27 0 -78 -2 -113 -3z" />
    <glyph glyph-name="n" unicode="n" horiz-adv-x="555" 
d="M32 0v31c67 0 78 0 78 45v268c0 49 -8 56 -78 56v31l141 11v-105c28 62 75 105 148 105c58 0 91 -20 105 -37c31 -36 31 -67 31 -153v-191c1 -30 26 -30 78 -30v-31c-34 1 -86 3 -112 3c-27 0 -78 -2 -113 -3v31c67 0 78 0 78 45v233c0 57 -11 111 -74 111
c-64 0 -135 -56 -135 -160v-184c0 -45 11 -45 78 -45v-31c-34 1 -86 3 -112 3c-27 0 -78 -2 -113 -3z" />
    <glyph glyph-name="o" unicode="o" 
d="M28 214c0 125 97 234 222 234c121 0 221 -106 221 -234c0 -127 -101 -225 -222 -225c-117 0 -221 96 -221 225zM111 222c0 -36 0 -97 25 -141c27 -46 71 -67 114 -67c50 0 94 29 116 74c22 44 22 98 22 134c0 38 0 96 -26 139s-69 65 -113 65c-40 0 -87 -21 -114 -67
c-24 -44 -24 -98 -24 -137z" />
    <glyph glyph-name="p" unicode="p" horiz-adv-x="555" 
d="M28 -163c67 0 78 0 78 45v468c0 44 -7 50 -78 50v31l144 11v-66c20 22 62 66 140 66c112 0 209 -99 209 -226c0 -129 -104 -227 -223 -227c-76 0 -118 54 -123 70v-9v-168c0 -45 11 -45 78 -45v-31c-35 1 -86 3 -113 3c-26 0 -78 -2 -112 -3v31zM175 114
c0 -20 0 -21 14 -42c27 -41 65 -61 105 -61c74 0 144 84 144 205c0 113 -61 201 -134 201c-51 0 -100 -29 -129 -80v-223z" />
    <glyph glyph-name="q" unicode="q" horiz-adv-x="527" 
d="M34 215c0 130 105 227 221 227c80 0 121 -63 134 -91l38 91h22v-560c0 -45 11 -45 78 -45v-31c-35 1 -86 3 -113 3c-26 0 -78 -2 -112 -3v31c67 0 78 0 78 45v179c-22 -29 -63 -72 -133 -72c-116 0 -213 101 -213 226zM117 215c0 -115 61 -204 134 -204c47 0 79 27 92 41
c22 24 40 52 40 84v141c0 53 -42 140 -122 140c-74 0 -144 -83 -144 -202z" />
    <glyph glyph-name="r" unicode="r" horiz-adv-x="391" 
d="M28 0v31c67 0 78 0 78 45v268c0 49 -8 56 -78 56v31l139 11v-110c14 43 50 110 123 110c43 0 74 -29 74 -61s-25 -44 -43 -44c-22 0 -43 15 -43 43c0 26 20 38 23 39c-2 1 -4 1 -11 1c-76 0 -118 -89 -118 -188v-154c0 -36 2 -47 76 -47h21v-31c-40 3 -87 3 -127 3
c-28 0 -75 -2 -114 -3z" />
    <glyph glyph-name="s" unicode="s" horiz-adv-x="394" 
d="M33 13v132c0 18 0 25 13 25c10 0 11 -4 14 -17c19 -85 55 -142 139 -142c78 0 113 40 113 91c0 72 -82 88 -104 92c-72 14 -100 20 -132 46c-27 22 -43 50 -43 85c0 56 38 123 160 123c15 0 56 0 94 -28c4 3 14 12 17 16c13 12 15 12 20 12c11 0 11 -7 11 -24v-101
c0 -19 0 -24 -13 -24c-2 0 -11 0 -12 9c-2 31 -7 121 -117 121c-86 0 -112 -41 -112 -76c0 -58 67 -71 123 -82c42 -8 81 -16 114 -48c12 -12 42 -42 42 -95c0 -72 -46 -139 -161 -139c-21 0 -66 1 -110 43c-18 -19 -18 -21 -20 -23c-19 -19 -20 -20 -25 -20
c-11 0 -11 7 -11 24z" />
    <glyph glyph-name="t" unicode="t" horiz-adv-x="388" 
d="M19 400v22c98 4 128 111 129 193h25v-184h143v-31h-143v-278c0 -17 0 -108 67 -108c37 0 67 38 67 112v55h25v-57c0 -64 -28 -135 -99 -135c-36 0 -129 12 -129 135v276h-85z" />
    <glyph glyph-name="u" unicode="u" horiz-adv-x="555" 
d="M32 400v31l147 11v-332c0 -52 4 -99 88 -99c73 0 121 68 121 155v178c0 49 -8 56 -78 56v31l147 11v-355c0 -49 8 -56 78 -56v-31l-144 -11v90c-29 -62 -73 -90 -129 -90c-152 0 -152 91 -152 169v150c0 89 0 92 -78 92z" />
    <glyph glyph-name="v" unicode="v" horiz-adv-x="527" 
d="M19 400v31c30 -2 70 -3 97 -3c23 0 79 2 109 3v-31c-18 0 -57 0 -57 -26c0 -2 0 -4 6 -17l112 -279l102 255c4 11 6 15 6 24c0 19 -11 42 -48 43v31c17 -1 63 -3 87 -3c23 0 52 1 75 3v-31c-66 -1 -83 -44 -92 -67l-131 -325c-4 -10 -8 -19 -21 -19s-15 5 -21 19
l-144 355c-13 31 -17 37 -80 37z" />
    <glyph glyph-name="w" unicode="w" horiz-adv-x="722" 
d="M18 400v31c36 -2 89 -3 93 -3c23 0 79 2 109 3v-31c-20 0 -59 0 -59 -27c0 -4 0 -6 5 -18l95 -267l86 242c-7 19 -18 49 -23 55c-10 13 -26 15 -63 15v31c30 -2 59 -3 89 -3c24 0 75 2 104 3v-31c-20 0 -59 0 -59 -27c0 -5 1 -7 5 -19l99 -279l91 256c5 13 5 15 5 21
c0 29 -22 47 -58 48v31c19 -1 64 -3 93 -3c22 0 51 1 73 3v-31c-35 -1 -66 -14 -84 -64l-117 -328c-4 -10 -7 -19 -20 -19s-16 8 -20 19l-102 284l-101 -283c-5 -14 -7 -20 -20 -20s-16 8 -21 22l-126 354c-12 32 -24 35 -74 35z" />
    <glyph glyph-name="x" unicode="x" horiz-adv-x="527" 
d="M12 0v31c21 0 80 2 128 60l94 119l-99 129c-47 60 -48 61 -118 61v31c27 -2 74 -3 95 -3c16 0 82 2 108 3v-31c-20 -1 -35 -10 -35 -25c0 -6 0 -8 9 -18l78 -101l62 78c5 6 15 19 15 35s-8 29 -29 31v31c13 -1 66 -3 96 -3c26 0 56 1 82 3v-31c-47 -1 -88 -16 -119 -52
c-24 -26 -62 -75 -92 -113l134 -173c23 -29 41 -31 95 -31v-31c-30 2 -69 3 -96 3c-22 0 -78 -2 -108 -3v31c27 1 36 16 36 25c0 6 -13 22 -21 33l-76 100c-61 -72 -90 -105 -90 -127c0 -15 7 -28 29 -31v-31c-24 1 -66 3 -95 3c-26 0 -57 -1 -83 -3z" />
    <glyph glyph-name="y" unicode="y" horiz-adv-x="527" 
d="M19 -124c0 30 22 43 42 43c23 0 42 -16 42 -42c0 -16 -8 -38 -39 -42c19 -18 42 -18 47 -18c64 0 92 69 114 124c6 13 20 46 25 59l-150 365c-14 35 -33 35 -81 35v31c30 -2 70 -3 97 -3c17 0 83 2 109 3v-31c-19 0 -56 0 -56 -26c0 -4 2 -8 6 -18l111 -269l101 246
c5 12 6 14 6 24c0 25 -16 42 -47 43v31c22 -1 69 -3 87 -3c23 0 52 1 75 3v-31c-16 0 -67 -1 -93 -64l-176 -427c-24 -57 -65 -114 -128 -114c-50 0 -92 36 -92 81z" />
    <glyph glyph-name="z" unicode="z" horiz-adv-x="444" 
d="M28 14c0 5 0 7 9 18l279 377h-114c-110 0 -129 -37 -135 -139h-25l11 161h320c18 0 26 0 26 -13c0 -4 0 -6 -9 -17l-278 -376h118c116 0 137 44 146 162h25l-17 -187h-330c-19 0 -26 0 -26 14z" />
    <glyph glyph-name="braceleft" unicode="{" 
d="M73 250c0 14 13 10 38 15c44 9 92 40 101 92c2 10 2 19 2 29v218c0 37 5 58 25 82c40 48 119 64 168 64c14 0 18 -6 18 -11c0 -16 -27 -10 -56 -19c-80 -26 -85 -87 -85 -110v-225c0 -22 3 -104 -119 -135c112 -28 119 -103 119 -129v-222c0 -12 0 -24 2 -36
c9 -43 52 -82 115 -89c8 -1 24 -1 24 -13c0 -8 -8 -11 -17 -11c-83 0 -183 35 -193 119c-1 10 -1 19 -1 29v219c0 95 -87 117 -109 120c-14 2 -32 0 -32 13z" />
    <glyph glyph-name="bar" unicode="|" horiz-adv-x="278" 
d="M118 -219v931c0 16 0 37 20 37c8 0 20 -4 20 -30v-931c0 -16 0 -37 -20 -37c-18 0 -20 18 -20 30z" />
    <glyph glyph-name="braceright" unicode="}" 
d="M73 -239c0 15 24 9 56 19c80 26 85 87 85 110v225c0 23 -4 104 119 135c-112 28 -119 102 -119 128v223c0 12 0 24 -2 36c-9 43 -52 82 -115 89c-8 1 -24 0 -24 12c0 8 8 12 17 12c83 0 183 -35 193 -119c1 -10 1 -19 1 -29v-219c0 -96 86 -116 109 -120
c14 -2 32 -1 32 -13c0 -14 -15 -10 -39 -15c-44 -9 -91 -40 -100 -92c-2 -10 -2 -19 -2 -29v-218c0 -26 1 -68 -48 -104c-46 -34 -109 -42 -145 -42c-16 0 -18 6 -18 11z" />
    <glyph glyph-name="asciitilde" unicode="~" horiz-adv-x="611" 
d="M83 588c33 38 61 80 125 80c70 0 134 -48 204 -48c47 0 72 22 98 48l17 -15c-31 -36 -61 -79 -125 -79c-70 0 -134 47 -204 47c-47 0 -72 -21 -98 -47z" />
    <glyph glyph-name="uni00A0" unicode="&#xa0;" horiz-adv-x="333" 
 />
    <glyph glyph-name="exclamdown" unicode="&#xa1;" horiz-adv-x="278" 
d="M85 -164c0 13 2 26 4 44l35 407c1 9 1 25 14 25c17 0 13 -17 22 -115l29 -341c1 -7 2 -13 2 -20c0 -37 -31 -52 -53 -52c-27 0 -53 19 -53 52zM85 447c0 31 26 53 53 53c28 0 52 -22 52 -53s-26 -52 -52 -52c-31 0 -53 25 -53 52z" />
    <glyph glyph-name="cent" unicode="&#xa2;" 
d="M33 215c0 119 94 221 229 231v87h31v-87c101 -3 167 -41 167 -104c0 -32 -21 -48 -45 -48c-27 0 -46 21 -46 46c0 13 4 40 45 46c-19 14 -48 32 -121 35v-406c150 11 139 114 165 114c7 0 12 -4 12 -11c0 -13 -34 -118 -177 -128v-87h-31v87c-133 9 -229 107 -229 225z
M117 216c0 -89 39 -180 145 -200v404c-87 -12 -145 -82 -145 -204z" />
    <glyph glyph-name="sterling" unicode="&#xa3;" horiz-adv-x="639" 
d="M55 48c0 51 52 91 119 91h1c8 0 30 -1 65 -12c3 29 2 61 2 92v113h-60c-8 0 -18 -1 -23 7c-2 3 -3 6 -3 9c0 8 8 15 24 15h62v147c0 138 99 196 174 196c102 0 166 -96 166 -181c0 -41 -30 -50 -46 -50c-25 0 -46 18 -46 45s21 46 46 46c5 0 11 -1 16 -2
c-22 81 -80 119 -134 119c-42 0 -70 -27 -85 -53c-21 -38 -21 -82 -21 -124v-143h85c14 -1 28 -1 28 -15c0 -13 -8 -16 -24 -16h-89v-147c0 -33 -3 -52 -14 -83c50 -25 116 -69 178 -69c61 0 99 44 107 89c1 6 2 26 13 26c2 0 4 0 7 -2c5 -3 7 -8 7 -16
c0 -52 -48 -141 -147 -141c-66 0 -142 46 -188 71c-51 -66 -114 -71 -136 -71c-50 0 -84 23 -84 59zM93 47c0 -21 22 -35 47 -35c35 0 70 25 88 69c-32 12 -54 13 -67 13c-47 0 -68 -26 -68 -47z" />
    <glyph glyph-name="currency" unicode="&#xa4;" horiz-adv-x="736" 
d="M46 -24c2 11 3 10 105 112c-62 71 -71 146 -71 189c0 76 27 136 71 189c-104 104 -105 101 -105 114c0 9 9 18 17 18h2c12 0 18 -7 114 -104h1c72 61 146 70 188 70c78 0 138 -28 189 -70c98 98 101 104 114 104c7 0 18 -5 18 -19c0 -13 -34 -44 -104 -113v-1
c61 -72 70 -146 70 -188s-9 -117 -70 -188v-1c104 -103 104 -103 104 -114c0 -9 -8 -19 -19 -19s-10 1 -114 105c-71 -62 -146 -71 -188 -71c-76 0 -139 29 -188 71h-1c-103 -104 -103 -105 -114 -105s-20 10 -19 21zM120 277c0 -140 114 -248 248 -248
c132 0 247 107 247 248c0 132 -107 247 -247 247c-133 0 -248 -107 -248 -247z" />
    <glyph glyph-name="yen" unicode="&#xa5;" horiz-adv-x="750" 
d="M11 652v31c38 -2 77 -3 128 -3c50 0 100 1 150 3v-31h-6c-16 0 -63 0 -63 -25c0 -12 18 -35 113 -191h148c99 162 101 160 101 178c0 16 -11 36 -56 38v31c39 -2 78 -3 117 -3c38 0 66 1 95 3v-31c-53 -1 -90 -16 -118 -51c-12 -15 -21 -32 -102 -165h127
c19 0 22 0 27 -2s9 -9 6 -14c-4 -7 -14 -7 -24 -7h-134c-14 0 -16 -1 -27 -18c-75 -122 -75 -117 -75 -138v-15h236c12 0 24 -1 24 -12c0 -10 -11 -11 -22 -11h-238v-142c0 -42 13 -46 93 -46h10v-31c-42 1 -84 3 -140 3c-51 0 -102 -1 -153 -3v31h10c81 0 93 5 93 47v141
h-238c-11 0 -23 1 -23 11c0 11 13 12 25 12h236v16c0 20 1 13 -75 137c-11 17 -13 18 -26 18h-135c-12 0 -25 0 -25 12c0 7 10 11 34 11h127l-106 173c-27 43 -44 43 -105 43h-9zM347 413l60 -98l60 98h-120z" />
    <glyph glyph-name="brokenbar" unicode="&#xa6;" horiz-adv-x="167" 
d="M63 140c0 15 3 32 20 32c9 0 20 -7 20 -30v-360c0 -6 1 -31 -20 -31c-7 0 -20 4 -20 30v359zM63 359v359c0 26 12 31 20 31s20 -5 20 -31v-359c0 -26 -12 -31 -20 -31s-20 5 -20 31z" />
    <glyph glyph-name="section" unicode="&#xa7;" horiz-adv-x="444" 
d="M69 255c0 68 40 113 79 135c-27 26 -79 76 -79 160c0 92 73 155 153 155c81 0 138 -61 138 -119c0 -30 -23 -38 -35 -38c-18 0 -34 15 -34 35c0 10 6 33 37 35c-26 56 -84 64 -105 64c-72 0 -109 -74 -109 -128c0 -68 84 -96 123 -113c104 -47 137 -137 137 -196
c0 -29 -8 -94 -79 -135c43 -40 79 -89 79 -161c0 -84 -66 -154 -153 -154c-81 0 -138 60 -138 118c0 30 23 38 35 38c18 0 34 -14 34 -34c0 -10 -6 -33 -37 -35c26 -56 84 -65 105 -65c72 0 109 73 109 128c0 68 -84 96 -123 113c-104 47 -137 138 -137 197zM114 258
c0 -75 91 -96 140 -122c6 -3 10 -5 15 -5c17 0 60 48 60 109c0 76 -94 99 -140 123c-5 3 -10 6 -15 6c-21 0 -60 -53 -60 -111z" />
    <glyph glyph-name="dieresis" unicode="&#xa8;" 
d="M100 606c0 31 25 53 52 53c26 0 53 -22 53 -53s-27 -52 -53 -52c-31 0 -52 25 -52 52zM294 606c0 31 26 53 53 53c28 0 52 -22 52 -53s-26 -52 -52 -52c-31 0 -53 25 -53 52z" />
    <glyph glyph-name="copyright" unicode="&#xa9;" horiz-adv-x="1111" 
d="M277 239c0 146 133 261 286 261c62 0 105 -22 142 -55h1c29 32 49 54 59 54c9 0 12 -9 12 -21v-164c0 -17 -4 -18 -7 -21c-7 -5 -18 -3 -22 5c0 1 -24 171 -172 171c-59 0 -196 -27 -196 -229s135 -231 197 -231c87 0 164 58 173 146c1 8 1 23 15 23c10 0 12 -9 12 -19
c0 -68 -69 -181 -213 -181c-159 0 -287 120 -287 261zM55 250c0 303 238 522 500 522c268 0 499 -227 499 -522c0 -297 -232 -522 -500 -522s-499 227 -499 522zM95 249c0 -274 214 -481 458 -481c250 0 461 211 461 482c0 275 -214 482 -458 482
c-248 0 -461 -208 -461 -483z" />
    <glyph glyph-name="ordfeminine" unicode="&#xaa;" horiz-adv-x="444" 
d="M41 434c0 56 87 91 229 94v45c0 132 -47 170 -78 170c-37 0 -76 -28 -92 -98c5 1 11 1 16 1c26 0 46 -20 46 -45c0 -24 -18 -46 -46 -46c-12 0 -46 6 -46 52c0 61 36 159 125 159c56 0 145 -48 145 -188v-147c0 -16 3 -29 37 -29c32 1 36 10 36 28v25h25v-23
c0 -42 -12 -60 -106 -62h-13c-25 1 -34 10 -41 40c-19 -25 -48 -46 -107 -46c-64 0 -130 14 -130 70zM46 323c0 5 3 12 19 12h310c14 0 22 -3 22 -11c0 -11 -11 -12 -22 -12h-309c-13 0 -20 5 -20 11zM120 434c0 -28 28 -47 62 -47s70 14 83 41c5 11 5 23 5 35v44
c-85 -3 -150 -29 -150 -73z" />
    <glyph glyph-name="guillemotleft" unicode="&#xab;" horiz-adv-x="555" 
d="M113 242c0 7 8 12 16 18c151 109 171 221 192 221c6 0 9 -4 9 -8c0 -17 -41 -126 -145 -232c97 -94 145 -212 145 -230c0 -4 -3 -9 -9 -9c-10 0 -16 15 -17 18c-42 82 -101 149 -174 202c-7 5 -17 12 -17 20zM279 241c0 21 98 50 191 223c7 13 10 17 17 17
c6 0 10 -4 10 -8c0 -17 -42 -126 -146 -232c97 -94 146 -212 146 -230c0 -4 -4 -9 -10 -9c-10 0 -16 15 -17 18c-81 157 -191 205 -191 221z" />
    <glyph glyph-name="logicalnot" unicode="&#xac;" horiz-adv-x="667" 
d="M56 336c0 19 21 20 29 20h494c25 0 31 -8 31 -33v-201c0 -8 0 -31 -20 -31c-19 0 -20 20 -20 28v197h-482c-16 0 -32 3 -32 20z" />
    <glyph glyph-name="uni00AD" unicode="&#xad;" horiz-adv-x="167" 
d="M10 186v59h266v-59h-266z" />
    <glyph glyph-name="registered" unicode="&#xae;" horiz-adv-x="1111" 
d="M242 0v31h13c79 0 90 7 90 47v322c0 41 -11 47 -91 47h-12v31h268c190 0 252 -78 252 -129c0 -43 -41 -87 -140 -112c98 -33 86 -86 110 -174c6 -23 20 -62 55 -62c59 0 59 82 63 89c2 4 7 7 11 7c6 0 12 -5 12 -17c0 -21 -12 -102 -90 -102c-86 0 -162 26 -160 119v41
c0 62 -44 90 -107 90h-85v-150c0 -42 13 -47 94 -47h9v-31c-49 2 -97 3 -146 3s-97 -1 -146 -3zM431 250h75c63 0 153 4 153 99c0 79 -54 98 -143 98h-40c-43 0 -45 -13 -45 -45v-152zM55 250c0 303 238 522 500 522c268 0 499 -227 499 -522c0 -297 -232 -522 -500 -522
s-499 227 -499 522zM95 249c0 -274 214 -481 458 -481c250 0 461 211 461 482c0 275 -214 482 -458 482c-248 0 -461 -208 -461 -483z" />
    <glyph glyph-name="macron" unicode="&#xaf;" 
d="M69 649v32h360v-32h-360z" />
    <glyph glyph-name="degree" unicode="&#xb0;" horiz-adv-x="333" 
d="M55 572c0 61 50 111 111 111c65 0 111 -53 111 -110c0 -61 -51 -111 -111 -111c-65 0 -111 53 -111 110zM95 572c0 -41 34 -70 71 -70c38 0 70 30 70 70c0 41 -33 71 -70 71c-38 0 -71 -31 -71 -71z" />
    <glyph glyph-name="plusminus" unicode="&#xb1;" horiz-adv-x="778" 
d="M56 20c0 8 5 19 28 20h284v273h-282c-13 0 -30 2 -30 20s18 20 30 20h282v282c0 12 1 30 20 30c18 0 20 -18 20 -30v-282h282c12 0 30 -2 30 -20s-17 -20 -30 -20h-282v-273h282c10 0 30 -1 30 -20c0 -16 -14 -20 -29 -20h-605c-25 0 -30 12 -30 20z" />
    <glyph glyph-name="twosuperior" unicode="&#xb2;" horiz-adv-x="444" 
d="M50 347v46c0 20 8 23 24 33c160 102 228 136 228 211c0 56 -42 104 -111 104c-35 0 -60 -10 -81 -24c24 -4 45 -21 45 -52c0 -30 -24 -52 -52 -52c-29 0 -53 21 -53 53c0 64 69 106 160 106c106 0 184 -54 184 -135c0 -94 -112 -121 -181 -159l-95 -53h144
c87 0 86 1 95 35c5 20 9 41 12 62h25l-28 -175h-316z" />
    <glyph glyph-name="threesuperior" unicode="&#xb3;" horiz-adv-x="444" 
d="M41 432c0 36 26 57 56 57s56 -23 56 -56c0 -32 -22 -45 -39 -53c9 -3 38 -15 95 -15c71 0 89 45 89 89c0 76 -47 94 -89 94h-21c-11 0 -21 3 -21 12c0 17 42 10 63 19c31 13 51 53 51 99c0 55 -36 69 -67 69c-28 0 -79 -13 -109 -74c6 1 9 2 14 2c28 0 51 -21 51 -51
s-22 -51 -50 -51c-18 0 -51 11 -51 54c0 68 55 145 150 145c80 0 154 -39 154 -97c0 -45 -30 -85 -102 -112c73 -12 130 -56 130 -107c0 -62 -75 -120 -186 -120c-148 1 -174 58 -174 96z" />
    <glyph glyph-name="acute" unicode="&#xb4;" 
d="M214 510c125 121 131 132 150 132c21 0 35 -21 35 -37c0 -23 -23 -32 -35 -39c-108 -61 -121 -69 -135 -76z" />
    <glyph glyph-name="uni00B5" unicode="&#xb5;" horiz-adv-x="555" 
d="M31 -164h10c66 0 68 10 68 51v455c0 55 -17 56 -64 58h-14v30l148 11v-323c0 -54 1 -106 87 -106c48 0 121 36 121 162c0 8 -1 17 -1 25v151c-1 43 -18 50 -72 50h-5v30l147 11v-358c0 -45 17 -52 73 -52h5v-31l-145 -11v88c-33 -73 -86 -88 -129 -88c-41 0 -66 8 -81 13
v-121c0 -39 8 -45 72 -45h5v-31c-39 2 -77 3 -116 3h-4c-14 0 -47 0 -105 -3v31z" />
    <glyph glyph-name="paragraph" unicode="&#xb6;" horiz-adv-x="611" 
d="M55 463c0 93 71 231 263 231h230c14 0 33 -1 33 -20c0 -18 -17 -20 -31 -20h-51v-809h47c16 0 35 0 35 -20c0 -18 -18 -20 -29 -20h-255c-21 0 -29 10 -29 20c0 19 17 21 29 21c3 0 6 -1 8 -1h45v385c-160 8 -295 93 -295 233zM390 -155h69v809h-69v-809z" />
    <glyph glyph-name="periodcentered" unicode="&#xb7;" horiz-adv-x="278" 
d="M85 242c0 27 22 52 53 52c28 0 52 -21 52 -52s-26 -53 -52 -53c-31 0 -53 26 -53 53z" />
    <glyph glyph-name="cedilla" unicode="&#xb8;" horiz-adv-x="444" 
d="M103 -181h12c95 0 154 11 154 55c0 22 -17 52 -82 55v71h70v-54c13 -3 82 -14 82 -72c0 -74 -126 -78 -192 -78h-44v23z" />
    <glyph glyph-name="onesuperior" unicode="&#xb9;" horiz-adv-x="444" 
d="M69 666v31c134 2 162 74 184 74c15 0 14 -16 14 -31v-316c0 -39 12 -46 88 -46h19v-31h-51l39 1l-78 1h-124l-65 -2h-12v31h19c78 0 90 7 90 47v271c-33 -17 -66 -29 -123 -30z" />
    <glyph glyph-name="ordmasculine" unicode="&#xba;" horiz-adv-x="444" 
d="M27 561c0 116 90 205 194 205c103 0 194 -88 194 -205c0 -108 -84 -197 -194 -197s-194 90 -194 197zM46 323c0 9 9 12 18 12h310c10 0 23 -1 23 -11c0 -11 -17 -12 -23 -12h-308c-17 0 -20 7 -20 11zM111 564c0 -48 0 -105 36 -142c19 -20 46 -32 74 -32c8 0 47 0 78 35
c32 37 33 94 33 135v22c0 52 -3 97 -37 131c-19 19 -46 30 -74 30c-8 0 -48 0 -79 -36s-31 -86 -31 -131v-12z" />
    <glyph glyph-name="guillemotright" unicode="&#xbb;" horiz-adv-x="555" 
d="M57 11c0 12 36 119 146 231c-96 94 -146 212 -146 230c0 4 3 9 9 9c7 0 10 -4 17 -17c83 -161 192 -203 192 -222c0 -18 -103 -57 -192 -222c-7 -13 -10 -18 -17 -18c-6 0 -9 5 -9 9zM223 11c0 12 35 118 146 231c-96 94 -146 212 -146 230c0 4 4 9 10 9
c7 0 10 -4 17 -17c83 -161 191 -203 191 -222c0 -18 -102 -57 -191 -222c-7 -13 -10 -18 -17 -18c-6 0 -10 5 -10 9z" />
    <glyph glyph-name="onequarter" unicode="&#xbc;" horiz-adv-x="444" 
d="M8 278c0 18 18 20 32 20h361c14 0 33 0 33 -21c0 -3 -1 -19 -29 -19h-368c-24 0 -29 12 -29 20zM27 -79c0 16 1 17 20 40l212 259c18 22 24 30 39 30c17 0 18 -11 18 -25v-288h100v-31h-100v-26c1 -36 12 -44 82 -44h15v-31c-39 1 -78 3 -130 3c-47 0 -95 -1 -142 -3v31
h14c70 0 82 8 83 44v26h-211v15zM58 -63h185v226zM69 701v31c143 0 158 40 182 40c17 0 16 -15 16 -32v-325c0 -41 14 -46 95 -46h12v-31c-50 2 -100 3 -150 3c-28 0 -57 0 -142 -3v31h14c83 0 96 5 96 47v300c-40 -12 -81 -15 -123 -15z" />
    <glyph glyph-name="onehalf" unicode="&#xbd;" horiz-adv-x="444" 
d="M8 278c0 18 18 20 32 20h361c14 0 33 0 33 -21c0 -3 -1 -19 -29 -19h-368c-24 0 -29 12 -29 20zM49 -187c0 22 -8 9 173 170c40 35 80 82 80 136s-46 90 -115 90c-27 0 -47 -5 -66 -12c14 -6 33 -19 33 -49c0 -31 -23 -52 -52 -52c-31 0 -52 23 -52 53c0 44 42 91 157 91
c149 0 186 -70 186 -120c0 -86 -88 -121 -151 -166l-98 -71h98c110 0 105 1 114 35c5 20 9 41 12 62h25l-27 -175h-317v8zM69 701v31c143 0 158 40 182 40c17 0 16 -15 16 -32v-325c0 -41 14 -46 95 -46h12v-31c-50 2 -100 3 -150 3c-28 0 -57 0 -142 -3v31h14
c83 0 96 5 96 47v300c-40 -12 -81 -15 -123 -15z" />
    <glyph glyph-name="threequarters" unicode="&#xbe;" horiz-adv-x="444" 
d="M8 278c0 18 18 20 32 20h361c14 0 33 0 33 -21c0 -3 -1 -19 -29 -19h-368c-24 0 -29 12 -29 20zM27 -79c0 16 1 17 20 40l212 259c18 22 24 30 39 30c17 0 18 -11 18 -25v-288h100v-31h-100v-26c1 -36 12 -44 82 -44h15v-31c-39 1 -79 3 -131 3c-47 0 -94 -1 -141 -3v31
h14c70 0 82 8 83 44v26h-211v15zM41 414c0 35 26 56 56 56s56 -22 56 -55c0 -19 -9 -44 -41 -55c18 -7 49 -16 98 -16c25 0 88 4 88 96c0 79 -44 99 -88 99h-24c-14 0 -19 5 -19 11c0 17 37 11 58 18c33 11 56 51 56 106c0 58 -36 72 -68 72c-60 0 -92 -33 -99 -40h1
c45 0 56 -32 56 -50c0 -28 -22 -51 -51 -51c-28 0 -51 21 -51 52c0 62 62 115 150 115c80 0 155 -40 155 -100c0 -48 -33 -92 -104 -119c75 -13 131 -59 131 -113c0 -63 -73 -125 -187 -125c-73 0 -173 20 -173 99zM58 -63h185v226z" />
    <glyph glyph-name="questiondown" unicode="&#xbf;" horiz-adv-x="472" 
d="M55 -69c0 74 46 97 76 129c68 72 78 151 78 215v15c-1 16 6 23 13 23c10 0 13 -11 13 -27v-6c0 -74 -5 -162 -65 -252c-18 -25 -31 -42 -31 -104c0 -50 1 -107 85 -107c51 0 116 15 154 68h-5c-36 0 -49 25 -49 46c0 27 20 45 45 45c16 0 47 -10 47 -49
c0 -80 -90 -132 -191 -132c-144 0 -170 84 -170 136zM169 447c0 31 26 53 53 53c28 0 52 -22 52 -53s-26 -52 -52 -52c-31 0 -53 25 -53 52z" />
    <glyph glyph-name="Agrave" unicode="&#xc0;" horiz-adv-x="750" 
d="M234 825c0 16 13 37 34 37c14 0 22 -6 168 -97l-11 -24c-15 4 -30 9 -149 46c-20 6 -42 12 -42 38zM32 0v31c54 1 94 16 112 67l207 598c5 14 8 20 24 20s18 -7 23 -20l216 -625c11 -33 25 -40 85 -40h18v-31c-42 2 -88 3 -131 3c-38 0 -108 0 -144 -3v31
c27 0 83 0 83 30c0 4 -2 10 -3 14l-53 153h-247l-46 -131c-1 -2 -2 -12 -2 -15c0 -26 25 -51 75 -51v-31c-32 1 -84 3 -115 3c-36 0 -79 -2 -102 -3zM233 259h225l-113 325z" />
    <glyph glyph-name="Aacute" unicode="&#xc1;" horiz-adv-x="750" 
d="M286 765c153 95 154 97 168 97c20 0 34 -21 34 -37c0 -30 -37 -36 -42 -37c-119 -37 -135 -42 -150 -46zM32 0v31c54 1 94 16 112 67l207 598c5 14 8 20 24 20s18 -7 23 -20l216 -625c11 -33 25 -40 85 -40h18v-31c-42 2 -88 3 -131 3c-38 0 -108 0 -144 -3v31
c27 0 83 0 83 30c0 4 -2 10 -3 14l-53 153h-247l-46 -131c-1 -2 -2 -12 -2 -15c0 -26 25 -51 75 -51v-31c-32 1 -84 3 -115 3c-36 0 -79 -2 -102 -3zM233 259h225l-113 325z" />
    <glyph glyph-name="Acircumflex" unicode="&#xc2;" horiz-adv-x="750" 
d="M241 761l133 141h1l133 -141l-17 -17h-1l-115 105h-1l-115 -105h-1zM32 0v31c54 1 94 16 112 67l207 598c5 14 8 20 24 20s18 -7 23 -20l216 -625c11 -33 25 -40 85 -40h18v-31c-42 2 -88 3 -131 3c-38 0 -108 0 -144 -3v31c27 0 83 0 83 30c0 4 -2 10 -3 14l-53 153
h-247l-46 -131c-1 -2 -2 -12 -2 -15c0 -26 25 -51 75 -51v-31c-32 1 -84 3 -115 3c-36 0 -79 -2 -102 -3zM233 259h225l-113 325z" />
    <glyph glyph-name="Atilde" unicode="&#xc3;" horiz-adv-x="750" 
d="M180 823c31 35 54 68 110 68c55 0 124 -37 179 -37c37 0 57 13 83 38l17 -16c-31 -35 -54 -69 -110 -69c-55 0 -124 38 -179 38c-37 0 -57 -13 -83 -38zM32 0v31c54 1 94 16 112 67l207 598c5 14 8 20 24 20s18 -7 23 -20l216 -625c11 -33 25 -40 85 -40h18v-31
c-42 2 -88 3 -131 3c-38 0 -108 0 -144 -3v31c27 0 83 0 83 30c0 4 -2 10 -3 14l-53 153h-247l-46 -131c-1 -2 -2 -12 -2 -15c0 -26 25 -51 75 -51v-31c-32 1 -84 3 -115 3c-36 0 -79 -2 -102 -3zM233 259h225l-113 325z" />
    <glyph glyph-name="Adieresis" unicode="&#xc4;" horiz-adv-x="750" 
d="M225 813c0 27 21 53 52 53c26 0 53 -22 53 -53s-27 -52 -53 -52c-31 0 -52 26 -52 52zM419 813c0 31 25 53 52 53c32 0 53 -26 53 -52c0 -27 -22 -53 -52 -53c-26 0 -53 21 -53 52zM32 0v31c54 1 94 16 112 67l207 598c5 14 8 20 24 20s18 -7 23 -20l216 -625
c11 -33 25 -40 85 -40h18v-31c-42 2 -88 3 -131 3c-38 0 -108 0 -144 -3v31c27 0 83 0 83 30c0 4 -2 10 -3 14l-53 153h-247l-46 -131c-1 -2 -2 -12 -2 -15c0 -26 25 -51 75 -51v-31c-32 1 -84 3 -115 3c-36 0 -79 -2 -102 -3zM233 259h225l-113 325z" />
    <glyph glyph-name="Aring" unicode="&#xc5;" horiz-adv-x="750" 
d="M32 0v31c90 2 102 42 119 90l178 511c7 22 15 43 22 65c-59 23 -72 74 -72 107c0 52 34 109 95 109c59 0 96 -55 96 -109c0 -33 -13 -84 -72 -107l210 -607c19 -54 22 -59 105 -59h4v-31c-64 3 -102 3 -128 3c-49 0 -98 -1 -147 -3v31h2c32 0 79 1 79 32
c0 11 2 2 -54 165h-248c-17 -55 -47 -128 -47 -147c0 -18 15 -48 74 -50v-31c-39 2 -78 3 -117 3c-20 0 -49 0 -99 -3zM232 259h226l-113 325zM304 805c0 -75 43 -88 71 -88s70 14 70 86c0 75 -43 88 -71 88s-70 -14 -70 -86z" />
    <glyph glyph-name="AE" unicode="&#xc6;" horiz-adv-x="903" 
d="M32 0v31c90 2 104 42 121 90l191 530l-86 1v31h561l28 -225h-26c-18 139 -32 194 -186 194h-70c-4 0 -10 1 -17 1c-46 0 -49 -14 -49 -40v-269h75c50 0 101 1 110 64c3 17 3 35 3 52h25v-264h-25v11c0 96 -35 106 -113 106h-75v-245c1 -35 17 -37 52 -37h90
c169 0 183 79 208 227h25l-42 -258h-493v31h8c55 0 68 5 69 40v242h-161c-12 -35 -80 -217 -80 -232c0 -20 16 -47 73 -50v-31c-39 2 -77 3 -116 3c-10 0 -40 0 -100 -3zM266 344h150v255c0 28 0 44 -40 50z" />
    <glyph glyph-name="Ccedilla" unicode="&#xc7;" horiz-adv-x="722" 
d="M55 342c0 211 168 363 349 363c88 0 143 -42 184 -86c47 74 58 85 66 85c1 0 2 -1 3 -1c9 -3 9 -11 9 -21v-242c0 -15 -8 -20 -16 -20c-4 0 -8 2 -11 4c-8 7 -5 43 -27 98c-38 95 -111 152 -198 152c-100 0 -186 -66 -224 -152c-25 -57 -32 -121 -32 -181
c0 -280 174 -332 258 -332c119 0 214 95 224 216c1 12 -1 25 14 25c6 0 12 -6 12 -21c0 -66 -49 -219 -225 -249v-34c12 -2 83 -15 83 -72c0 -62 -78 -78 -223 -78h-14v23h12c84 0 154 7 154 54c0 22 -16 53 -82 56v51c-190 22 -316 183 -316 362z" />
    <glyph glyph-name="Egrave" unicode="&#xc8;" horiz-adv-x="680" 
d="M234 825c0 16 13 37 34 37c14 0 12 0 168 -97l-11 -23c-15 4 -30 9 -149 46c-20 6 -42 11 -42 37zM33 0v31h24c77 0 79 11 79 47v524c0 36 -2 47 -79 47h-24v31h563l28 -225h-25c-16 139 -43 194 -196 194h-129c-47 0 -49 -7 -49 -40v-240h90c97 0 108 31 108 117h25
v-265h-25c0 85 -11 117 -108 117h-90v-267c0 -33 2 -40 49 -40h133c172 0 195 73 220 227h25l-42 -258h-577z" />
    <glyph glyph-name="Eacute" unicode="&#xc9;" horiz-adv-x="680" 
d="M300 765c153 95 154 97 168 97c20 0 34 -21 34 -37c0 -30 -37 -36 -42 -37c-119 -37 -135 -42 -150 -46zM33 0v31h24c77 0 79 11 79 47v524c0 36 -2 47 -79 47h-24v31h563l28 -225h-25c-16 139 -43 194 -196 194h-129c-47 0 -49 -7 -49 -40v-240h90c97 0 108 31 108 117
h25v-265h-25c0 85 -11 117 -108 117h-90v-267c0 -33 2 -40 49 -40h133c172 0 195 73 220 227h25l-42 -258h-577z" />
    <glyph glyph-name="Ecircumflex" unicode="&#xca;" horiz-adv-x="680" 
d="M213 761l134 141h1l133 -141l-18 -17l-115 105h-1l-115 -105h-1zM33 0v31h24c77 0 79 11 79 47v524c0 36 -2 47 -79 47h-24v31h563l28 -225h-25c-16 139 -43 194 -196 194h-129c-47 0 -49 -7 -49 -40v-240h90c97 0 108 31 108 117h25v-265h-25c0 85 -11 117 -108 117h-90
v-267c0 -33 2 -40 49 -40h133c172 0 195 73 220 227h25l-42 -258h-577z" />
    <glyph glyph-name="Edieresis" unicode="&#xcb;" horiz-adv-x="680" 
d="M197 813c0 31 25 53 52 53c26 0 53 -22 53 -53s-27 -52 -53 -52c-31 0 -52 25 -52 52zM391 813c0 31 26 53 53 53c28 0 52 -22 52 -53s-26 -52 -52 -52c-31 0 -53 25 -53 52zM33 0v31h24c77 0 79 11 79 47v524c0 36 -2 47 -79 47h-24v31h563l28 -225h-25
c-16 139 -43 194 -196 194h-129c-47 0 -49 -7 -49 -40v-240h90c97 0 108 31 108 117h25v-265h-25c0 85 -11 117 -108 117h-90v-267c0 -33 2 -40 49 -40h133c172 0 195 73 220 227h25l-42 -258h-577z" />
    <glyph glyph-name="Igrave" unicode="&#xcc;" horiz-adv-x="361" 
d="M53 825c0 16 13 37 34 37h2c11 0 13 -2 165 -97l-10 -24c-15 4 -30 9 -148 46c-20 6 -43 12 -43 38zM28 0v31h26c79 0 82 11 82 47v527c0 36 -3 47 -82 47h-26v31c35 -3 114 -3 153 -3c38 0 117 0 152 3v-31h-26c-79 0 -82 -11 -82 -47v-527c0 -36 3 -47 82 -47h26v-31
c-35 3 -114 3 -153 3c-38 0 -117 0 -152 -3z" />
    <glyph glyph-name="Iacute" unicode="&#xcd;" horiz-adv-x="361" 
d="M81 765c145 90 152 97 167 97c21 0 34 -21 34 -37c0 -26 -23 -32 -42 -38c-118 -37 -133 -42 -148 -46zM28 0v31h26c79 0 82 11 82 47v527c0 36 -3 47 -82 47h-26v31c35 -3 114 -3 153 -3c38 0 117 0 152 3v-31h-26c-79 0 -82 -11 -82 -47v-527c0 -36 3 -47 82 -47h26
v-31c-35 3 -114 3 -153 3c-38 0 -117 0 -152 -3z" />
    <glyph glyph-name="Icircumflex" unicode="&#xce;" horiz-adv-x="361" 
d="M46 762l133 140h1l133 -141l-18 -17l-115 105h-1l-115 -105zM28 0v31h26c79 0 82 11 82 47v527c0 36 -3 47 -82 47h-26v31c35 -3 114 -3 153 -3c38 0 117 0 152 3v-31h-26c-79 0 -82 -11 -82 -47v-527c0 -36 3 -47 82 -47h26v-31c-35 3 -114 3 -153 3
c-38 0 -117 0 -152 -3z" />
    <glyph glyph-name="Idieresis" unicode="&#xcf;" horiz-adv-x="361" 
d="M224 813c0 31 25 53 52 53c26 0 53 -22 53 -53s-26 -52 -52 -52c-31 0 -53 24 -53 52zM30 813c0 31 26 53 53 53c28 0 52 -22 52 -53s-26 -52 -52 -52c-31 0 -53 25 -53 52zM28 0v31h26c79 0 82 11 82 47v527c0 36 -3 47 -82 47h-26v31c35 -3 114 -3 153 -3
c38 0 117 0 152 3v-31h-26c-79 0 -82 -11 -82 -47v-527c0 -36 3 -47 82 -47h26v-31c-35 3 -114 3 -153 3c-38 0 -117 0 -152 -3z" />
    <glyph glyph-name="Eth" unicode="&#xd0;" horiz-adv-x="764" 
d="M34 0v31h11c77 0 92 5 92 45v244c-18 0 -35 -1 -53 -1c-42 0 -45 1 -49 12v5c0 9 8 14 24 14c9 0 17 1 26 1c17 0 35 -1 52 -1v257c0 40 -15 45 -92 45h-11v31h347c58 0 108 -5 167 -42c101 -62 159 -183 159 -305c0 -172 -116 -315 -272 -334c-16 -2 -33 -2 -49 -2h-352
zM224 67c1 -35 9 -36 70 -36h73c115 0 169 61 191 94c43 62 49 140 49 213c0 76 -7 158 -52 222c-21 30 -75 92 -188 92h-17c-19 0 -37 1 -56 1h-10c-44 0 -59 -2 -60 -37v-266h166c12 -1 22 -3 22 -15s-11 -14 -23 -15h-165v-253z" />
    <glyph glyph-name="Ntilde" unicode="&#xd1;" horiz-adv-x="750" 
d="M180 823c31 35 54 68 110 68c55 0 124 -37 179 -37c37 0 57 13 83 38l17 -16c-31 -35 -54 -69 -110 -69c-55 0 -124 38 -179 38c-37 0 -57 -13 -83 -38zM33 0v31c103 0 103 47 103 74v522c0 19 -1 20 -24 23c-15 1 -35 2 -50 2h-29v31h170c19 0 20 -1 29 -13l353 -519
v427c0 27 0 74 -103 74v31c35 -1 84 -3 117 -3s82 2 117 3v-31c-103 0 -103 -47 -103 -74v-552c0 -19 0 -26 -14 -26c-7 0 -8 1 -17 13l-408 600c-4 6 -5 7 -10 12v-520c0 -27 0 -74 103 -74v-31c-35 1 -84 3 -117 3s-82 -2 -117 -3z" />
    <glyph glyph-name="Ograve" unicode="&#xd2;" horiz-adv-x="777" 
d="M275 825c0 16 13 37 34 37c14 0 12 0 168 -97l-11 -23c-15 4 -30 9 -149 46c-20 6 -42 11 -42 37zM56 339c0 206 153 366 332 366c182 0 333 -162 333 -366c0 -202 -151 -361 -333 -361c-178 0 -332 156 -332 361zM159 353c0 -261 134 -349 230 -349c92 0 229 84 229 349
c0 256 -143 327 -230 327c-83 0 -229 -68 -229 -327z" />
    <glyph glyph-name="Oacute" unicode="&#xd3;" horiz-adv-x="777" 
d="M300 765c153 95 154 97 168 97c20 0 34 -21 34 -37c0 -30 -37 -36 -42 -37c-119 -37 -135 -42 -150 -46zM56 339c0 206 153 366 332 366c182 0 333 -162 333 -366c0 -202 -151 -361 -333 -361c-178 0 -332 156 -332 361zM159 353c0 -261 134 -349 230 -349
c92 0 229 84 229 349c0 256 -143 327 -230 327c-83 0 -229 -68 -229 -327z" />
    <glyph glyph-name="Ocircumflex" unicode="&#xd4;" horiz-adv-x="777" 
d="M255 761v1l133 140h1l133 -140v-1l-17 -17h-1l-115 105h-1l-115 -105h-1zM56 339c0 206 153 366 332 366c182 0 333 -162 333 -366c0 -202 -151 -361 -333 -361c-178 0 -332 156 -332 361zM159 353c0 -261 134 -349 230 -349c92 0 229 84 229 349
c0 256 -143 327 -230 327c-83 0 -229 -68 -229 -327z" />
    <glyph glyph-name="Otilde" unicode="&#xd5;" horiz-adv-x="777" 
d="M194 822c31 35 54 69 110 69c61 0 118 -38 179 -38c37 0 56 13 82 38l17 -15c-31 -35 -54 -69 -110 -69c-61 0 -117 38 -178 38c-37 0 -57 -13 -83 -38zM56 339c0 206 153 366 332 366c182 0 333 -162 333 -366c0 -202 -151 -361 -333 -361c-178 0 -332 156 -332 361z
M159 353c0 -261 134 -349 230 -349c92 0 229 84 229 349c0 256 -143 327 -230 327c-83 0 -229 -68 -229 -327z" />
    <glyph glyph-name="Odieresis" unicode="&#xd6;" horiz-adv-x="777" 
d="M433 813c0 31 25 53 52 53c26 0 53 -22 53 -53s-26 -52 -52 -52c-31 0 -53 24 -53 52zM239 813c0 31 26 53 53 53c28 0 52 -22 52 -53s-26 -52 -52 -52c-31 0 -53 25 -53 52zM56 339c0 206 153 366 332 366c182 0 333 -162 333 -366c0 -202 -151 -361 -333 -361
c-178 0 -332 156 -332 361zM159 353c0 -261 134 -349 230 -349c92 0 229 84 229 349c0 256 -143 327 -230 327c-83 0 -229 -68 -229 -327z" />
    <glyph glyph-name="multiply" unicode="&#xd7;" horiz-adv-x="778" 
d="M148 471c0 12 12 19 17 19h3c12 0 26 -17 29 -20l192 -192l192 192c8 8 17 20 29 20c13 0 18 -12 18 -18c1 -13 5 -8 -211 -222l189 -189c14 -14 22 -20 22 -34c0 -7 -7 -17 -18 -17c-6 0 -10 0 -30 20l-192 192l-187 -188c-10 -9 -22 -24 -34 -24c-10 0 -18 9 -18 19
c0 14 -2 10 211 221l-188 189c-9 9 -24 20 -24 32z" />
    <glyph glyph-name="Oslash" unicode="&#xd8;" horiz-adv-x="778" 
d="M55 339c0 208 155 366 333 366c76 0 139 -27 189 -64l66 98l21 -14l-67 -99v-1c79 -71 124 -174 124 -286c0 -209 -157 -361 -333 -361c-80 0 -140 28 -189 63l-66 -97l-21 14l68 100c-23 20 -125 112 -125 281zM145 338c0 -145 34 -203 60 -242l348 511
c-36 37 -88 76 -165 76c-102 0 -168 -69 -199 -125c-37 -67 -44 -147 -44 -220zM223 75c37 -37 86 -74 165 -74c100 0 169 64 203 129s41 141 41 210c0 148 -36 206 -62 246l-347 -510v-1z" />
    <glyph glyph-name="Ugrave" unicode="&#xd9;" horiz-adv-x="750" 
d="M261 825c0 16 13 37 34 37c14 0 12 0 168 -97l-11 -23c-15 4 -30 9 -149 46c-20 6 -42 11 -42 37zM33 652v31c35 -3 110 -3 148 -3s112 0 147 3v-31h-24c-77 0 -79 -11 -79 -47v-381c0 -190 118 -215 165 -215c95 0 192 80 192 222v347c0 27 0 74 -103 74v31
c36 -1 84 -3 119 -3c34 0 82 2 118 3v-31c-103 0 -103 -45 -103 -78v-320c0 -40 0 -49 -3 -69c-17 -114 -107 -207 -222 -207c-136 0 -252 109 -252 250v377c0 36 -2 47 -79 47h-24z" />
    <glyph glyph-name="Uacute" unicode="&#xda;" horiz-adv-x="750" 
d="M328 765c153 95 154 97 168 97c20 0 34 -21 34 -37c0 -30 -37 -36 -42 -37c-119 -37 -135 -42 -150 -46zM33 652v31c35 -3 110 -3 148 -3s112 0 147 3v-31h-24c-77 0 -79 -11 -79 -47v-381c0 -190 118 -215 165 -215c95 0 192 80 192 222v347c0 27 0 74 -103 74v31
c36 -1 84 -3 119 -3c34 0 82 2 118 3v-31c-103 0 -103 -45 -103 -78v-320c0 -40 0 -49 -3 -69c-17 -114 -107 -207 -222 -207c-136 0 -252 109 -252 250v377c0 36 -2 47 -79 47h-24z" />
    <glyph glyph-name="Ucircumflex" unicode="&#xdb;" horiz-adv-x="750" 
d="M256 761l133 141h1l133 -141l-17 -17h-1l-115 105h-1l-115 -105h-1zM33 652v31c35 -3 110 -3 148 -3s112 0 147 3v-31h-24c-77 0 -79 -11 -79 -47v-381c0 -190 118 -215 165 -215c95 0 192 80 192 222v347c0 27 0 74 -103 74v31c36 -1 84 -3 119 -3c34 0 82 2 118 3v-31
c-103 0 -103 -45 -103 -78v-320c0 -40 0 -49 -3 -69c-17 -114 -107 -207 -222 -207c-136 0 -252 109 -252 250v377c0 36 -2 47 -79 47h-24z" />
    <glyph glyph-name="Udieresis" unicode="&#xdc;" horiz-adv-x="750" 
d="M225 813c0 27 21 53 52 53c26 0 53 -22 53 -53s-27 -52 -53 -52c-31 0 -52 26 -52 52zM419 813c0 31 26 53 53 53c32 0 52 -26 52 -52c0 -27 -22 -53 -52 -53c-26 0 -53 21 -53 52zM33 652v31c35 -3 110 -3 148 -3s112 0 147 3v-31h-24c-77 0 -79 -11 -79 -47v-381
c0 -190 118 -215 165 -215c95 0 192 80 192 222v347c0 27 0 74 -103 74v31c36 -1 84 -3 119 -3c34 0 82 2 118 3v-31c-103 0 -103 -45 -103 -78v-320c0 -40 0 -49 -3 -69c-17 -114 -107 -207 -222 -207c-136 0 -252 109 -252 250v377c0 36 -2 47 -79 47h-24z" />
    <glyph glyph-name="Yacute" unicode="&#xdd;" horiz-adv-x="750" 
d="M327 765c153 95 154 97 168 97c20 0 34 -21 34 -37c0 -30 -37 -36 -42 -37c-119 -37 -135 -42 -150 -46zM11 652v31c42 -2 88 -3 130 -3c39 0 112 0 148 3v-31c-45 0 -70 -4 -70 -25c0 -5 0 -7 7 -17l181 -295l165 268c4 6 10 19 10 30c0 20 -16 39 -57 39v31
c26 -1 84 -3 115 -3c27 0 67 1 98 3v-31c-32 0 -91 -4 -128 -65l-193 -314v-193c0 -39 3 -49 80 -49h23v-31c-36 3 -107 3 -146 3s-110 0 -146 -3v31h24c77 0 79 11 79 47v195l-210 342c-16 26 -24 37 -92 37h-18z" />
    <glyph glyph-name="Thorn" unicode="&#xde;" horiz-adv-x="625" 
d="M35 0v31h16c73 0 86 7 87 42v537c-1 39 -19 42 -88 42h-15v31c47 -2 92 -3 140 -3l150 3v-31h-11c-83 0 -92 -6 -92 -47v-53h129c155 0 217 -111 217 -187c0 -75 -59 -187 -218 -187h-128v-100c0 -42 13 -47 93 -47h10v-31c-50 2 -100 3 -150 3h-7c-18 0 -59 0 -133 -3z
M222 209h78c7 0 15 -1 23 -1c103 0 145 88 145 158c0 77 -47 155 -126 155h-120v-312z" />
    <glyph glyph-name="germandbls" unicode="&#xdf;" 
d="M27 0v31h8c65 0 70 8 70 46v323h-78v30h78v124c0 121 79 151 150 151c63 0 133 -30 133 -149c0 -130 -45 -128 -60 -130c-10 -1 -51 -9 -51 -75c0 -84 69 -77 100 -88c37 -13 89 -56 89 -136c0 -83 -49 -138 -129 -138c-29 0 -46 7 -67 27c-9 -10 -20 -25 -31 -25
c-10 0 -12 11 -12 21v125c0 11 0 22 8 26c7 4 14 -1 17 -7c10 -20 1 -144 84 -144c53 0 81 37 81 89c0 42 -23 72 -49 85c-24 12 -57 8 -86 27c-18 12 -55 44 -55 111c0 35 11 113 98 122c13 2 38 0 38 108c0 111 -62 128 -104 128c-79 0 -87 -67 -87 -121v-561l-23 2h-50z
" />
    <glyph glyph-name="agrave" unicode="&#xe0;" 
d="M155 605c0 16 14 37 35 37c19 0 22 -7 150 -132l-15 -20c-14 7 -27 14 -134 75c-9 5 -36 16 -36 40zM42 95c0 44 25 96 100 130c63 30 133 33 184 36v37c0 89 -57 128 -106 128c-32 0 -81 -11 -108 -46c46 -1 51 -34 51 -46c0 -26 -18 -46 -46 -46c-26 0 -46 17 -46 47
c0 66 69 113 151 113c48 0 98 -16 137 -55c36 -37 36 -76 36 -118v-200c0 -5 4 -50 37 -50c11 0 36 6 36 64v56h25v-56c0 -81 -61 -95 -82 -95c-47 0 -74 42 -78 82c-19 -47 -65 -87 -131 -87c-63 0 -160 25 -160 106zM119 96c0 -50 41 -85 90 -85c45 0 117 34 117 129v100
c-165 -6 -207 -89 -207 -144z" />
    <glyph glyph-name="aacute" unicode="&#xe1;" 
d="M158 510c125 121 131 132 150 132c21 0 35 -21 35 -37c0 -23 -23 -32 -35 -39c-108 -61 -121 -69 -135 -76zM42 95c0 44 25 96 100 130c63 30 133 33 184 36v37c0 89 -57 128 -106 128c-32 0 -81 -11 -108 -46c46 -1 51 -34 51 -46c0 -26 -18 -46 -46 -46
c-26 0 -46 17 -46 47c0 66 69 113 151 113c48 0 98 -16 137 -55c36 -37 36 -76 36 -118v-200c0 -5 4 -50 37 -50c11 0 36 6 36 64v56h25v-56c0 -81 -61 -95 -82 -95c-47 0 -74 42 -78 82c-19 -47 -65 -87 -131 -87c-63 0 -160 25 -160 106zM119 96c0 -50 41 -85 90 -85
c45 0 117 34 117 129v100c-165 -6 -207 -89 -207 -144z" />
    <glyph glyph-name="acircumflex" unicode="&#xe2;" 
d="M87 500l134 149h1l133 -149l-18 -18l-115 114h-1l-116 -114zM42 95c0 44 25 96 100 130c63 30 133 33 184 36v37c0 89 -57 128 -106 128c-32 0 -81 -11 -108 -46c46 -1 51 -34 51 -46c0 -26 -18 -46 -46 -46c-26 0 -46 17 -46 47c0 66 69 113 151 113
c48 0 98 -16 137 -55c36 -37 36 -76 36 -118v-200c0 -5 4 -50 37 -50c11 0 36 6 36 64v56h25v-56c0 -81 -61 -95 -82 -95c-47 0 -74 42 -78 82c-19 -47 -65 -87 -131 -87c-63 0 -160 25 -160 106zM119 96c0 -50 41 -85 90 -85c45 0 117 34 117 129v100
c-165 -6 -207 -89 -207 -144z" />
    <glyph glyph-name="atilde" unicode="&#xe3;" 
d="M55 533c34 40 65 79 108 79c47 0 81 -47 128 -47c32 0 54 23 80 48l17 -15c-34 -39 -65 -79 -108 -79c-47 0 -81 47 -128 47c-39 0 -70 -37 -80 -47zM42 95c0 44 25 96 100 130c63 30 133 33 184 36v37c0 89 -57 128 -106 128c-32 0 -81 -11 -108 -46
c46 -1 51 -34 51 -46c0 -26 -18 -46 -46 -46c-26 0 -46 17 -46 47c0 66 69 113 151 113c48 0 98 -16 137 -55c36 -37 36 -76 36 -118v-200c0 -5 4 -50 37 -50c11 0 36 6 36 64v56h25v-56c0 -81 -61 -95 -82 -95c-47 0 -74 42 -78 82c-19 -47 -65 -87 -131 -87
c-63 0 -160 25 -160 106zM119 96c0 -50 41 -85 90 -85c45 0 117 34 117 129v100c-165 -6 -207 -89 -207 -144z" />
    <glyph glyph-name="adieresis" unicode="&#xe4;" 
d="M100 606c0 31 25 53 52 53c26 0 53 -22 53 -53s-27 -52 -53 -52c-31 0 -52 25 -52 52zM294 606c0 31 26 53 53 53c28 0 52 -22 52 -53s-26 -52 -52 -52c-31 0 -53 25 -53 52zM42 95c0 44 25 96 100 130c63 30 133 33 184 36v37c0 89 -57 128 -106 128
c-32 0 -81 -11 -108 -46c46 -1 51 -34 51 -46c0 -26 -18 -46 -46 -46c-26 0 -46 17 -46 47c0 66 69 113 151 113c48 0 98 -16 137 -55c36 -37 36 -76 36 -118v-200c0 -5 4 -50 37 -50c11 0 36 6 36 64v56h25v-56c0 -81 -61 -95 -82 -95c-47 0 -74 42 -78 82
c-19 -47 -65 -87 -131 -87c-63 0 -160 25 -160 106zM119 96c0 -50 41 -85 90 -85c45 0 117 34 117 129v100c-165 -6 -207 -89 -207 -144z" />
    <glyph glyph-name="aring" unicode="&#xe5;" 
d="M126 580c0 40 38 81 95 81c46 0 96 -30 96 -81c0 -40 -38 -80 -95 -80c-46 0 -96 30 -96 80zM151 580c0 -22 8 -58 69 -58c52 0 72 23 72 58c0 21 -8 58 -69 58c-52 0 -72 -23 -72 -58zM42 95c0 44 25 96 100 130c63 30 133 33 184 36v37c0 89 -57 128 -106 128
c-32 0 -81 -11 -108 -46c46 -1 51 -34 51 -46c0 -26 -18 -46 -46 -46c-26 0 -46 17 -46 47c0 66 69 113 151 113c48 0 98 -16 137 -55c36 -37 36 -76 36 -118v-200c0 -5 4 -50 37 -50c11 0 36 6 36 64v56h25v-56c0 -81 -61 -95 -82 -95c-47 0 -74 42 -78 82
c-19 -47 -65 -87 -131 -87c-63 0 -160 25 -160 106zM119 96c0 -50 41 -85 90 -85c45 0 117 34 117 129v100c-165 -6 -207 -89 -207 -144z" />
    <glyph glyph-name="ae" unicode="&#xe6;" horiz-adv-x="722" 
d="M44 92c0 95 114 156 282 158v39c0 118 -75 135 -107 135c-67 0 -99 -36 -107 -44h1c40 0 49 -30 49 -46c0 -27 -21 -46 -45 -46c-30 0 -46 22 -46 50c0 59 66 109 151 109c65 0 120 -28 154 -77h1c38 48 90 77 150 77c107 0 167 -86 167 -194c0 -22 -9 -23 -22 -23h-276
v-7c0 -162 88 -208 147 -208c63 0 105 49 120 91c2 5 6 19 13 22c11 4 19 -4 16 -18c-10 -44 -60 -121 -154 -121c-31 0 -102 7 -167 88c-46 -83 -140 -88 -169 -88c-66 0 -158 24 -158 103zM122 93c0 -49 41 -81 88 -81c69 0 127 55 127 119c0 27 -11 33 -11 98
c-163 -9 -204 -82 -204 -136zM397 252h230c-5 147 -61 172 -102 172c-26 0 -114 -15 -128 -172z" />
    <glyph glyph-name="ccedilla" unicode="&#xe7;" horiz-adv-x="444" 
d="M33 216c0 130 98 231 218 231c83 0 154 -42 154 -105c0 -26 -18 -48 -46 -48c-25 0 -46 19 -46 46c0 37 33 44 47 46c-10 7 -43 35 -107 35c-55 0 -136 -40 -136 -205c0 -154 85 -201 142 -201c30 0 88 10 120 76c6 12 10 30 17 35s19 2 19 -9c0 -6 -21 -102 -130 -125
v-46c13 -2 83 -15 83 -72c0 -62 -77 -78 -224 -78h-13v23h32c47 0 134 3 134 55c0 22 -17 52 -82 55v63c-107 18 -182 114 -182 224z" />
    <glyph glyph-name="egrave" unicode="&#xe8;" horiz-adv-x="444" 
d="M155 605c0 16 14 37 35 37c19 0 22 -7 150 -132l-15 -20c-14 7 -27 14 -134 75c-9 5 -36 16 -36 40zM28 220c0 125 92 228 208 228c125 0 179 -97 179 -196c0 -21 -3 -21 -25 -21h-279c0 -36 0 -102 30 -150c23 -37 63 -67 113 -67c10 0 100 0 135 103c2 8 4 14 13 14
c5 0 13 -2 13 -12c0 -19 -45 -130 -167 -130c-115 0 -220 97 -220 231zM112 252h237c0 39 -10 174 -113 174c-34 0 -118 -25 -124 -174z" />
    <glyph glyph-name="eacute" unicode="&#xe9;" horiz-adv-x="444" 
d="M130 510c125 121 131 132 150 132c21 0 35 -21 35 -37c0 -23 -23 -32 -35 -39c-108 -61 -121 -69 -135 -76zM28 220c0 125 92 228 208 228c125 0 179 -97 179 -196c0 -21 -3 -21 -25 -21h-279c0 -36 0 -102 30 -150c23 -37 63 -67 113 -67c10 0 100 0 135 103
c2 8 4 14 13 14c5 0 13 -2 13 -12c0 -19 -45 -130 -167 -130c-115 0 -220 97 -220 231zM112 252h237c0 39 -10 174 -113 174c-34 0 -118 -25 -124 -174z" />
    <glyph glyph-name="ecircumflex" unicode="&#xea;" horiz-adv-x="444" 
d="M87 500l134 149h1l133 -149l-18 -18l-115 114h-1l-116 -114zM28 220c0 125 92 228 208 228c125 0 179 -97 179 -196c0 -21 -3 -21 -25 -21h-279c0 -36 0 -102 30 -150c23 -37 63 -67 113 -67c10 0 100 0 135 103c2 8 4 14 13 14c5 0 13 -2 13 -12
c0 -19 -45 -130 -167 -130c-115 0 -220 97 -220 231zM112 252h237c0 39 -10 174 -113 174c-34 0 -118 -25 -124 -174z" />
    <glyph glyph-name="edieresis" unicode="&#xeb;" horiz-adv-x="444" 
d="M72 606c0 31 25 53 52 53c26 0 53 -22 53 -53s-27 -52 -53 -52c-31 0 -52 25 -52 52zM266 606c0 31 26 53 53 53c28 0 52 -22 52 -53s-26 -52 -52 -52c-31 0 -53 25 -53 52zM28 220c0 125 92 228 208 228c125 0 179 -97 179 -196c0 -21 -3 -21 -25 -21h-279
c0 -36 0 -102 30 -150c23 -37 63 -67 113 -67c10 0 100 0 135 103c2 8 4 14 13 14c5 0 13 -2 13 -12c0 -19 -45 -130 -167 -130c-115 0 -220 97 -220 231zM112 252h237c0 39 -10 174 -113 174c-34 0 -118 -25 -124 -174z" />
    <glyph glyph-name="eth" unicode="&#xf0;" 
d="M27 213c0 136 109 234 220 234c75 0 116 -65 124 -77c-28 92 -72 148 -134 209l-107 -62l-14 -5c-7 0 -11 3 -13 8l1 5l1 4c34 26 75 44 112 67c-97 69 -128 66 -147 76c-5 2 -8 6 -8 10c0 5 5 11 17 11c19 0 91 -12 171 -59c7 -4 10 -7 15 -7c19 0 108 65 124 65
c4 0 11 -4 11 -10c0 -4 -4 -10 -14 -16l-99 -57c172 -133 184 -296 184 -356v-30c0 -159 -120 -234 -222 -234c-118 0 -222 95 -222 224zM111 222c0 -46 4 -87 19 -122c17 -39 58 -85 119 -85c55 0 138 41 138 199c0 119 -61 210 -139 210c-22 0 -72 -8 -108 -65
c-28 -45 -29 -103 -29 -137z" />
    <glyph glyph-name="ntilde" unicode="&#xf1;" horiz-adv-x="555" 
d="M117 533c34 40 65 79 108 79c47 0 81 -47 128 -47c32 0 54 23 80 48l17 -15c-34 -39 -65 -79 -108 -79c-47 0 -81 47 -128 47c-39 0 -70 -37 -80 -47zM32 0v31c67 0 78 0 78 45v268c0 49 -8 56 -78 56v31l141 11v-105c28 62 75 105 148 105c58 0 91 -20 105 -37
c31 -36 31 -67 31 -153v-191c1 -30 26 -30 78 -30v-31c-34 1 -86 3 -112 3c-27 0 -78 -2 -113 -3v31c67 0 78 0 78 45v233c0 57 -11 111 -74 111c-64 0 -135 -56 -135 -160v-184c0 -45 11 -45 78 -45v-31c-34 1 -86 3 -112 3c-27 0 -78 -2 -113 -3z" />
    <glyph glyph-name="ograve" unicode="&#xf2;" 
d="M155 605c0 16 14 37 35 37c19 0 22 -7 150 -132l-15 -20c-14 7 -27 14 -134 75c-9 5 -36 16 -36 40zM28 214c0 125 97 234 222 234c121 0 221 -106 221 -234c0 -127 -101 -225 -222 -225c-117 0 -221 96 -221 225zM111 222c0 -36 0 -97 25 -141c27 -46 71 -67 114 -67
c50 0 94 29 116 74c22 44 22 98 22 134c0 38 0 96 -26 139s-69 65 -113 65c-40 0 -87 -21 -114 -67c-24 -44 -24 -98 -24 -137z" />
    <glyph glyph-name="oacute" unicode="&#xf3;" 
d="M158 510c125 121 131 132 150 132c21 0 35 -21 35 -37c0 -23 -23 -32 -35 -39c-108 -61 -121 -69 -135 -76zM28 214c0 125 97 234 222 234c121 0 221 -106 221 -234c0 -127 -101 -225 -222 -225c-117 0 -221 96 -221 225zM111 222c0 -36 0 -97 25 -141
c27 -46 71 -67 114 -67c50 0 94 29 116 74c22 44 22 98 22 134c0 38 0 96 -26 139s-69 65 -113 65c-40 0 -87 -21 -114 -67c-24 -44 -24 -98 -24 -137z" />
    <glyph glyph-name="ocircumflex" unicode="&#xf4;" 
d="M115 500l134 149h1l133 -149l-18 -18l-115 114h-1l-116 -114zM28 214c0 125 97 234 222 234c121 0 221 -106 221 -234c0 -127 -101 -225 -222 -225c-117 0 -221 96 -221 225zM111 222c0 -36 0 -97 25 -141c27 -46 71 -67 114 -67c50 0 94 29 116 74c22 44 22 98 22 134
c0 38 0 96 -26 139s-69 65 -113 65c-40 0 -87 -21 -114 -67c-24 -44 -24 -98 -24 -137z" />
    <glyph glyph-name="otilde" unicode="&#xf5;" 
d="M83 533c34 40 65 79 108 79c47 0 81 -47 128 -47c32 0 54 23 80 48l17 -15c-34 -39 -65 -79 -108 -79c-47 0 -81 47 -128 47c-39 0 -70 -37 -80 -47zM28 214c0 125 97 234 222 234c121 0 221 -106 221 -234c0 -127 -101 -225 -222 -225c-117 0 -221 96 -221 225zM111 222
c0 -36 0 -97 25 -141c27 -46 71 -67 114 -67c50 0 94 29 116 74c22 44 22 98 22 134c0 38 0 96 -26 139s-69 65 -113 65c-40 0 -87 -21 -114 -67c-24 -44 -24 -98 -24 -137z" />
    <glyph glyph-name="odieresis" unicode="&#xf6;" 
d="M99 606c0 31 25 53 52 53c26 0 53 -22 53 -53s-27 -52 -53 -52c-31 0 -52 25 -52 52zM293 606c0 31 26 53 53 53c28 0 52 -22 52 -53s-26 -52 -52 -52c-31 0 -53 25 -53 52zM28 214c0 125 97 234 222 234c121 0 221 -106 221 -234c0 -127 -101 -225 -222 -225
c-117 0 -221 96 -221 225zM111 222c0 -36 0 -97 25 -141c27 -46 71 -67 114 -67c50 0 94 29 116 74c22 44 22 98 22 134c0 38 0 96 -26 139s-69 65 -113 65c-40 0 -87 -21 -114 -67c-24 -44 -24 -98 -24 -137z" />
    <glyph glyph-name="divide" unicode="&#xf7;" horiz-adv-x="778" 
d="M56 250c0 17 14 20 32 20h601c14 0 31 -2 31 -20c0 -17 -16 -20 -28 -20h-607c-24 0 -29 12 -29 20zM325 35c0 37 31 62 63 62c33 0 63 -25 63 -62s-30 -63 -63 -63c-38 0 -63 31 -63 63zM325 465c0 37 31 63 63 63c33 0 63 -26 63 -63s-30 -62 -63 -62
c-38 0 -63 30 -63 62z" />
    <glyph glyph-name="oslash" unicode="&#xf8;" 
d="M34 213c0 123 92 234 215 234c43 0 75 -13 104 -29l66 115l20 -11l-67 -117c21 -16 92 -77 92 -192c0 -130 -102 -224 -215 -224c-20 0 -57 3 -102 27l-68 -119l-20 11l69 120c-60 42 -94 111 -94 185zM104 213c0 -100 24 -131 42 -154l191 332c-24 19 -49 33 -87 33
c-53 0 -98 -31 -122 -76c-24 -47 -24 -108 -24 -135zM163 42c24 -17 49 -30 86 -30c49 0 100 26 126 81c10 21 20 54 20 120c0 79 -12 121 -41 160h-1z" />
    <glyph glyph-name="ugrave" unicode="&#xf9;" horiz-adv-x="555" 
d="M174 605c0 16 14 37 35 37c19 0 22 -7 150 -132l-15 -20c-14 7 -27 14 -134 75c-9 5 -36 16 -36 40zM32 400v31l147 11v-332c0 -52 4 -99 88 -99c73 0 121 68 121 155v178c0 49 -8 56 -78 56v31l147 11v-355c0 -49 8 -56 78 -56v-31l-144 -11v90
c-29 -62 -73 -90 -129 -90c-152 0 -152 91 -152 169v150c0 89 0 92 -78 92z" />
    <glyph glyph-name="uacute" unicode="&#xfa;" horiz-adv-x="555" 
d="M191 510c125 121 131 132 150 132c21 0 35 -21 35 -37c0 -23 -23 -32 -35 -39c-108 -61 -121 -69 -135 -76zM32 400v31l147 11v-332c0 -52 4 -99 88 -99c73 0 121 68 121 155v178c0 49 -8 56 -78 56v31l147 11v-355c0 -49 8 -56 78 -56v-31l-144 -11v90
c-29 -62 -73 -90 -129 -90c-152 0 -152 91 -152 169v150c0 89 0 92 -78 92z" />
    <glyph glyph-name="ucircumflex" unicode="&#xfb;" horiz-adv-x="555" 
d="M148 500l134 149h1l133 -149l-18 -18l-115 114h-1l-116 -114zM32 400v31l147 11v-332c0 -52 4 -99 88 -99c73 0 121 68 121 155v178c0 49 -8 56 -78 56v31l147 11v-355c0 -49 8 -56 78 -56v-31l-144 -11v90c-29 -62 -73 -90 -129 -90c-152 0 -152 91 -152 169v150
c0 89 0 92 -78 92z" />
    <glyph glyph-name="udieresis" unicode="&#xfc;" horiz-adv-x="555" 
d="M133 606c0 31 25 53 52 53c26 0 53 -22 53 -53s-27 -52 -53 -52c-31 0 -52 25 -52 52zM327 606c0 31 26 53 53 53c28 0 52 -22 52 -53s-26 -52 -52 -52s-53 21 -53 52zM32 400v31l147 11v-332c0 -52 4 -99 88 -99c73 0 121 68 121 155v178c0 49 -8 56 -78 56v31l147 11
v-355c0 -49 8 -56 78 -56v-31l-144 -11v90c-29 -62 -73 -90 -129 -90c-152 0 -152 91 -152 169v150c0 89 0 92 -78 92z" />
    <glyph glyph-name="yacute" unicode="&#xfd;" horiz-adv-x="527" 
d="M228 510c125 121 131 132 150 132c21 0 35 -21 35 -37c0 -23 -23 -32 -35 -39c-108 -61 -121 -69 -135 -76zM19 -124c0 30 22 43 42 43c23 0 42 -16 42 -42c0 -16 -8 -38 -39 -42c19 -18 42 -18 47 -18c64 0 92 69 114 124c6 13 20 46 25 59l-150 365
c-14 35 -33 35 -81 35v31c30 -2 70 -3 97 -3c17 0 83 2 109 3v-31c-19 0 -56 0 -56 -26c0 -4 2 -8 6 -18l111 -269l101 246c5 12 6 14 6 24c0 25 -16 42 -47 43v31c22 -1 69 -3 87 -3c23 0 52 1 75 3v-31c-16 0 -67 -1 -93 -64l-176 -427c-24 -57 -65 -114 -128 -114
c-50 0 -92 36 -92 81z" />
    <glyph glyph-name="thorn" unicode="&#xfe;" horiz-adv-x="555" 
d="M27 -164h5c62 0 73 6 73 45v729c0 52 -24 53 -78 53v31l145 11v-329c53 64 122 65 139 65c112 0 210 -97 210 -225c0 -135 -112 -227 -222 -227c-75 0 -111 46 -124 61v-168c0 -41 11 -46 71 -46h6v-31c-39 2 -77 3 -116 3h-4c-14 0 -47 0 -105 -3v31zM175 115
c0 -51 59 -103 117 -103c84 0 146 93 146 203c0 108 -57 201 -136 201c-70 0 -119 -57 -126 -81c-2 -6 -1 -13 -1 -20v-200z" />
    <glyph glyph-name="ydieresis" unicode="&#xff;" horiz-adv-x="527" 
d="M308 606c0 31 25 53 52 53c26 0 53 -22 53 -53s-26 -52 -52 -52c-31 0 -53 24 -53 52zM113 606c0 31 26 53 53 53c28 0 52 -22 52 -53s-26 -52 -52 -52c-31 0 -53 25 -53 52zM19 -124c0 30 22 43 42 43c23 0 42 -16 42 -42c0 -16 -8 -38 -39 -42c19 -18 42 -18 47 -18
c64 0 92 69 114 124c6 13 20 46 25 59l-150 365c-14 35 -33 35 -81 35v31c30 -2 70 -3 97 -3c17 0 83 2 109 3v-31c-19 0 -56 0 -56 -26c0 -4 2 -8 6 -18l111 -269l101 246c5 12 6 14 6 24c0 25 -16 42 -47 43v31c22 -1 69 -3 87 -3c23 0 52 1 75 3v-31
c-16 0 -67 -1 -93 -64l-176 -427c-24 -57 -65 -114 -128 -114c-50 0 -92 36 -92 81z" />
    <glyph glyph-name="Amacron" unicode="&#x100;" horiz-adv-x="750" 
d="M181 796v33h388v-33h-388zM32 0v31c54 1 94 16 112 67l207 598c5 14 8 20 24 20s18 -7 23 -20l216 -625c11 -33 25 -40 85 -40h18v-31c-42 2 -88 3 -131 3c-38 0 -108 0 -144 -3v31c27 0 83 0 83 30c0 4 -2 10 -3 14l-53 153h-247l-46 -131c-1 -2 -2 -12 -2 -15
c0 -26 25 -51 75 -51v-31c-32 1 -84 3 -115 3c-36 0 -79 -2 -102 -3zM233 259h225l-113 325z" />
    <glyph glyph-name="amacron" unicode="&#x101;" 
d="M42 550v32h360v-32h-360zM42 95c0 44 25 96 100 130c63 30 133 33 184 36v37c0 89 -57 128 -106 128c-32 0 -81 -11 -108 -46c46 -1 51 -34 51 -46c0 -26 -18 -46 -46 -46c-26 0 -46 17 -46 47c0 66 69 113 151 113c48 0 98 -16 137 -55c36 -37 36 -76 36 -118v-200
c0 -5 4 -50 37 -50c11 0 36 6 36 64v56h25v-56c0 -81 -61 -95 -82 -95c-47 0 -74 42 -78 82c-19 -47 -65 -87 -131 -87c-63 0 -160 25 -160 106zM119 96c0 -50 41 -85 90 -85c45 0 117 34 117 129v100c-165 -6 -207 -89 -207 -144z" />
    <glyph glyph-name="Abreve" unicode="&#x102;" horiz-adv-x="750" 
d="M225 891h22c6 -81 87 -100 128 -100c53 0 122 28 127 100h23c-2 -87 -76 -138 -150 -138c-75 0 -148 51 -150 138zM32 0v31c54 1 94 16 112 67l207 598c5 14 8 20 24 20s18 -7 23 -20l216 -625c11 -33 25 -40 85 -40h18v-31c-42 2 -88 3 -131 3c-38 0 -108 0 -144 -3v31
c27 0 83 0 83 30c0 4 -2 10 -3 14l-53 153h-247l-46 -131c-1 -2 -2 -12 -2 -15c0 -26 25 -51 75 -51v-31c-32 1 -84 3 -115 3c-36 0 -79 -2 -102 -3zM233 259h225l-113 325z" />
    <glyph glyph-name="abreve" unicode="&#x103;" 
d="M99 639h23c5 -74 77 -98 127 -98c36 0 122 16 128 98h23c-4 -90 -81 -136 -151 -136c-69 0 -146 45 -150 136zM42 95c0 44 25 96 100 130c63 30 133 33 184 36v37c0 89 -57 128 -106 128c-32 0 -81 -11 -108 -46c46 -1 51 -34 51 -46c0 -26 -18 -46 -46 -46
c-26 0 -46 17 -46 47c0 66 69 113 151 113c48 0 98 -16 137 -55c36 -37 36 -76 36 -118v-200c0 -5 4 -50 37 -50c11 0 36 6 36 64v56h25v-56c0 -81 -61 -95 -82 -95c-47 0 -74 42 -78 82c-19 -47 -65 -87 -131 -87c-63 0 -160 25 -160 106zM119 96c0 -50 41 -85 90 -85
c45 0 117 34 117 129v100c-165 -6 -207 -89 -207 -144z" />
    <glyph glyph-name="aogonek" unicode="&#x105;" 
d="M41 96c0 66 56 158 285 165v30c0 104 -64 133 -107 133c-65 0 -98 -34 -107 -44c40 0 50 -30 50 -46c0 -27 -20 -46 -45 -46c-22 0 -47 16 -47 48c0 63 68 111 152 111c61 0 174 -32 174 -156v-197c0 -8 -2 -66 36 -66c12 0 23 8 30 23c6 14 6 29 6 44v50h26v-47
c-1 -17 5 -54 -31 -84c-30 -25 -57 -16 -70 -20c-12 -4 -62 -45 -62 -89c0 -42 42 -77 84 -77c51 0 59 46 71 52c7 3 14 -2 14 -10c0 -17 -31 -87 -105 -87c-52 0 -109 37 -109 97c0 51 38 92 84 127c-11 9 -31 26 -36 68c-37 -72 -93 -86 -131 -86c-65 0 -162 25 -162 107z
M119 97c0 -51 43 -85 90 -85c51 0 117 37 117 132v96c-162 -7 -207 -86 -207 -143z" />
    <glyph glyph-name="Cacute" unicode="&#x106;" horiz-adv-x="722" 
d="M313 765c153 95 154 97 168 97c20 0 34 -21 34 -37c0 -30 -37 -36 -42 -37c-119 -37 -135 -42 -150 -46zM56 342c0 204 161 363 348 363c96 0 147 -50 184 -86l50 74c8 12 12 12 16 12c11 0 11 -7 11 -24v-237c0 -21 0 -24 -16 -24c-14 0 -14 3 -16 17
c-20 146 -109 237 -218 237c-61 0 -256 -34 -256 -333c0 -298 196 -332 257 -332c109 0 216 82 224 225c1 10 1 16 12 16c13 0 13 -7 13 -17c0 -116 -98 -255 -261 -255c-186 0 -348 157 -348 364z" />
    <glyph glyph-name="cacute" unicode="&#x107;" horiz-adv-x="444" 
d="M173 510c125 121 131 132 150 132c21 0 35 -21 35 -37c0 -23 -23 -32 -35 -39c-108 -61 -121 -69 -135 -76zM34 216c0 124 92 232 217 232c77 0 153 -39 153 -107c0 -30 -20 -47 -46 -47c-28 0 -46 20 -46 46c0 13 6 43 47 46c-35 36 -98 37 -107 37
c-53 0 -135 -42 -135 -205c0 -161 88 -204 141 -204c37 0 102 12 131 105c2 6 4 10 13 10c3 0 13 0 13 -10s-32 -130 -166 -130c-116 0 -215 99 -215 227z" />
    <glyph glyph-name="Ccircumflex" unicode="&#x108;" horiz-adv-x="722" 
d="M270 761l134 141l134 -141l-18 -17l-116 105l-116 -105zM56 342c0 204 161 363 348 363c96 0 147 -50 184 -86l50 74c8 12 12 12 16 12c11 0 11 -7 11 -24v-237c0 -21 0 -24 -16 -24c-14 0 -14 3 -16 17c-20 146 -109 237 -218 237c-61 0 -256 -34 -256 -333
c0 -298 196 -332 257 -332c109 0 216 82 224 225c1 10 1 16 12 16c13 0 13 -7 13 -17c0 -116 -98 -255 -261 -255c-186 0 -348 157 -348 364z" />
    <glyph glyph-name="ccircumflex" unicode="&#x109;" horiz-adv-x="444" 
d="M117 500l134 149h1l133 -149l-18 -18l-115 114h-1l-116 -114zM34 216c0 124 92 232 217 232c77 0 153 -39 153 -107c0 -30 -20 -47 -46 -47c-28 0 -46 20 -46 46c0 13 6 43 47 46c-35 36 -98 37 -107 37c-53 0 -135 -42 -135 -205c0 -161 88 -204 141 -204
c37 0 102 12 131 105c2 6 4 10 13 10c3 0 13 0 13 -10s-32 -130 -166 -130c-116 0 -215 99 -215 227z" />
    <glyph glyph-name="Cdotaccent" unicode="&#x10a;" horiz-adv-x="722" 
d="M351 819c0 29 24 53 53 53s53 -24 53 -53s-24 -53 -53 -53s-53 24 -53 53zM56 342c0 204 161 363 348 363c96 0 147 -50 184 -86l50 74c8 12 12 12 16 12c11 0 11 -7 11 -24v-237c0 -21 0 -24 -16 -24c-14 0 -14 3 -16 17c-20 146 -109 237 -218 237
c-61 0 -256 -34 -256 -333c0 -298 196 -332 257 -332c109 0 216 82 224 225c1 10 1 16 12 16c13 0 13 -7 13 -17c0 -116 -98 -255 -261 -255c-186 0 -348 157 -348 364z" />
    <glyph glyph-name="cdotaccent" unicode="&#x10b;" horiz-adv-x="444" 
d="M198 615c0 31 26 53 53 53c28 0 52 -22 52 -53s-26 -52 -52 -52c-31 0 -53 25 -53 52zM34 216c0 124 92 232 217 232c77 0 153 -39 153 -107c0 -30 -20 -47 -46 -47c-28 0 -46 20 -46 46c0 13 6 43 47 46c-35 36 -98 37 -107 37c-53 0 -135 -42 -135 -205
c0 -161 88 -204 141 -204c37 0 102 12 131 105c2 6 4 10 13 10c3 0 13 0 13 -10s-32 -130 -166 -130c-116 0 -215 99 -215 227z" />
    <glyph glyph-name="Ccaron" unicode="&#x10c;" horiz-adv-x="722" 
d="M263 919l12 16c106 -62 130 -79 143 -79c9 0 96 56 139 79l12 -16c-143 -122 -146 -125 -153 -125c-8 0 -10 3 -153 125zM56 342c0 204 161 363 348 363c96 0 147 -50 184 -86l50 74c8 12 12 12 16 12c11 0 11 -7 11 -24v-237c0 -21 0 -24 -16 -24c-14 0 -14 3 -16 17
c-20 146 -109 237 -218 237c-61 0 -256 -34 -256 -333c0 -298 196 -332 257 -332c109 0 216 82 224 225c1 10 1 16 12 16c13 0 13 -7 13 -17c0 -116 -98 -255 -261 -255c-186 0 -348 157 -348 364z" />
    <glyph glyph-name="ccaron" unicode="&#x10d;" horiz-adv-x="444" 
d="M34 216c0 124 92 232 217 232c77 0 153 -39 153 -107c0 -30 -20 -47 -46 -47c-28 0 -46 20 -46 46c0 13 6 43 47 46c-35 36 -98 37 -107 37c-53 0 -135 -42 -135 -205c0 -161 88 -204 141 -204c37 0 102 12 131 105c2 6 4 10 13 10c3 0 13 0 13 -10s-32 -130 -166 -130
c-116 0 -215 99 -215 227zM90 631l13 15c134 -90 133 -90 140 -90c8 0 12 4 140 90l13 -15l-153 -147z" />
    <glyph glyph-name="Dcaron" unicode="&#x10e;" horiz-adv-x="763" 
d="M182 919l11 16h1c106 -62 129 -79 142 -79c9 0 97 56 140 79l11 -16c-143 -122 -146 -125 -153 -125c-8 0 -9 3 -152 125zM35 0v31h24c77 0 79 11 79 47v527c0 36 -2 47 -79 47h-24v31h366c171 0 306 -157 306 -347c0 -188 -138 -336 -306 -336h-366zM224 71
c0 -33 2 -40 49 -40h101c101 0 158 58 178 85c36 49 55 109 55 220c0 78 -9 164 -52 223c-51 71 -120 93 -182 93h-100c-47 0 -49 -7 -49 -40v-541z" />
    <glyph glyph-name="dcaron" unicode="&#x10f;" horiz-adv-x="675" 
d="M495 683c0 26 18 53 53 53c29 0 66 -27 66 -85c0 -91 -76 -148 -92 -148c-3 0 -11 1 -11 9c0 15 80 45 80 140c-6 -7 -18 -21 -44 -21c-29 0 -52 20 -52 52zM34 215c0 129 105 227 223 227c54 0 97 -26 126 -62v216c0 49 -8 56 -78 56v31l144 11v-607c0 -49 8 -56 78 -56
v-31l-147 -11v66c-25 -32 -70 -66 -134 -66c-114 0 -212 99 -212 226zM117 214c0 -41 3 -98 29 -139c24 -38 60 -64 105 -64c43 0 88 22 118 70c11 17 11 19 11 37v205c0 18 0 20 -11 37c-31 45 -73 60 -108 60c-54 0 -92 -33 -113 -64c-29 -45 -31 -105 -31 -142z" />
    <glyph glyph-name="Dcroat" unicode="&#x110;" horiz-adv-x="764" 
d="M34 0v31h11c77 0 92 5 92 45v244c-18 0 -35 -1 -53 -1c-42 0 -45 1 -49 12v5c0 9 8 14 24 14c9 0 17 1 26 1c17 0 35 -1 52 -1v257c0 40 -15 45 -92 45h-11v31h347c58 0 108 -5 167 -42c101 -62 159 -183 159 -305c0 -172 -116 -315 -272 -334c-16 -2 -33 -2 -49 -2h-352
zM224 67c1 -35 9 -36 70 -36h73c115 0 169 61 191 94c43 62 49 140 49 213c0 76 -7 158 -52 222c-21 30 -75 92 -188 92h-17c-19 0 -37 1 -56 1h-10c-44 0 -59 -2 -60 -37v-266h166c12 -1 22 -3 22 -15s-11 -14 -23 -15h-165v-253z" />
    <glyph glyph-name="dcroat" unicode="&#x111;" horiz-adv-x="555" 
d="M33 215c0 134 111 226 223 226c51 0 90 -20 127 -61v151h-215v31h215v28c0 30 2 54 -35 60c-14 2 -29 2 -43 2v31l145 11v-132h66v-31h-66v-444c0 -47 11 -56 72 -56h6v-31l-148 -11l-1 66c-50 -63 -114 -66 -134 -66c-109 0 -212 94 -212 226zM117 218
c0 -68 8 -114 34 -151c27 -39 64 -55 100 -55c70 0 129 62 129 104v205c0 48 -58 97 -119 97c-53 0 -91 -32 -112 -63c-27 -40 -32 -90 -32 -137z" />
    <glyph glyph-name="Emacron" unicode="&#x112;" horiz-adv-x="680" 
d="M148 796v33h388v-33h-388zM33 0v31h24c77 0 79 11 79 47v524c0 36 -2 47 -79 47h-24v31h563l28 -225h-25c-16 139 -43 194 -196 194h-129c-47 0 -49 -7 -49 -40v-240h90c97 0 108 31 108 117h25v-265h-25c0 85 -11 117 -108 117h-90v-267c0 -33 2 -40 49 -40h133
c172 0 195 73 220 227h25l-42 -258h-577z" />
    <glyph glyph-name="emacron" unicode="&#x113;" horiz-adv-x="444" 
d="M56 550v32h360v-32h-360zM28 220c0 125 92 228 208 228c125 0 179 -97 179 -196c0 -21 -3 -21 -25 -21h-279c0 -36 0 -102 30 -150c23 -37 63 -67 113 -67c10 0 100 0 135 103c2 8 4 14 13 14c5 0 13 -2 13 -12c0 -19 -45 -130 -167 -130c-115 0 -220 97 -220 231z
M112 252h237c0 39 -10 174 -113 174c-34 0 -118 -25 -124 -174z" />
    <glyph glyph-name="Ebreve" unicode="&#x114;" horiz-adv-x="680" 
d="M192 891h23c6 -80 86 -100 127 -100s121 20 127 100h23c-2 -86 -75 -138 -150 -138s-148 52 -150 138zM33 0v31h24c77 0 79 11 79 47v524c0 36 -2 47 -79 47h-24v31h563l28 -225h-25c-16 139 -43 194 -196 194h-129c-47 0 -49 -7 -49 -40v-240h90c97 0 108 31 108 117h25
v-265h-25c0 85 -11 117 -108 117h-90v-267c0 -33 2 -40 49 -40h133c172 0 195 73 220 227h25l-42 -258h-577z" />
    <glyph glyph-name="ebreve" unicode="&#x115;" horiz-adv-x="444" 
d="M86 639h23c6 -82 91 -98 128 -98c53 0 122 28 127 98h22c-4 -88 -77 -136 -150 -136c-70 0 -146 46 -150 136zM28 220c0 125 92 228 208 228c125 0 179 -97 179 -196c0 -21 -3 -21 -25 -21h-279c0 -36 0 -102 30 -150c23 -37 63 -67 113 -67c10 0 100 0 135 103
c2 8 4 14 13 14c5 0 13 -2 13 -12c0 -19 -45 -130 -167 -130c-115 0 -220 97 -220 231zM112 252h237c0 39 -10 174 -113 174c-34 0 -118 -25 -124 -174z" />
    <glyph glyph-name="Edotaccent" unicode="&#x116;" horiz-adv-x="680" 
d="M289 819c0 29 24 53 53 53s53 -24 53 -53s-24 -53 -53 -53s-53 24 -53 53zM33 0v31h24c77 0 79 11 79 47v524c0 36 -2 47 -79 47h-24v31h563l28 -225h-25c-16 139 -43 194 -196 194h-129c-47 0 -49 -7 -49 -40v-240h90c97 0 108 31 108 117h25v-265h-25
c0 85 -11 117 -108 117h-90v-267c0 -33 2 -40 49 -40h133c172 0 195 73 220 227h25l-42 -258h-577z" />
    <glyph glyph-name="edotaccent" unicode="&#x117;" horiz-adv-x="444" 
d="M183 615c0 31 26 53 53 53c28 0 52 -22 52 -53s-26 -52 -52 -52c-31 0 -53 25 -53 52zM28 220c0 125 92 228 208 228c125 0 179 -97 179 -196c0 -21 -3 -21 -25 -21h-279c0 -36 0 -102 30 -150c23 -37 63 -67 113 -67c10 0 100 0 135 103c2 8 4 14 13 14
c5 0 13 -2 13 -12c0 -19 -45 -130 -167 -130c-115 0 -220 97 -220 231zM112 252h237c0 39 -10 174 -113 174c-34 0 -118 -25 -124 -174z" />
    <glyph glyph-name="Eogonek" unicode="&#x118;" horiz-adv-x="680" 
d="M33 0v31h15c68 0 87 4 88 43v534c-1 35 -16 42 -88 42h-15v30h564l27 -225h-25c-22 171 -61 194 -212 195h-92c-61 0 -69 -3 -70 -37v-244h80c49 0 105 0 115 64c3 17 3 35 3 52h25v-264h-25v8c0 89 -24 109 -113 109h-85v-269c0 -35 11 -38 57 -38h109
c98 0 174 9 210 111c13 37 20 77 26 116h25l-42 -258h-78c-22 0 -29 -7 -46 -24c-19 -19 -35 -43 -35 -70c0 -46 45 -77 82 -77c54 0 62 55 77 55c2 0 5 -1 7 -3c2 -1 2 -4 2 -8c0 -24 -36 -90 -105 -90c-52 0 -108 37 -108 99c0 24 9 66 71 118h-444z" />
    <glyph glyph-name="eogonek" unicode="&#x119;" horiz-adv-x="444" 
d="M27 219c0 118 86 228 210 228c107 0 178 -77 178 -196c0 -16 -3 -21 -26 -21h-278c0 -51 2 -105 30 -150c19 -31 58 -65 113 -65c68 0 114 49 131 91c8 19 14 25 19 25c6 0 10 -8 10 -13c0 -14 -12 -38 -23 -54c-43 -62 -133 -85 -133 -158c0 -45 45 -77 82 -77
c47 0 62 43 69 50c8 10 18 2 18 -7c0 -17 -31 -89 -106 -89c-50 0 -108 37 -108 99c0 50 39 88 59 108c-8 -1 -16 -1 -24 -1c-114 0 -221 95 -221 230zM112 252h236c-2 141 -68 172 -114 172c-42 -1 -116 -35 -122 -172z" />
    <glyph glyph-name="Ecaron" unicode="&#x11a;" horiz-adv-x="680" 
d="M165 919l12 16h1c106 -62 129 -79 142 -79c9 0 96 56 139 79l12 -16c-143 -122 -146 -125 -153 -125c-8 0 -10 3 -153 125zM33 0v31h24c77 0 79 11 79 47v524c0 36 -2 47 -79 47h-24v31h563l28 -225h-25c-16 139 -43 194 -196 194h-129c-47 0 -49 -7 -49 -40v-240h90
c97 0 108 31 108 117h25v-265h-25c0 85 -11 117 -108 117h-90v-267c0 -33 2 -40 49 -40h133c172 0 195 73 220 227h25l-42 -258h-577z" />
    <glyph glyph-name="ecaron" unicode="&#x11b;" horiz-adv-x="444" 
d="M82 631l13 15c134 -90 133 -90 140 -90c8 0 13 4 141 90l12 -15l-152 -147h-1zM28 220c0 125 92 228 208 228c125 0 179 -97 179 -196c0 -21 -3 -21 -25 -21h-279c0 -36 0 -102 30 -150c23 -37 63 -67 113 -67c10 0 100 0 135 103c2 8 4 14 13 14c5 0 13 -2 13 -12
c0 -19 -45 -130 -167 -130c-115 0 -220 97 -220 231zM112 252h237c0 39 -10 174 -113 174c-34 0 -118 -25 -124 -174z" />
    <glyph glyph-name="Gcircumflex" unicode="&#x11c;" horiz-adv-x="784" 
d="M269 761l134 141l134 -141l-18 -17l-116 105l-116 -105zM56 342c0 205 162 363 348 363c99 0 153 -54 185 -86l50 74c8 12 12 12 16 12c11 0 11 -7 11 -24v-237c0 -21 0 -24 -16 -24c-14 0 -14 3 -16 17c-20 147 -111 237 -218 237c-60 0 -257 -33 -257 -332
c0 -298 198 -333 263 -333c28 0 155 9 155 121v64c0 37 -3 48 -93 48h-32v31c36 -3 121 -3 161 -3c30 0 85 2 122 3v-31c-65 0 -69 -5 -69 -44v-174c0 -15 0 -23 -9 -23c-11 0 -51 40 -64 62c-34 -59 -114 -85 -187 -85c-190 0 -350 159 -350 364z" />
    <glyph glyph-name="gcircumflex" unicode="&#x11d;" 
d="M88 500l134 149h1l133 -149l-18 -18l-115 114h-1l-116 -114zM28 -79c0 40 32 83 92 100c-31 20 -44 58 -44 89c0 35 18 68 31 83c-25 21 -47 59 -47 103c0 77 69 146 162 146c22 0 64 -3 106 -36c42 41 86 47 106 47c39 0 51 -32 51 -49c0 -23 -19 -30 -29 -30
c-16 0 -29 12 -29 29c0 12 5 23 16 27c-3 1 -8 1 -10 1c-18 0 -54 -5 -90 -39c25 -23 41 -60 41 -97c0 -77 -69 -146 -162 -146c-19 0 -60 3 -99 31c-17 -20 -17 -43 -17 -47c0 -32 21 -63 53 -67c7 -1 50 -1 75 -1c61 0 119 0 172 -28c51 -28 65 -79 65 -114
c0 -78 -104 -129 -222 -129c-122 0 -221 55 -221 127zM80 -79c0 -53 69 -104 170 -104c98 0 169 50 169 104c0 86 -112 86 -198 86h-59c-44 -3 -82 -40 -82 -86zM135 295c0 -23 0 -123 87 -123c40 0 63 28 71 40c15 25 16 57 16 84c0 23 0 123 -87 123
c-40 0 -63 -28 -71 -40c-15 -25 -16 -57 -16 -84z" />
    <glyph glyph-name="Gbreve" unicode="&#x11e;" horiz-adv-x="785" 
d="M55 342c0 200 156 363 352 363c55 0 123 -10 184 -48c56 46 54 47 63 47c7 0 12 -5 12 -20v-126c0 -14 -3 -23 -17 -23c-26 0 -4 54 -82 103c-47 29 -106 36 -141 36c-107 0 -268 -66 -268 -333c0 -273 169 -332 262 -332c86 0 143 44 154 92c2 11 2 22 2 33v58
c0 43 -11 49 -112 49h-13v31c54 -2 108 -3 162 -3h7c17 0 53 0 115 3v-31c-51 0 -69 0 -69 -42v-175c1 -15 -3 -21 -10 -21c-15 0 -43 28 -63 60h-1c-36 -58 -107 -85 -187 -85c-186 0 -350 157 -350 364zM256 891h23c6 -81 86 -100 127 -100c53 0 122 28 127 100h23
c-2 -87 -76 -138 -150 -138c-75 0 -148 51 -150 138z" />
    <glyph glyph-name="gbreve" unicode="&#x11f;" 
d="M99 639h23c6 -81 90 -98 127 -98c53 0 123 28 128 98h22c-4 -91 -80 -136 -150 -136c-69 0 -146 45 -150 136zM28 -79c0 40 32 83 92 100c-31 20 -44 58 -44 89c0 35 18 68 31 83c-25 21 -47 59 -47 103c0 77 69 146 162 146c22 0 64 -3 106 -36c42 41 86 47 106 47
c39 0 51 -32 51 -49c0 -23 -19 -30 -29 -30c-16 0 -29 12 -29 29c0 12 5 23 16 27c-3 1 -8 1 -10 1c-18 0 -54 -5 -90 -39c25 -23 41 -60 41 -97c0 -77 -69 -146 -162 -146c-19 0 -60 3 -99 31c-17 -20 -17 -43 -17 -47c0 -32 21 -63 53 -67c7 -1 50 -1 75 -1
c61 0 119 0 172 -28c51 -28 65 -79 65 -114c0 -78 -104 -129 -222 -129c-122 0 -221 55 -221 127zM80 -79c0 -53 69 -104 170 -104c98 0 169 50 169 104c0 86 -112 86 -198 86h-59c-44 -3 -82 -40 -82 -86zM135 295c0 -23 0 -123 87 -123c40 0 63 28 71 40
c15 25 16 57 16 84c0 23 0 123 -87 123c-40 0 -63 -28 -71 -40c-15 -25 -16 -57 -16 -84z" />
    <glyph glyph-name="Gdotaccent" unicode="&#x120;" horiz-adv-x="784" 
d="M350 819c0 29 24 53 53 53s53 -24 53 -53s-24 -53 -53 -53s-53 24 -53 53zM56 342c0 205 162 363 348 363c99 0 153 -54 185 -86l50 74c8 12 12 12 16 12c11 0 11 -7 11 -24v-237c0 -21 0 -24 -16 -24c-14 0 -14 3 -16 17c-20 147 -111 237 -218 237
c-60 0 -257 -33 -257 -332c0 -298 198 -333 263 -333c28 0 155 9 155 121v64c0 37 -3 48 -93 48h-32v31c36 -3 121 -3 161 -3c30 0 85 2 122 3v-31c-65 0 -69 -5 -69 -44v-174c0 -15 0 -23 -9 -23c-11 0 -51 40 -64 62c-34 -59 -114 -85 -187 -85c-190 0 -350 159 -350 364z
" />
    <glyph glyph-name="gdotaccent" unicode="&#x121;" 
d="M169 615c0 31 26 53 53 53c28 0 52 -22 52 -53s-26 -52 -52 -52c-31 0 -53 25 -53 52zM28 -79c0 40 32 83 92 100c-31 20 -44 58 -44 89c0 35 18 68 31 83c-25 21 -47 59 -47 103c0 77 69 146 162 146c22 0 64 -3 106 -36c42 41 86 47 106 47c39 0 51 -32 51 -49
c0 -23 -19 -30 -29 -30c-16 0 -29 12 -29 29c0 12 5 23 16 27c-3 1 -8 1 -10 1c-18 0 -54 -5 -90 -39c25 -23 41 -60 41 -97c0 -77 -69 -146 -162 -146c-19 0 -60 3 -99 31c-17 -20 -17 -43 -17 -47c0 -32 21 -63 53 -67c7 -1 50 -1 75 -1c61 0 119 0 172 -28
c51 -28 65 -79 65 -114c0 -78 -104 -129 -222 -129c-122 0 -221 55 -221 127zM80 -79c0 -53 69 -104 170 -104c98 0 169 50 169 104c0 86 -112 86 -198 86h-59c-44 -3 -82 -40 -82 -86zM135 295c0 -23 0 -123 87 -123c40 0 63 28 71 40c15 25 16 57 16 84
c0 23 0 123 -87 123c-40 0 -63 -28 -71 -40c-15 -25 -16 -57 -16 -84z" />
    <glyph glyph-name="Gcommaaccent" unicode="&#x122;" horiz-adv-x="784" 
d="M56 342c0 205 162 363 348 363c99 0 153 -54 185 -86c57 84 56 86 66 86c11 0 11 -7 11 -24v-237c0 -21 0 -24 -16 -24c-14 0 -14 3 -16 17c-21 147 -111 237 -218 237c-60 0 -257 -33 -257 -332c0 -298 198 -333 263 -333c28 0 155 9 155 121v64c0 37 -3 48 -93 48h-32
v31c36 -3 121 -3 161 -3c30 0 85 2 122 3v-31c-65 0 -69 -5 -69 -44v-174c0 -15 0 -23 -9 -23c-11 0 -51 40 -64 62c-34 -59 -114 -85 -187 -85c-190 0 -350 159 -350 364zM371 -110c0 20 14 37 36 37c23 0 45 -20 45 -72c0 -66 -44 -136 -64 -136c-3 0 -6 4 -6 7
c0 10 54 46 54 128v12c-9 -9 -19 -13 -28 -13c-19 0 -37 16 -37 37z" />
    <glyph glyph-name="gcommaaccent" unicode="&#x123;" 
d="M167 582c0 90 76 148 92 148c3 0 11 -2 11 -10c0 -11 -17 -12 -43 -42c-23 -27 -37 -61 -37 -97c6 6 18 21 44 21c29 0 52 -21 52 -52c0 -26 -17 -53 -53 -53c-37 0 -66 36 -66 85zM28 -79c0 40 32 83 92 100c-31 20 -44 58 -44 89c0 35 18 68 31 83
c-25 21 -47 59 -47 103c0 77 69 146 162 146c22 0 64 -3 106 -36c42 41 86 47 106 47c39 0 51 -32 51 -49c0 -23 -19 -30 -29 -30c-16 0 -29 12 -29 29c0 12 5 23 16 27c-3 1 -8 1 -10 1c-18 0 -54 -5 -90 -39c25 -23 41 -60 41 -97c0 -77 -69 -146 -162 -146
c-19 0 -60 3 -99 31c-17 -20 -17 -43 -17 -47c0 -32 21 -63 53 -67c7 -1 50 -1 75 -1c61 0 119 0 172 -28c51 -28 65 -79 65 -114c0 -78 -104 -129 -222 -129c-122 0 -221 55 -221 127zM80 -79c0 -53 69 -104 170 -104c98 0 169 50 169 104c0 86 -112 86 -198 86h-59
c-44 -3 -82 -40 -82 -86zM135 295c0 -23 0 -123 87 -123c40 0 63 28 71 40c15 25 16 57 16 84c0 23 0 123 -87 123c-40 0 -63 -28 -71 -40c-15 -25 -16 -57 -16 -84z" />
    <glyph glyph-name="Hcircumflex" unicode="&#x124;" horiz-adv-x="750" 
d="M240 761l134 141l134 -141l-18 -17l-116 105l-116 -105zM33 0v31h24c77 0 79 11 79 47v527c0 36 -2 47 -79 47h-24v31c35 -3 110 -3 148 -3s112 0 147 3v-31h-24c-77 0 -79 -11 -79 -47v-234h299v234c0 36 -2 47 -79 47h-24v31c35 -3 110 -3 148 -3s112 0 147 3v-31h-24
c-77 0 -79 -11 -79 -47v-527c0 -36 2 -47 79 -47h24v-31c-35 3 -110 3 -148 3s-112 0 -147 -3v31h24c77 0 79 11 79 47v262h-299v-262c0 -36 2 -47 79 -47h24v-31c-35 3 -110 3 -148 3s-112 0 -147 -3z" />
    <glyph glyph-name="hcircumflex" unicode="&#x125;" horiz-adv-x="555" 
d="M150 746l134 149h1l133 -149l-18 -18l-115 114h-1l-116 -114zM32 0v31c67 0 78 0 78 45v520c0 49 -8 56 -78 56v31l144 11v-348h1c16 36 60 96 144 96c58 0 91 -20 105 -37c31 -36 31 -67 31 -153v-191c1 -30 26 -30 78 -30v-31c-34 1 -86 3 -112 3c-27 0 -78 -2 -113 -3
v31c67 0 78 0 78 45v233c0 57 -11 111 -74 111c-64 0 -135 -56 -135 -160v-184c0 -45 11 -45 78 -45v-31c-34 1 -86 3 -112 3c-27 0 -78 -2 -113 -3z" />
    <glyph glyph-name="Hbar" unicode="&#x126;" horiz-adv-x="750" 
d="M33 0v31h24c77 0 79 11 79 47v438h-78c-14 0 -25 2 -25 16s12 16 32 16h71v57c0 36 -2 47 -79 47h-24v31c35 -3 110 -3 148 -3s112 0 147 3v-31h-24c-77 0 -79 -11 -79 -47v-57h299v57c0 36 -2 47 -79 47h-24v31c35 -3 110 -3 148 -3s112 0 147 3v-31h-24
c-77 0 -79 -11 -79 -47v-57h74c15 0 29 -1 29 -16c0 -14 -13 -16 -26 -16h-77v-438c0 -36 2 -47 79 -47h24v-31c-35 3 -110 3 -148 3s-112 0 -147 -3v31h24c77 0 79 11 79 47v262h-299v-262c0 -36 2 -47 79 -47h24v-31c-35 3 -110 3 -148 3s-112 0 -147 -3zM225 371h299v145
h-299v-145z" />
    <glyph glyph-name="uni0127" unicode="&#x127;" horiz-adv-x="583" 
d="M26 547c0 14 12 16 31 16h79v27c0 30 2 54 -35 60c-14 2 -29 3 -43 3v31l145 11v-132h115c13 0 26 -2 26 -16s-13 -15 -26 -15h-115v-117l1 -69c15 33 58 95 144 95c135 0 136 -99 136 -148v-219c0 -43 19 -42 63 -43h14v-31c-39 2 -77 3 -116 3h-4c-14 0 -47 0 -105 -3
v31h9c64 0 69 9 69 46v225c0 63 -12 115 -72 116h-1c-54 0 -135 -41 -135 -167v-178c0 -37 14 -42 71 -42h7v-31c-39 2 -77 3 -116 3h-5c-14 0 -47 0 -105 -3v31h9c43 0 67 1 69 36v465h-85c-14 0 -25 1 -25 15z" />
    <glyph glyph-name="Itilde" unicode="&#x128;" horiz-adv-x="361" 
d="M30 809c33 40 55 71 93 71c44 0 77 -36 121 -36c32 0 52 24 64 36l22 -18c-33 -40 -55 -71 -93 -71c-44 0 -77 36 -121 36c-32 0 -53 -24 -65 -36zM28 0v31h26c79 0 82 11 82 47v527c0 36 -3 47 -82 47h-26v31c35 -3 114 -3 153 -3c38 0 117 0 152 3v-31h-26
c-79 0 -82 -11 -82 -47v-527c0 -36 3 -47 82 -47h26v-31c-35 3 -114 3 -153 3c-38 0 -117 0 -152 -3z" />
    <glyph glyph-name="itilde" unicode="&#x129;" horiz-adv-x="277" 
d="M-5 556c33 40 55 71 93 71c44 0 77 -36 121 -36c32 0 53 24 65 36l21 -18c-33 -40 -55 -70 -93 -70c-44 0 -77 35 -121 35c-32 0 -53 -24 -65 -36zM35 0v31c67 0 78 0 78 45v269c0 49 -9 55 -74 55v31l140 11v-367c0 -39 4 -44 70 -44v-31c-34 1 -69 3 -104 3
c-24 0 -78 -2 -110 -3z" />
    <glyph glyph-name="Imacron" unicode="&#x12a;" horiz-adv-x="361" 
d="M-1 755v32h360v-32h-360zM28 0v31h26c79 0 82 11 82 47v527c0 36 -3 47 -82 47h-26v31c35 -3 114 -3 153 -3c38 0 117 0 152 3v-31h-26c-79 0 -82 -11 -82 -47v-527c0 -36 3 -47 82 -47h26v-31c-35 3 -114 3 -153 3c-38 0 -117 0 -152 -3z" />
    <glyph glyph-name="Ibreve" unicode="&#x12c;" horiz-adv-x="361" 
d="M30 891h23c6 -80 86 -100 127 -100s121 20 127 100h23c-2 -86 -75 -138 -150 -138s-148 52 -150 138zM28 0v31h26c79 0 82 11 82 47v527c0 36 -3 47 -82 47h-26v31c35 -3 114 -3 153 -3c38 0 117 0 152 3v-31h-26c-79 0 -82 -11 -82 -47v-527c0 -36 3 -47 82 -47h26v-31
c-35 3 -114 3 -153 3c-38 0 -117 0 -152 -3z" />
    <glyph glyph-name="Iogonek" unicode="&#x12e;" horiz-adv-x="361" 
d="M28 0v31h26c79 0 82 11 82 47v527c0 36 -3 47 -82 47h-26v31c35 -3 114 -3 153 -3c38 0 117 0 152 3v-31h-26c-79 0 -82 -11 -82 -47v-527c0 -36 3 -47 82 -47h26v-31c-28 2 -79 3 -120 3c-10 -3 -69 -46 -69 -97c0 -46 45 -77 82 -77c55 0 63 55 77 55c4 0 9 -2 9 -11
c0 -24 -36 -90 -105 -90c-52 0 -108 37 -108 99c0 24 10 70 71 121c-40 0 -109 0 -142 -3z" />
    <glyph glyph-name="iogonek" unicode="&#x12f;" horiz-adv-x="277" 
d="M33 0v31c67 0 78 0 78 45v269c0 49 -9 55 -74 55v31l140 11v-367c0 -39 4 -44 70 -44v-31c-19 0 -38 2 -58 2c-6 -2 -35 -10 -50 -26c-19 -18 -35 -42 -35 -70c0 -46 45 -77 82 -77c55 0 63 55 77 55c4 0 9 -2 9 -11c0 -24 -36 -90 -105 -90c-52 0 -108 37 -108 99
c0 24 10 70 70 121zM75 616c0 26 22 53 53 53c28 0 53 -21 53 -53s-25 -53 -53 -53c-31 0 -53 26 -53 53z" />
    <glyph glyph-name="Idotaccent" unicode="&#x130;" horiz-adv-x="361" 
d="M127 819c0 31 26 53 53 53c28 0 52 -22 52 -53s-26 -52 -52 -52c-31 0 -53 25 -53 52zM28 0v31h26c79 0 82 11 82 47v527c0 36 -3 47 -82 47h-26v31c35 -3 114 -3 153 -3c38 0 117 0 152 3v-31h-26c-79 0 -82 -11 -82 -47v-527c0 -36 3 -47 82 -47h26v-31
c-35 3 -114 3 -153 3c-38 0 -117 0 -152 -3z" />
    <glyph glyph-name="dotlessi" unicode="&#x131;" horiz-adv-x="277" 
d="M33 0v31c67 0 78 0 78 45v269c0 49 -9 55 -74 55v31l140 11v-367c0 -39 4 -44 70 -44v-31c-34 1 -69 3 -104 3c-24 0 -78 -2 -110 -3z" />
    <glyph glyph-name="Jcircumflex" unicode="&#x134;" horiz-adv-x="513" 
d="M211 761l134 141l134 -141l-18 -17l-116 105l-116 -105zM41 112c0 44 34 58 56 58c28 0 56 -20 56 -56c0 -26 -12 -56 -64 -56c36 -58 104 -58 110 -58c53 0 103 56 103 148v456c0 35 0 48 -98 48h-36v31c38 -3 126 -3 168 -3c47 0 85 1 129 3v-31c-63 0 -77 0 -77 -41
v-444c0 -34 0 -36 -1 -44c-11 -75 -84 -145 -186 -145c-89 0 -160 60 -160 134z" />
    <glyph glyph-name="Kcommaaccent" unicode="&#x136;" horiz-adv-x="777" 
d="M363 -110c0 20 14 37 36 37c23 0 45 -20 45 -72c0 -66 -44 -136 -64 -136c-3 0 -6 4 -6 7c0 10 54 46 54 128v12c-9 -9 -19 -13 -28 -13c-19 0 -37 16 -37 37zM33 0v31h24c77 0 79 11 79 47v527c0 36 -2 47 -79 47h-24v31c35 -3 110 -3 148 -3s112 0 147 3v-31h-24
c-77 0 -79 -11 -79 -47v-318l313 299c8 7 18 17 18 33c0 9 -6 32 -46 33v31c34 -3 91 -3 127 -3c27 0 59 0 85 3v-31c-81 -1 -134 -52 -142 -60l-180 -173l231 -340c30 -44 51 -48 105 -48v-31c-42 2 -80 3 -115 3c-38 0 -108 0 -143 -3v31c20 0 59 0 59 30
c0 12 -9 25 -15 34l-181 268l-116 -110v-175c0 -36 2 -47 79 -47h24v-31c-35 3 -110 3 -148 3s-112 0 -147 -3z" />
    <glyph glyph-name="kcommaaccent" unicode="&#x137;" horiz-adv-x="527" 
d="M28 0v31c67 0 78 0 78 45v520c0 49 -8 56 -78 56v31l144 11v-480c163 141 163 136 163 161c0 13 -10 24 -29 25v31c14 -1 76 -3 112 -3c28 0 41 0 70 3v-31c-21 -1 -63 -3 -126 -54c-10 -8 -81 -68 -81 -72c0 -3 4 -8 133 -190c38 -53 60 -53 97 -53v-31
c-29 2 -58 3 -87 3c-21 0 -80 -2 -108 -3v31c19 0 36 4 36 23c0 18 -42 74 -119 180l-64 -55v-103c0 -45 11 -45 78 -45v-31c-40 2 -80 3 -110 3c-29 0 -76 -2 -109 -3zM244 -110c0 20 14 37 36 37c23 0 45 -20 45 -72c0 -66 -44 -136 -64 -136c-3 0 -6 4 -6 7
c0 10 54 46 54 128v12c-9 -9 -19 -13 -28 -13c-19 0 -37 16 -37 37z" />
    <glyph glyph-name="kgreenlandic" unicode="&#x138;" horiz-adv-x="531" 
d="M25 0v23c62 0 78 4 78 46v293c0 42 -16 46 -78 46v22c33 -1 86 -2 111 -2c26 0 79 1 112 2v-22c-62 0 -78 -4 -78 -46v-132h22c47 0 101 129 131 164c20 23 37 36 70 36c50 0 82 -27 82 -66c0 -33 -26 -45 -43 -45c-22 0 -44 18 -44 44c0 30 28 41 30 41
c-1 1 -10 4 -24 4c-25 0 -39 -24 -60 -56c-33 -51 -57 -101 -57 -101c165 -214 141 -228 200 -228h35v-23c-25 2 -49 3 -74 3c-5 0 -27 -3 -32 -3c-23 0 -25 10 -54 46c-22 27 -32 48 -113 158l-69 1v-136c0 -42 16 -46 78 -46v-23c-33 1 -85 3 -111 3c-25 0 -79 -2 -112 -3
z" />
    <glyph glyph-name="Lacute" unicode="&#x139;" horiz-adv-x="625" 
d="M88 765c153 95 154 97 168 97c20 0 34 -21 34 -37c0 -30 -37 -36 -42 -37c-119 -37 -135 -42 -150 -46zM33 0v31h24c77 0 79 11 79 47v527c0 36 -2 47 -79 47h-24v31c35 -3 113 -3 152 -3c41 0 132 0 168 3v-31h-33c-95 0 -95 -14 -95 -48v-533c0 -33 2 -40 49 -40h82
c176 0 190 125 201 227h25l-28 -258h-521z" />
    <glyph glyph-name="lacute" unicode="&#x13a;" horiz-adv-x="277" 
d="M96 765c153 95 154 97 168 97c21 0 34 -21 34 -37c0 -26 -24 -32 -43 -38c-119 -37 -133 -42 -148 -46zM33 0v31c67 0 78 0 78 45v520c0 49 -8 56 -78 56v31l144 11v-618c0 -45 11 -45 78 -45v-31c-37 1 -86 3 -111 3s-78 -2 -111 -3z" />
    <glyph glyph-name="Lcommaaccent" unicode="&#x13b;" horiz-adv-x="625" 
d="M307 -110c0 20 14 37 36 37c23 0 45 -20 45 -72c0 -66 -44 -136 -64 -136c-3 0 -6 4 -6 7c0 10 54 46 54 128v12c-9 -9 -19 -13 -28 -13c-19 0 -37 16 -37 37zM33 0v31h24c77 0 79 11 79 47v527c0 36 -2 47 -79 47h-24v31c35 -3 113 -3 152 -3c41 0 132 0 168 3v-31h-33
c-95 0 -95 -14 -95 -48v-533c0 -33 2 -40 49 -40h82c176 0 190 125 201 227h25l-28 -258h-521z" />
    <glyph glyph-name="lcommaaccent" unicode="&#x13c;" horiz-adv-x="277" 
d="M111 -110c0 20 14 37 36 37c23 0 45 -20 45 -72c0 -66 -44 -136 -64 -136c-3 0 -6 4 -6 7c0 10 54 46 54 128v12c-9 -9 -19 -13 -28 -13c-19 0 -37 16 -37 37zM33 0v31c67 0 78 0 78 45v520c0 49 -8 56 -78 56v31l144 11v-618c0 -45 11 -45 78 -45v-31
c-37 1 -86 3 -111 3s-78 -2 -111 -3z" />
    <glyph glyph-name="Lcaron" unicode="&#x13d;" horiz-adv-x="625" 
d="M411 725c0 26 18 53 53 53c39 0 67 -39 67 -85c0 -91 -76 -148 -92 -148c-3 0 -11 1 -11 9c0 15 80 45 80 140c-6 -7 -18 -22 -44 -22c-31 0 -53 24 -53 53zM33 0v31h24c77 0 79 11 79 47v527c0 36 -2 47 -79 47h-24v31c35 -3 113 -3 152 -3c41 0 132 0 168 3v-31h-33
c-95 0 -95 -14 -95 -48v-533c0 -33 2 -40 49 -40h82c176 0 190 125 201 227h25l-28 -258h-521z" />
    <glyph glyph-name="lcaron" unicode="&#x13e;" horiz-adv-x="403" 
d="M222 683c0 26 18 53 53 53c29 0 66 -27 66 -85c0 -91 -76 -148 -92 -148c-3 0 -11 1 -11 9c0 15 80 45 80 140c-6 -7 -18 -21 -44 -21c-31 0 -52 23 -52 52zM33 0v31c67 0 78 0 78 45v520c0 49 -8 56 -78 56v31l144 11v-618c0 -45 11 -45 78 -45v-31c-37 1 -86 3 -111 3
s-78 -2 -111 -3z" />
    <glyph glyph-name="Ldot" unicode="&#x13f;" horiz-adv-x="625" 
d="M33 0v31h24c77 0 79 11 79 47v527c0 36 -2 47 -79 47h-24v31c35 -3 113 -3 152 -3c41 0 132 0 168 3v-31h-33c-95 0 -95 -14 -95 -48v-533c0 -33 2 -40 49 -40h82c176 0 190 125 201 227h25l-28 -258h-521zM369 365c0 27 22 52 53 52c28 0 52 -21 52 -52s-26 -53 -52 -53
c-31 0 -53 26 -53 53z" />
    <glyph glyph-name="ldot" unicode="&#x140;" horiz-adv-x="387" 
d="M33 0v31c67 0 78 0 78 45v520c0 49 -8 56 -78 56v31l144 11v-618c0 -45 11 -45 78 -45v-31c-37 1 -86 3 -111 3s-78 -2 -111 -3zM255 242c0 27 22 52 53 52c28 0 52 -21 52 -52s-26 -53 -52 -53c-31 0 -53 26 -53 53z" />
    <glyph glyph-name="Lslash" unicode="&#x141;" horiz-adv-x="625" 
d="M33 0v31h10c77 0 93 4 93 45v222l-73 -60l-20 24c87 72 93 72 93 91v254c0 40 -15 45 -92 45h-11v31c44 -2 89 -3 148 -3c58 0 115 1 172 3v-31h-11c-106 0 -117 -6 -117 -49v-190l147 121l20 -24l-148 -122c-18 -15 -19 -16 -19 -39v-282c0 -35 18 -36 52 -36h68
c186 0 199 113 212 227h26l-28 -258h-522z" />
    <glyph glyph-name="lslash" unicode="&#x142;" horiz-adv-x="336" 
d="M59 282c76 62 79 60 79 82v226c0 59 -14 62 -78 62v31l145 11v-290l71 58l20 -24c-85 -70 -91 -71 -91 -90v-275c1 -36 11 -42 70 -42h8v-31c-38 2 -76 3 -114 3c-22 0 -55 0 -109 -3v31h7c55 0 70 3 71 39v237l-59 -49z" />
    <glyph glyph-name="Nacute" unicode="&#x143;" horiz-adv-x="750" 
d="M286 765c153 95 154 97 168 97c20 0 34 -21 34 -37c0 -30 -37 -36 -42 -37c-119 -37 -135 -42 -150 -46zM33 0v31c103 0 103 47 103 74v522c0 19 -1 20 -24 23c-15 1 -35 2 -50 2h-29v31h170c19 0 20 -1 29 -13l353 -519v427c0 27 0 74 -103 74v31c35 -1 84 -3 117 -3
s82 2 117 3v-31c-103 0 -103 -47 -103 -74v-552c0 -19 0 -26 -14 -26c-7 0 -8 1 -17 13l-408 600c-4 6 -5 7 -10 12v-520c0 -27 0 -74 103 -74v-31c-35 1 -84 3 -117 3s-82 -2 -117 -3z" />
    <glyph glyph-name="nacute" unicode="&#x144;" horiz-adv-x="555" 
d="M219 510c125 121 131 132 150 132c21 0 35 -21 35 -37c0 -23 -23 -32 -35 -39c-108 -61 -121 -69 -135 -76zM32 0v31c67 0 78 0 78 45v268c0 49 -8 56 -78 56v31l141 11v-105c28 62 75 105 148 105c58 0 91 -20 105 -37c31 -36 31 -67 31 -153v-191c1 -30 26 -30 78 -30
v-31c-34 1 -86 3 -112 3c-27 0 -78 -2 -113 -3v31c67 0 78 0 78 45v233c0 57 -11 111 -74 111c-64 0 -135 -56 -135 -160v-184c0 -45 11 -45 78 -45v-31c-34 1 -86 3 -112 3c-27 0 -78 -2 -113 -3z" />
    <glyph glyph-name="Ncommaaccent" unicode="&#x145;" horiz-adv-x="750" 
d="M33 0v31c103 0 103 47 103 74v522c0 21 1 25 -74 25h-29v31h170c19 0 20 -1 29 -13l353 -519v427c0 27 0 74 -103 74v31c35 -1 84 -3 117 -3s82 2 117 3v-31c-103 0 -103 -47 -103 -74v-552c0 -19 0 -26 -14 -26c-7 0 -8 1 -17 13l-408 600c-4 6 -5 7 -10 12v-520
c0 -27 0 -74 103 -74v-31c-35 1 -84 3 -117 3s-82 -2 -117 -3zM353 -110c0 20 14 37 36 37c23 0 45 -20 45 -72c0 -66 -44 -136 -64 -136c-3 0 -6 4 -6 7c0 10 54 46 54 128v12c-9 -9 -19 -13 -28 -13c-19 0 -37 16 -37 37z" />
    <glyph glyph-name="ncommaaccent" unicode="&#x146;" horiz-adv-x="555" 
d="M32 0v31c67 0 78 0 78 45v268c0 49 -8 56 -78 56v31l141 11v-105c28 62 75 105 148 105c130 0 136 -84 136 -166v-215c1 -30 26 -30 78 -30v-31c-34 1 -86 3 -112 3c-27 0 -78 -2 -113 -3v31c67 0 78 0 78 45v233c0 57 -11 111 -74 111c-64 0 -135 -56 -135 -160v-184
c0 -45 11 -45 78 -45v-31c-34 1 -86 3 -112 3c-27 0 -78 -2 -113 -3zM253 -110c0 20 14 37 36 37c23 0 45 -20 45 -72c0 -66 -44 -136 -64 -136c-3 0 -6 4 -6 7c0 10 54 46 54 128v12c-9 -9 -19 -13 -28 -13c-19 0 -37 16 -37 37z" />
    <glyph glyph-name="Ncaron" unicode="&#x147;" horiz-adv-x="750" 
d="M222 919l11 16h1c106 -62 130 -79 143 -79c9 0 95 56 139 79l12 -16c-143 -122 -146 -125 -153 -125c-8 0 -10 3 -153 125zM33 0v31c103 0 103 47 103 74v522c0 19 -1 20 -24 23c-15 1 -35 2 -50 2h-29v31h170c19 0 20 -1 29 -13l353 -519v427c0 27 0 74 -103 74v31
c35 -1 84 -3 117 -3s82 2 117 3v-31c-103 0 -103 -47 -103 -74v-552c0 -19 0 -26 -14 -26c-7 0 -8 1 -17 13l-408 600c-4 6 -5 7 -10 12v-520c0 -27 0 -74 103 -74v-31c-35 1 -84 3 -117 3s-82 -2 -117 -3z" />
    <glyph glyph-name="ncaron" unicode="&#x148;" horiz-adv-x="555" 
d="M90 631l13 15c134 -90 133 -90 140 -90c8 0 13 4 141 90l12 -15l-152 -147h-1zM32 0v31c67 0 78 0 78 45v268c0 49 -8 56 -78 56v31l141 11v-105c28 62 75 105 148 105c58 0 91 -20 105 -37c31 -36 31 -67 31 -153v-191c1 -30 26 -30 78 -30v-31c-34 1 -86 3 -112 3
c-27 0 -78 -2 -113 -3v31c67 0 78 0 78 45v233c0 57 -11 111 -74 111c-64 0 -135 -56 -135 -160v-184c0 -45 11 -45 78 -45v-31c-34 1 -86 3 -112 3c-27 0 -78 -2 -113 -3z" />
    <glyph glyph-name="napostrophe" unicode="&#x149;" horiz-adv-x="601" 
d="M15 683c0 26 17 53 53 53c37 0 66 -36 66 -85c0 -90 -76 -148 -92 -148c-3 0 -11 2 -11 10c0 11 17 12 43 42c23 27 37 61 37 97c-6 -6 -18 -21 -44 -21c-29 0 -52 21 -52 52zM78 0v31c67 0 78 0 78 45v268c0 49 -8 56 -78 56v31l141 11v-105c28 62 75 105 148 105
c130 0 136 -84 136 -166v-215c1 -30 26 -30 78 -30v-31c-34 1 -86 3 -112 3c-27 0 -78 -2 -113 -3v31c67 0 78 0 78 45v233c0 57 -11 111 -74 111c-64 0 -135 -56 -135 -160v-184c0 -45 11 -45 78 -45v-31c-34 1 -86 3 -112 3c-27 0 -78 -2 -113 -3z" />
    <glyph glyph-name="Eng" unicode="&#x14a;" horiz-adv-x="791" 
d="M33 0v31h16c73 0 86 7 87 42v537c-1 39 -19 42 -88 42h-15v31l95 -2h67l30 2v-70c50 52 121 97 225 97c134 0 285 -87 285 -266v-289c0 -130 -112 -177 -187 -177c-99 0 -160 69 -160 133c0 36 24 58 55 58c30 0 56 -22 56 -55c0 -26 -16 -55 -60 -55h-5
c40 -54 91 -58 109 -58c33 0 103 23 103 158v282c0 51 -7 79 -23 112c-32 65 -105 126 -202 126c-118 0 -186 -89 -194 -112c-2 -6 -2 -12 -2 -18v-475c1 -36 14 -43 89 -43h14v-31c-51 2 -103 3 -154 3c-56 0 -99 -2 -141 -3z" />
    <glyph glyph-name="eng" unicode="&#x14b;" horiz-adv-x="555" 
d="M31 0v31h10c58 0 68 7 68 43v259c0 61 -8 67 -78 67v30l142 11v-60l1 -41c16 38 59 101 147 101c119 0 135 -77 135 -143v-233c0 -13 1 -27 1 -40c0 -196 -79 -230 -131 -230c-50 0 -104 29 -104 79c0 30 22 47 45 47s46 -18 46 -46c0 -18 -9 -38 -36 -45
c17 -9 33 -12 47 -12c56 0 63 77 63 192c0 16 -1 32 -1 48v245c0 59 -9 115 -73 115c-41 0 -134 -32 -134 -165v-180c0 -37 13 -42 70 -42h7v-31c-39 2 -77 3 -116 3h-4c-14 0 -47 0 -105 -3z" />
    <glyph glyph-name="Omacron" unicode="&#x14c;" horiz-adv-x="777" 
d="M194 796v33h388v-33h-388zM56 339c0 206 153 366 332 366c182 0 333 -162 333 -366c0 -202 -151 -361 -333 -361c-178 0 -332 156 -332 361zM159 353c0 -261 134 -349 230 -349c92 0 229 84 229 349c0 256 -143 327 -230 327c-83 0 -229 -68 -229 -327z" />
    <glyph glyph-name="omacron" unicode="&#x14d;" 
d="M70 550v32h360v-32h-360zM28 214c0 125 97 234 222 234c121 0 221 -106 221 -234c0 -127 -101 -225 -222 -225c-117 0 -221 96 -221 225zM111 222c0 -36 0 -97 25 -141c27 -46 71 -67 114 -67c50 0 94 29 116 74c22 44 22 98 22 134c0 38 0 96 -26 139s-69 65 -113 65
c-40 0 -87 -21 -114 -67c-24 -44 -24 -98 -24 -137z" />
    <glyph glyph-name="Obreve" unicode="&#x14e;" horiz-adv-x="777" 
d="M238 891h23c6 -80 86 -100 127 -100s121 20 127 100h23c-2 -86 -75 -138 -150 -138s-148 52 -150 138zM56 339c0 206 153 366 332 366c182 0 333 -162 333 -366c0 -202 -151 -361 -333 -361c-178 0 -332 156 -332 361zM159 353c0 -261 134 -349 230 -349
c92 0 229 84 229 349c0 256 -143 327 -230 327c-83 0 -229 -68 -229 -327z" />
    <glyph glyph-name="obreve" unicode="&#x14f;" 
d="M100 639h23c6 -82 91 -98 128 -98c53 0 122 28 127 98h22c-4 -88 -77 -136 -150 -136c-70 0 -146 46 -150 136zM28 214c0 125 97 234 222 234c121 0 221 -106 221 -234c0 -127 -101 -225 -222 -225c-117 0 -221 96 -221 225zM111 222c0 -36 0 -97 25 -141
c27 -46 71 -67 114 -67c50 0 94 29 116 74c22 44 22 98 22 134c0 38 0 96 -26 139s-69 65 -113 65c-40 0 -87 -21 -114 -67c-24 -44 -24 -98 -24 -137z" />
    <glyph glyph-name="Ohungarumlaut" unicode="&#x150;" horiz-adv-x="777" 
d="M258 765c153 95 154 97 168 97c20 0 34 -21 34 -37c0 -30 -37 -36 -42 -37c-119 -37 -135 -42 -150 -46zM425 765c153 95 154 97 168 97c20 0 34 -21 34 -37c0 -30 -37 -36 -42 -37c-119 -37 -135 -42 -150 -46zM56 339c0 206 153 366 332 366c182 0 333 -162 333 -366
c0 -202 -151 -361 -333 -361c-178 0 -332 156 -332 361zM159 353c0 -261 134 -349 230 -349c92 0 229 84 229 349c0 256 -143 327 -230 327c-83 0 -229 -68 -229 -327z" />
    <glyph glyph-name="ohungarumlaut" unicode="&#x151;" 
d="M297 510c125 121 131 132 150 132c21 0 35 -21 35 -37c0 -23 -23 -32 -35 -39c-108 -61 -121 -69 -135 -76zM130 510c125 121 131 132 150 132c21 0 35 -21 35 -37c0 -23 -23 -32 -35 -39c-108 -61 -121 -69 -135 -76zM28 214c0 125 97 234 222 234
c121 0 221 -106 221 -234c0 -127 -101 -225 -222 -225c-117 0 -221 96 -221 225zM111 222c0 -36 0 -97 25 -141c27 -46 71 -67 114 -67c50 0 94 29 116 74c22 44 22 98 22 134c0 38 0 96 -26 139s-69 65 -113 65c-40 0 -87 -21 -114 -67c-24 -44 -24 -98 -24 -137z" />
    <glyph glyph-name="OE" unicode="&#x152;" horiz-adv-x="1014" 
d="M69 339c0 208 155 366 331 366c60 0 91 -22 165 -22h364l28 -225h-25c-9 73 -18 134 -63 167c-38 27 -94 27 -133 27h-92c-38 0 -53 -2 -54 -37v-245h96c68 0 111 5 122 65c3 17 3 35 3 52h26v-264h-26v11c0 92 -35 106 -119 106h-102v-270c0 -37 14 -39 53 -39h97
c174 0 192 65 219 227h26l-42 -258h-378c-74 0 -104 -22 -165 -22c-172 0 -331 151 -331 361zM170 353c0 -190 100 -352 233 -352c109 0 110 74 110 223v231c0 162 -4 228 -110 228c-124 0 -233 -137 -233 -330z" />
    <glyph glyph-name="oe" unicode="&#x153;" horiz-adv-x="778" 
d="M27 219c0 130 101 228 214 228c69 0 133 -36 173 -100h1c28 45 82 100 166 100c107 0 168 -86 168 -194c0 -22 -9 -23 -23 -23h-275c0 -47 3 -107 38 -155c40 -54 90 -60 109 -60c62 0 105 48 120 90c3 8 6 25 19 25c7 0 10 -6 10 -14c0 -23 -46 -127 -154 -127
c-64 0 -122 33 -159 78l-18 25c-40 -65 -105 -103 -175 -103c-114 0 -214 100 -214 230zM105 222c0 -47 5 -88 20 -123c16 -38 56 -87 116 -87c56 0 140 43 140 212c0 43 -5 81 -20 114c-17 39 -60 86 -120 86c-14 0 -56 -3 -93 -46s-43 -102 -43 -156zM452 252h230
c-1 41 -5 141 -75 167c-9 3 -19 5 -28 5c-25 0 -113 -15 -127 -172z" />
    <glyph glyph-name="Racute" unicode="&#x154;" horiz-adv-x="736" 
d="M285 765c153 95 154 97 168 97c20 0 34 -21 34 -37c0 -30 -37 -36 -42 -37c-119 -37 -135 -42 -150 -46zM35 0v31h24c77 0 79 11 79 47v527c0 36 -2 47 -79 47h-24v31h314c147 0 261 -84 261 -180c0 -78 -78 -139 -175 -163c55 -19 104 -52 122 -116l13 -80
c14 -93 22 -144 71 -144c25 0 60 18 66 89c1 7 1 16 12 16c13 0 13 -11 13 -17c0 -28 -17 -110 -95 -110c-30 0 -85 6 -126 42c-41 38 -41 78 -41 143c0 67 0 98 -38 134c-35 34 -77 34 -93 34h-115v-253c0 -36 2 -47 79 -47h24v-31c-36 3 -107 3 -146 3s-110 0 -146 -3z
M224 353h111c148 0 172 81 172 150c0 145 -112 149 -202 149c-20 0 -49 0 -59 -2c-22 -3 -22 -15 -22 -38v-259z" />
    <glyph glyph-name="racute" unicode="&#x155;" horiz-adv-x="391" 
d="M28 0v31c67 0 78 0 78 45v268c0 49 -8 56 -78 56v31l139 11v-110c14 43 50 110 123 110c43 0 74 -29 74 -61s-25 -44 -43 -44c-22 0 -43 15 -43 43c0 26 20 38 23 39c-2 1 -4 1 -11 1c-76 0 -118 -89 -118 -188v-154c0 -36 2 -47 76 -47h21v-31c-40 3 -87 3 -127 3
c-28 0 -75 -2 -114 -3zM146 510c129 125 131 132 150 132c21 0 35 -21 35 -37c0 -23 -23 -33 -35 -39c-108 -61 -121 -69 -135 -76z" />
    <glyph glyph-name="Rcommaaccent" unicode="&#x156;" horiz-adv-x="736" 
d="M35 0v31h24c77 0 79 11 79 47v527c0 36 -2 47 -79 47h-24v31h314c147 0 261 -84 261 -180c0 -78 -78 -139 -175 -163c55 -19 104 -52 122 -116c25 -156 27 -224 84 -224c25 0 60 18 66 89c1 7 1 16 12 16c13 0 13 -11 13 -17c0 -28 -17 -110 -95 -110
c-30 0 -85 5 -126 42s-41 78 -41 143c0 67 0 98 -38 134c-35 34 -77 34 -93 34h-115v-253c0 -36 2 -47 79 -47h24v-31c-36 3 -107 3 -146 3s-110 0 -146 -3zM224 353h111c148 0 172 81 172 150c0 145 -112 149 -202 149h-1c-78 0 -80 0 -80 -40v-259zM334 -110
c0 20 14 37 36 37c23 0 45 -20 45 -72c0 -66 -44 -136 -64 -136c-3 0 -6 4 -6 7c0 10 54 46 54 128v12c-9 -9 -19 -13 -28 -13c-19 0 -37 16 -37 37z" />
    <glyph glyph-name="rcommaaccent" unicode="&#x157;" horiz-adv-x="391" 
d="M106 -110c0 20 14 37 36 37c23 0 45 -20 45 -72c0 -66 -44 -136 -64 -136c-3 0 -6 4 -6 7c0 10 54 46 54 128v12c-9 -9 -19 -13 -28 -13c-19 0 -37 16 -37 37zM28 0v31c67 0 78 0 78 45v268c0 49 -8 56 -78 56v31l139 11v-110c14 43 50 110 123 110c43 0 74 -29 74 -61
s-25 -44 -43 -44c-22 0 -43 15 -43 43c0 26 20 38 23 39c-2 1 -4 1 -11 1c-76 0 -118 -89 -118 -188v-154c0 -36 2 -47 76 -47h21v-31c-40 3 -87 3 -127 3c-28 0 -75 -2 -114 -3z" />
    <glyph glyph-name="Rcaron" unicode="&#x158;" horiz-adv-x="736" 
d="M165 919l12 16h1c106 -62 129 -79 142 -79c9 0 95 56 139 79l12 -16c-143 -122 -146 -125 -153 -125c-8 0 -10 3 -153 125zM35 0v31h24c77 0 79 11 79 47v527c0 36 -2 47 -79 47h-24v31h314c147 0 261 -84 261 -180c0 -78 -78 -139 -175 -163c55 -19 104 -52 122 -116
l13 -80c14 -93 22 -144 71 -144c25 0 60 18 66 89c1 7 1 16 12 16c13 0 13 -11 13 -17c0 -28 -17 -110 -95 -110c-30 0 -85 6 -126 42c-41 38 -41 78 -41 143c0 67 0 98 -38 134c-35 34 -77 34 -93 34h-115v-253c0 -36 2 -47 79 -47h24v-31c-36 3 -107 3 -146 3
s-110 0 -146 -3zM224 353h111c148 0 172 81 172 150c0 145 -112 149 -202 149c-20 0 -49 0 -59 -2c-22 -3 -22 -15 -22 -38v-259z" />
    <glyph glyph-name="rcaron" unicode="&#x159;" horiz-adv-x="391" 
d="M60 631l13 15c134 -90 133 -90 140 -90c8 0 13 4 141 90l12 -15l-152 -147h-1zM28 0v31c67 0 78 0 78 45v268c0 49 -8 56 -78 56v31l139 11v-110c14 43 50 110 123 110c43 0 74 -29 74 -61s-25 -44 -43 -44c-22 0 -43 15 -43 43c0 26 20 38 23 39c-2 1 -4 1 -11 1
c-76 0 -118 -89 -118 -188v-154c0 -36 2 -47 76 -47h21v-31c-40 3 -87 3 -127 3c-28 0 -75 -2 -114 -3z" />
    <glyph glyph-name="Sacute" unicode="&#x15a;" horiz-adv-x="555" 
d="M175 765c153 95 154 97 168 97c20 0 34 -21 34 -37c0 -30 -37 -36 -42 -37c-119 -37 -135 -42 -150 -46zM56 2v200c0 18 0 25 13 25c3 0 11 0 12 -10c1 -36 4 -100 62 -154c53 -49 129 -54 158 -54c84 0 134 72 134 143c0 33 -10 66 -31 92c-28 37 -58 44 -85 51
c-70 17 -121 29 -132 33c-78 27 -131 100 -131 183c0 106 84 194 195 194c89 0 130 -41 160 -70l35 57c7 12 8 13 15 13c11 0 11 -7 11 -24v-201c0 -19 0 -24 -13 -24c-11 0 -11 6 -12 12c-6 45 -28 209 -195 209c-78 0 -132 -61 -132 -131c0 -58 39 -112 101 -127l128 -31
c84 -20 150 -102 150 -202c0 -110 -80 -208 -197 -208c-89 0 -153 36 -184 70c-33 -53 -36 -56 -36 -57c-7 -11 -8 -13 -15 -13c-11 0 -11 7 -11 24z" />
    <glyph glyph-name="sacute" unicode="&#x15b;" horiz-adv-x="394" 
d="M33 11v125c0 16 0 26 7 30c5 3 10 2 14 -1c15 -12 14 -153 146 -153c96 0 111 53 111 88c0 45 -32 70 -62 82c-29 12 -80 16 -114 26c-43 13 -102 49 -102 116c0 49 22 123 159 123c48 0 72 -12 96 -28c10 10 25 26 36 26s12 -12 12 -21v-100c0 -17 -5 -25 -12 -25
c-3 0 -7 1 -10 4c-10 10 6 124 -122 124c-78 0 -109 -30 -109 -74c0 -75 107 -76 163 -91c54 -14 115 -58 115 -135c0 -71 -37 -138 -160 -138c-58 0 -86 20 -112 44c-18 -21 -33 -42 -45 -42c-10 0 -11 11 -11 20zM133 510c125 121 131 132 150 132c21 0 35 -21 35 -37
c0 -23 -23 -32 -35 -39c-108 -61 -121 -69 -135 -76z" />
    <glyph glyph-name="Scircumflex" unicode="&#x15c;" horiz-adv-x="555" 
d="M117 761l134 141l134 -141l-18 -17l-116 105l-116 -105zM56 2v200c0 18 0 25 13 25c3 0 11 0 12 -10c1 -36 4 -100 62 -154c53 -49 129 -54 158 -54c84 0 134 72 134 143c0 33 -10 66 -31 92c-28 37 -58 44 -85 51c-70 17 -121 29 -132 33c-78 27 -131 100 -131 183
c0 106 84 194 195 194c89 0 130 -41 160 -70l35 57c7 12 8 13 15 13c11 0 11 -7 11 -24v-201c0 -19 0 -24 -13 -24c-11 0 -11 6 -12 12c-6 45 -28 209 -195 209c-78 0 -132 -61 -132 -131c0 -58 39 -112 101 -127l128 -31c84 -20 150 -102 150 -202
c0 -110 -80 -208 -197 -208c-89 0 -153 36 -184 70c-33 -53 -36 -56 -36 -57c-7 -11 -8 -13 -15 -13c-11 0 -11 7 -11 24z" />
    <glyph glyph-name="scircumflex" unicode="&#x15d;" horiz-adv-x="394" 
d="M59 500l134 149h1l133 -149l-18 -18l-115 114h-1l-116 -114zM33 13v132c0 18 0 25 13 25c10 0 11 -4 14 -17c19 -85 55 -142 139 -142c78 0 113 40 113 91c0 72 -82 88 -104 92c-72 14 -100 20 -132 46c-27 22 -43 50 -43 85c0 56 38 123 160 123c15 0 56 0 94 -28
c4 3 14 12 17 16c13 12 15 12 20 12c11 0 11 -7 11 -24v-101c0 -19 0 -24 -13 -24c-2 0 -11 0 -12 9c-2 31 -7 121 -117 121c-86 0 -112 -41 -112 -76c0 -58 67 -71 123 -82c42 -8 81 -16 114 -48c12 -12 42 -42 42 -95c0 -72 -46 -139 -161 -139c-21 0 -66 1 -110 43
c-18 -19 -18 -21 -20 -23c-19 -19 -20 -20 -25 -20c-11 0 -11 7 -11 24z" />
    <glyph glyph-name="Scedilla" unicode="&#x15e;" horiz-adv-x="555" 
d="M55 5v202c1 14 6 19 12 19s12 -5 13 -14c3 -25 2 -88 56 -142c45 -45 110 -61 164 -61c82 0 134 70 134 142c0 62 -35 114 -84 134c-23 10 -133 33 -165 44c-65 23 -130 87 -130 182c0 109 89 194 196 194c95 0 140 -50 159 -70c32 53 40 69 50 69c12 0 11 -15 11 -25
v-187c0 -2 1 -4 1 -8c0 -11 -2 -27 -12 -27c-12 0 -14 10 -15 18c-15 117 -77 202 -193 202c-79 0 -132 -63 -132 -130c0 -59 37 -104 83 -122c23 -9 130 -31 162 -42c76 -26 134 -104 134 -198c0 -100 -65 -184 -159 -204v-35c13 -3 83 -14 83 -72c0 -62 -79 -78 -224 -78
h-13v23h12c95 0 154 11 154 55c0 22 -17 52 -82 55v51c-76 8 -119 36 -153 68c-32 -58 -42 -69 -50 -69c-1 0 -3 1 -4 1c-9 3 -8 14 -8 25z" />
    <glyph glyph-name="scedilla" unicode="&#x15f;" horiz-adv-x="394" 
d="M33 11v125c0 16 0 26 7 30c5 3 10 2 14 -1c15 -12 14 -153 146 -153c96 0 111 53 111 88c0 45 -32 70 -62 82c-29 12 -80 16 -114 26c-43 13 -102 49 -102 116c0 49 22 123 159 123c48 0 72 -12 96 -28c10 10 25 26 36 26s12 -12 12 -21v-100c0 -17 -5 -25 -12 -25
c-3 0 -7 1 -10 4c-10 10 6 124 -122 124c-94 0 -110 -45 -110 -74c0 -78 116 -76 171 -93c51 -16 108 -60 108 -134c0 -134 -127 -134 -129 -136v-44c12 -2 83 -15 83 -72c0 -62 -77 -78 -223 -78h-14v23h12c66 0 154 3 154 55c0 22 -17 52 -82 55v64c-31 7 -49 18 -73 40
c-18 -21 -33 -42 -45 -42c-10 0 -11 11 -11 20z" />
    <glyph glyph-name="Scaron" unicode="&#x160;" horiz-adv-x="555" 
d="M125 919l11 16h1c106 -62 129 -79 142 -79c9 0 96 56 140 79l11 -16c-143 -122 -146 -125 -153 -125c-8 0 -9 3 -152 125zM56 2v200c0 18 0 25 13 25c3 0 11 0 12 -10c1 -36 4 -100 62 -154c53 -49 129 -54 158 -54c84 0 134 72 134 143c0 33 -10 66 -31 92
c-28 37 -58 44 -85 51c-70 17 -121 29 -132 33c-78 27 -131 100 -131 183c0 106 84 194 195 194c89 0 130 -41 160 -70l35 57c7 12 8 13 15 13c11 0 11 -7 11 -24v-201c0 -19 0 -24 -13 -24c-11 0 -11 6 -12 12c-6 45 -28 209 -195 209c-78 0 -132 -61 -132 -131
c0 -58 39 -112 101 -127l128 -31c84 -20 150 -102 150 -202c0 -110 -80 -208 -197 -208c-89 0 -153 36 -184 70c-33 -53 -36 -56 -36 -57c-7 -11 -8 -13 -15 -13c-11 0 -11 7 -11 24z" />
    <glyph glyph-name="scaron" unicode="&#x161;" horiz-adv-x="394" 
d="M33 11v125c0 16 0 26 7 30c5 3 10 2 14 -1c15 -12 16 -153 146 -153c80 0 111 35 111 88c0 45 -33 71 -63 83c-50 20 -155 11 -201 88c-9 15 -14 31 -14 53c0 49 22 123 159 123c48 0 72 -12 96 -28c10 10 25 26 36 26s12 -12 12 -21v-100c0 -17 -6 -25 -13 -25
c-3 0 -6 1 -9 4c-10 10 6 124 -122 124c-79 0 -110 -30 -110 -74c0 -74 107 -76 164 -91c48 -13 114 -54 114 -136c0 -49 -18 -137 -159 -137c-58 0 -86 20 -112 44c-18 -21 -33 -42 -45 -42c-10 0 -11 11 -11 20zM31 631l13 15c134 -90 133 -90 140 -90c8 0 13 4 141 90
l12 -15l-152 -147h-1z" />
    <glyph glyph-name="Tcommaaccent" unicode="&#x162;" horiz-adv-x="722" 
d="M35 452l20 226h610l20 -226h-25c-12 133 -19 195 -164 195h-33c-41 0 -58 0 -58 -38v-531c0 -43 22 -47 123 -47h22v-31l-155 3v-57c13 -2 83 -14 83 -72c0 -62 -78 -78 -223 -78h-13v23h12c95 0 154 10 154 54c0 22 -17 53 -83 56v74l-155 -3v31h23c100 0 123 4 123 47
c0 4 -1 8 -1 12v519c0 38 -16 38 -57 38h-33c-142 0 -153 -56 -165 -195h-25z" />
    <glyph glyph-name="tcommaaccent" unicode="&#x163;" horiz-adv-x="389" 
d="M18 400v22c103 6 129 117 130 193h25v-185h142v-30h-142v-278c0 -38 3 -73 28 -94c10 -8 25 -13 38 -13c41 0 64 43 67 95c1 10 1 18 1 28v43h25v-50c0 -68 -19 -107 -57 -132v-53c15 -3 83 -14 83 -72c0 -73 -123 -78 -197 -78h-39v23h12c95 0 153 11 153 55
c0 22 -17 52 -82 55v62h-1c-101 15 -101 96 -101 145v264h-85z" />
    <glyph glyph-name="Tcaron" unicode="&#x164;" horiz-adv-x="722" 
d="M208 919l11 16h1c106 -62 129 -79 142 -79c9 0 97 56 140 79l11 -16c-143 -122 -146 -125 -153 -125c-8 0 -9 3 -152 125zM36 452l19 225h611l19 -225h-25c-14 161 -29 194 -180 194c-19 0 -46 0 -57 -2c-18 -4 -18 -18 -18 -38v-527c0 -34 0 -48 105 -48h40v-31
c-41 3 -144 3 -190 3s-148 0 -189 -3v31h40c105 0 105 14 105 48v527c0 23 0 34 -21 38c-10 2 -36 2 -54 2c-151 0 -166 -33 -180 -194h-25z" />
    <glyph glyph-name="tcaron" unicode="&#x165;" horiz-adv-x="389" 
d="M18 400v22c103 6 129 118 130 193h25v-185h142v-30h-142v-278c0 -38 3 -73 28 -94c10 -8 25 -13 38 -13c41 0 64 43 67 95c1 10 1 18 1 28v43h25v-50c0 -110 -55 -142 -100 -142c-103 0 -129 65 -129 138v273h-85zM263 668c0 26 18 52 53 52c39 0 66 -38 66 -84
c0 -91 -76 -149 -92 -149c-3 0 -11 2 -11 10c0 15 80 45 80 140c-6 -7 -18 -22 -44 -22c-31 0 -52 24 -52 53z" />
    <glyph glyph-name="Tbar" unicode="&#x166;" horiz-adv-x="722" 
d="M36 452l19 225h611l19 -225h-25c-14 161 -29 194 -180 194c-74 0 -75 -1 -75 -40v-240h107c15 0 29 -1 29 -16c0 -14 -13 -16 -26 -16h-110v-255c0 -34 0 -48 105 -48h40v-31c-41 3 -144 3 -190 3s-148 0 -189 -3v31h40c105 0 105 14 105 48v255h-110c-14 0 -25 2 -25 16
s12 16 32 16h103v240c0 38 -1 40 -75 40c-151 0 -166 -33 -180 -194h-25z" />
    <glyph glyph-name="tbar" unicode="&#x167;" horiz-adv-x="388" 
d="M19 284c0 14 12 16 32 16h53v100h-85v22c98 4 128 111 129 193h25v-184h143v-31h-143v-100h114c15 0 29 -1 29 -16c0 -14 -13 -16 -26 -16h-117v-146c0 -17 0 -108 67 -108c37 0 67 38 67 112v55h25v-57c0 -64 -28 -135 -99 -135c-36 0 -129 12 -129 135v144h-60
c-14 0 -25 2 -25 16z" />
    <glyph glyph-name="Utilde" unicode="&#x168;" horiz-adv-x="750" 
d="M239 809c33 40 55 71 93 71c44 0 77 -36 121 -36c32 0 53 24 65 36l21 -18c-33 -40 -55 -71 -93 -71c-44 0 -77 36 -121 36c-32 0 -52 -24 -64 -36zM33 652v31c35 -3 110 -3 148 -3s112 0 147 3v-31h-24c-77 0 -79 -11 -79 -47v-381c0 -190 118 -215 165 -215
c95 0 192 80 192 222v347c0 27 0 74 -103 74v31c36 -1 84 -3 119 -3c34 0 82 2 118 3v-31c-103 0 -103 -45 -103 -78v-320c0 -40 0 -49 -3 -69c-17 -114 -107 -207 -222 -207c-136 0 -252 109 -252 250v377c0 36 -2 47 -79 47h-24z" />
    <glyph glyph-name="utilde" unicode="&#x169;" horiz-adv-x="555" 
d="M119 556c33 40 55 71 93 71c44 0 77 -36 121 -36c32 0 52 24 64 36l22 -18c-33 -40 -55 -70 -93 -70c-44 0 -77 35 -121 35c-32 0 -53 -24 -65 -36zM32 400v31l147 11v-332c0 -52 4 -99 88 -99c73 0 121 68 121 155v178c0 49 -8 56 -78 56v31l147 11v-355
c0 -49 8 -56 78 -56v-31l-144 -11v90c-29 -62 -73 -90 -129 -90c-152 0 -152 91 -152 169v150c0 89 0 92 -78 92z" />
    <glyph glyph-name="Umacron" unicode="&#x16a;" horiz-adv-x="750" 
d="M180 796v33h388v-33h-388zM33 652v31c35 -3 110 -3 148 -3s112 0 147 3v-31h-24c-77 0 -79 -11 -79 -47v-381c0 -190 118 -215 165 -215c95 0 192 80 192 222v347c0 27 0 74 -103 74v31c36 -1 84 -3 119 -3c34 0 82 2 118 3v-31c-103 0 -103 -45 -103 -78v-320
c0 -40 0 -49 -3 -69c-17 -114 -107 -207 -222 -207c-136 0 -252 109 -252 250v377c0 36 -2 47 -79 47h-24z" />
    <glyph glyph-name="umacron" unicode="&#x16b;" horiz-adv-x="555" 
d="M104 550v32h360v-32h-360zM32 400v31l147 11v-332c0 -52 4 -99 88 -99c73 0 121 68 121 155v178c0 49 -8 56 -78 56v31l147 11v-355c0 -49 8 -56 78 -56v-31l-144 -11v90c-29 -62 -73 -90 -129 -90c-152 0 -152 91 -152 169v150c0 89 0 92 -78 92z" />
    <glyph glyph-name="Ubreve" unicode="&#x16c;" horiz-adv-x="750" 
d="M224 891h23c6 -80 86 -100 127 -100s121 20 127 100h23c-2 -86 -75 -138 -150 -138s-148 52 -150 138zM33 652v31c35 -3 110 -3 148 -3s112 0 147 3v-31h-24c-77 0 -79 -11 -79 -47v-381c0 -190 118 -215 165 -215c95 0 192 80 192 222v347c0 27 0 74 -103 74v31
c36 -1 84 -3 119 -3c34 0 82 2 118 3v-31c-103 0 -103 -45 -103 -78v-320c0 -40 0 -49 -3 -69c-17 -114 -107 -207 -222 -207c-136 0 -252 109 -252 250v377c0 36 -2 47 -79 47h-24z" />
    <glyph glyph-name="ubreve" unicode="&#x16d;" horiz-adv-x="555" 
d="M134 639h23c6 -82 91 -98 128 -98c53 0 122 28 127 98h22c-4 -88 -77 -136 -150 -136c-70 0 -146 46 -150 136zM32 400v31l147 11v-332c0 -52 4 -99 88 -99c73 0 121 68 121 155v178c0 49 -8 56 -78 56v31l147 11v-355c0 -49 8 -56 78 -56v-31l-144 -11v90
c-29 -62 -73 -90 -129 -90c-152 0 -152 91 -152 169v150c0 89 0 92 -78 92z" />
    <glyph glyph-name="Uring" unicode="&#x16e;" horiz-adv-x="750" 
d="M308 822c0 49 42 91 96 91c48 0 96 -37 96 -92c0 -54 -48 -91 -96 -91c-49 0 -96 38 -96 92zM334 822c0 -55 36 -69 69 -69c57 0 71 36 71 69c0 55 -37 69 -70 69c-56 0 -70 -36 -70 -69zM33 652v31c35 -3 110 -3 148 -3s112 0 147 3v-31h-24c-77 0 -79 -11 -79 -47v-381
c0 -190 118 -215 165 -215c95 0 192 80 192 222v347c0 27 0 74 -103 74v31c36 -1 84 -3 119 -3c34 0 82 2 118 3v-31c-103 0 -103 -45 -103 -78v-320c0 -40 0 -49 -3 -69c-17 -114 -107 -207 -222 -207c-136 0 -252 109 -252 250v377c0 36 -2 47 -79 47h-24z" />
    <glyph glyph-name="uring" unicode="&#x16f;" horiz-adv-x="555" 
d="M187 580c0 40 38 81 95 81c59 0 96 -42 96 -81c0 -40 -38 -80 -95 -80c-46 0 -96 30 -96 80zM212 580c0 -22 8 -58 69 -58c52 0 72 23 72 58c0 22 -8 58 -69 58c-52 0 -72 -23 -72 -58zM32 400v31l147 11v-332c0 -52 4 -99 88 -99c73 0 121 68 121 155v178
c0 49 -8 56 -78 56v31l147 11v-355c0 -49 8 -56 78 -56v-31l-144 -11v90c-29 -62 -73 -90 -129 -90c-152 0 -152 91 -152 169v150c0 89 0 92 -78 92z" />
    <glyph glyph-name="Uhungarumlaut" unicode="&#x170;" horiz-adv-x="750" 
d="M244 765c153 95 154 97 168 97c20 0 34 -21 34 -37c0 -30 -37 -36 -42 -37c-119 -37 -135 -42 -150 -46zM411 765c153 95 154 97 168 97c20 0 34 -21 34 -37c0 -30 -37 -36 -42 -37c-119 -37 -135 -42 -150 -46zM33 652v31c35 -3 110 -3 148 -3s112 0 147 3v-31h-24
c-77 0 -79 -11 -79 -47v-381c0 -190 118 -215 165 -215c95 0 192 80 192 222v347c0 27 0 74 -103 74v31c36 -1 84 -3 119 -3c34 0 82 2 118 3v-31c-103 0 -103 -45 -103 -78v-320c0 -40 0 -49 -3 -69c-17 -114 -107 -207 -222 -207c-136 0 -252 109 -252 250v377
c0 36 -2 47 -79 47h-24z" />
    <glyph glyph-name="uhungarumlaut" unicode="&#x171;" horiz-adv-x="555" 
d="M331 510c125 121 131 132 150 132c21 0 35 -21 35 -37c0 -23 -23 -32 -35 -39c-108 -61 -121 -69 -135 -76zM164 510c125 121 131 132 150 132c21 0 35 -21 35 -37c0 -23 -23 -32 -35 -39c-108 -61 -121 -69 -135 -76zM32 400v31l147 11v-332c0 -52 4 -99 88 -99
c73 0 121 68 121 155v178c0 49 -8 56 -78 56v31l147 11v-355c0 -49 8 -56 78 -56v-31l-144 -11v90c-29 -62 -73 -90 -129 -90c-152 0 -152 91 -152 169v150c0 89 0 92 -78 92z" />
    <glyph glyph-name="Uogonek" unicode="&#x172;" horiz-adv-x="750" 
d="M33 652v31c35 -3 110 -3 148 -3s112 0 147 3v-31h-24c-77 0 -79 -11 -79 -47v-381c0 -190 118 -215 165 -215c95 0 192 80 192 222v347c0 27 0 74 -103 74v31c36 -1 84 -3 119 -3c34 0 82 2 118 3v-31c-103 0 -103 -45 -103 -78v-320c0 -40 0 -49 -3 -69
c-17 -114 -107 -207 -222 -207c-8 0 -15 1 -22 1c-21 -21 -38 -43 -38 -73c0 -46 45 -77 82 -77c55 0 63 55 77 55c4 0 9 -2 9 -11c0 -24 -36 -90 -105 -90c-52 0 -108 37 -108 99c0 21 8 58 52 102c-112 23 -199 121 -199 244v377c0 36 -2 47 -79 47h-24z" />
    <glyph glyph-name="uogonek" unicode="&#x173;" horiz-adv-x="555" 
d="M32 400v31l147 11v-332c0 -52 4 -99 88 -99c73 0 121 68 121 155v178c0 49 -8 56 -78 56v31l147 11v-355c0 -49 8 -56 78 -56v-31l-106 -8c-24 -19 -52 -50 -52 -86c0 -46 45 -77 82 -77c55 0 63 55 77 55c4 0 9 -2 9 -11c0 -24 -36 -90 -105 -90c-52 0 -108 37 -108 99
c0 22 8 62 59 108v89c-29 -62 -73 -90 -129 -90c-152 0 -152 91 -152 169v150c0 89 0 92 -78 92z" />
    <glyph glyph-name="Wcircumflex" unicode="&#x174;" horiz-adv-x="1027" 
d="M378 761l134 141l134 -141l-18 -17l-116 105l-116 -105zM18 652v31c41 -1 84 -3 122 -3s106 0 142 3v-31c-26 0 -84 0 -84 -30c0 -3 1 -10 2 -13l161 -492l139 429l-22 70c-12 36 -33 36 -90 36v31c41 -1 84 -3 122 -3s106 0 142 3v-31c-26 0 -84 0 -84 -30
c0 -5 2 -11 3 -15l160 -490l150 462c2 6 5 14 5 20c0 19 -20 52 -87 53v31c26 -1 90 -3 119 -3c30 0 61 1 91 3v-31c-39 0 -82 -10 -100 -67l-191 -587c-4 -13 -6 -20 -20 -20c-13 0 -16 10 -19 19l-166 509l-165 -508c-4 -13 -6 -20 -20 -20c-13 0 -16 10 -19 19l-200 613
c-12 37 -16 42 -91 42z" />
    <glyph glyph-name="wcircumflex" unicode="&#x175;" horiz-adv-x="722" 
d="M226 500l134 149h1l133 -149l-18 -18l-115 114h-1l-116 -114zM18 400v31c36 -2 89 -3 93 -3c23 0 79 2 109 3v-31c-20 0 -59 0 -59 -27c0 -4 0 -6 5 -18l95 -267l86 242c-7 19 -18 49 -23 55c-10 13 -26 15 -63 15v31c30 -2 59 -3 89 -3c24 0 75 2 104 3v-31
c-20 0 -59 0 -59 -27c0 -5 1 -7 5 -19l99 -279l91 256c5 13 5 15 5 21c0 29 -22 47 -58 48v31c19 -1 64 -3 93 -3c22 0 51 1 73 3v-31c-35 -1 -66 -14 -84 -64l-117 -328c-4 -10 -7 -19 -20 -19s-16 8 -20 19l-102 284l-101 -283c-5 -14 -7 -20 -20 -20s-16 8 -21 22
l-126 354c-12 32 -24 35 -74 35z" />
    <glyph glyph-name="Ycircumflex" unicode="&#x176;" horiz-adv-x="750" 
d="M240 761l134 141l134 -141l-18 -17l-116 105l-116 -105zM11 652v31c42 -2 88 -3 130 -3c39 0 112 0 148 3v-31c-45 0 -70 -4 -70 -25c0 -5 0 -7 7 -17l181 -295l165 268c4 6 10 19 10 30c0 20 -16 39 -57 39v31c26 -1 84 -3 115 -3c27 0 67 1 98 3v-31
c-32 0 -91 -4 -128 -65l-193 -314v-193c0 -39 3 -49 80 -49h23v-31c-36 3 -107 3 -146 3s-110 0 -146 -3v31h24c77 0 79 11 79 47v195l-210 342c-16 26 -24 37 -92 37h-18z" />
    <glyph glyph-name="ycircumflex" unicode="&#x177;" horiz-adv-x="527" 
d="M129 500l134 149h1l133 -149l-18 -18l-115 114h-1l-116 -114zM19 -124c0 30 22 43 42 43c23 0 42 -16 42 -42c0 -16 -8 -38 -39 -42c19 -18 42 -18 47 -18c64 0 92 69 114 124c6 13 20 46 25 59l-150 365c-14 35 -33 35 -81 35v31c30 -2 70 -3 97 -3c17 0 83 2 109 3v-31
c-19 0 -56 0 -56 -26c0 -4 2 -8 6 -18l111 -269l101 246c5 12 6 14 6 24c0 25 -16 42 -47 43v31c22 -1 69 -3 87 -3c23 0 52 1 75 3v-31c-16 0 -67 -1 -93 -64l-176 -427c-24 -57 -65 -114 -128 -114c-50 0 -92 36 -92 81z" />
    <glyph glyph-name="Ydieresis" unicode="&#x178;" horiz-adv-x="750" 
d="M225 813c0 27 21 53 52 53c26 0 53 -22 53 -53s-27 -52 -53 -52c-31 0 -52 26 -52 52zM419 813c0 31 25 53 52 53c32 0 53 -26 53 -52c0 -27 -22 -53 -52 -53c-26 0 -53 21 -53 52zM11 652v31c42 -2 88 -3 130 -3c39 0 112 0 148 3v-31c-45 0 -70 -4 -70 -25
c0 -5 0 -7 7 -17l181 -295l165 268c4 6 10 19 10 30c0 20 -16 39 -57 39v31c26 -1 84 -3 115 -3c27 0 67 1 98 3v-31c-32 0 -91 -4 -128 -65l-193 -314v-193c0 -39 3 -49 80 -49h23v-31c-36 3 -107 3 -146 3s-110 0 -146 -3v31h24c77 0 79 11 79 47v195l-210 342
c-16 26 -24 37 -92 37h-18z" />
    <glyph glyph-name="Zacute" unicode="&#x179;" horiz-adv-x="611" 
d="M230 765c153 95 154 97 168 97c20 0 34 -21 34 -37c0 -30 -37 -36 -42 -37c-119 -37 -135 -42 -150 -46zM56 17c0 8 0 9 7 20l389 615h-157c-164 0 -194 -81 -201 -194h-25l11 225h448c20 0 26 0 26 -16c0 -7 0 -8 -7 -19l-388 -614h164c185 0 204 94 212 233h25
l-17 -267h-461c-21 0 -26 0 -26 17z" />
    <glyph glyph-name="zacute" unicode="&#x17a;" horiz-adv-x="444" 
d="M158 510c125 121 131 132 150 132c21 0 35 -21 35 -37c0 -23 -23 -32 -35 -39c-108 -61 -121 -69 -135 -76zM28 14c0 5 0 7 9 18l279 377h-114c-110 0 -129 -37 -135 -139h-25l11 161h320c18 0 26 0 26 -13c0 -4 0 -6 -9 -17l-278 -376h118c116 0 137 44 146 162h25
l-17 -187h-330c-19 0 -26 0 -26 14z" />
    <glyph glyph-name="Zdotaccent" unicode="&#x17b;" horiz-adv-x="611" 
d="M280 819c0 31 26 53 53 53c28 0 52 -22 52 -53s-26 -52 -52 -52c-31 0 -53 25 -53 52zM56 17c0 8 0 9 7 20l389 615h-157c-164 0 -194 -81 -201 -194h-25l11 225h448c20 0 26 0 26 -16c0 -7 0 -8 -7 -19l-388 -614h164c185 0 204 94 212 233h25l-17 -267h-461
c-21 0 -26 0 -26 17z" />
    <glyph glyph-name="zdotaccent" unicode="&#x17c;" horiz-adv-x="444" 
d="M182 615c0 31 26 53 53 53c28 0 52 -22 52 -53s-26 -52 -52 -52c-31 0 -53 25 -53 52zM28 14c0 5 0 7 9 18l279 377h-114c-110 0 -129 -37 -135 -139h-25l11 161h320c18 0 26 0 26 -13c0 -4 0 -6 -9 -17l-278 -376h118c116 0 137 44 146 162h25l-17 -187h-330
c-19 0 -26 0 -26 14z" />
    <glyph glyph-name="Zcaron" unicode="&#x17d;" horiz-adv-x="611" 
d="M142 919l11 16h1c106 -62 130 -79 143 -79c9 0 96 56 139 79l11 -16c-143 -122 -145 -125 -152 -125c-8 0 -10 3 -153 125zM56 17c0 8 0 9 7 20l389 615h-157c-164 0 -194 -81 -201 -194h-25l11 225h448c20 0 26 0 26 -16c0 -7 0 -8 -7 -19l-388 -614h164
c185 0 204 94 212 233h25l-17 -267h-461c-21 0 -26 0 -26 17z" />
    <glyph glyph-name="zcaron" unicode="&#x17e;" horiz-adv-x="444" 
d="M61 631l13 15c134 -90 133 -90 140 -90c8 0 13 4 141 90l12 -15l-152 -147h-1zM28 14c0 5 0 7 9 18l279 377h-114c-110 0 -129 -37 -135 -139h-25l11 161h320c18 0 26 0 26 -13c0 -4 0 -6 -9 -17l-278 -376h118c116 0 137 44 146 162h25l-17 -187h-330
c-19 0 -26 0 -26 14z" />
    <glyph glyph-name="longs" unicode="&#x17f;" horiz-adv-x="305" 
d="M33 400v31h79v115c0 106 85 159 155 159c53 0 90 -33 90 -70c0 -24 -15 -44 -44 -44c-27 0 -43 20 -43 43c0 25 18 38 30 42c-15 7 -30 7 -33 7c-44 0 -93 -48 -93 -136c0 0 3 -71 3 -116c0 -46 2 -101 2 -153c0 -105 -2 -200 -2 -200c0 -36 3 -47 77 -47h21v-31
c-40 3 -87 3 -127 3c-28 0 -75 -2 -114 -3v31c67 0 78 0 78 45v324h-79z" />
    <glyph glyph-name="uni0180" unicode="&#x180;" horiz-adv-x="556" 
d="M6 548c0 12 10 15 21 15h78v27c0 30 2 54 -35 60c-14 2 -29 3 -43 3v31l145 11v-132h115c13 0 26 -2 26 -16s-13 -15 -26 -15h-115v-97l1 -58c33 39 79 64 136 64c111 0 213 -95 213 -225c0 -134 -111 -227 -223 -227c-79 0 -118 54 -132 73l-37 -62h-25v532h-68
c-20 0 -31 1 -31 16zM175 116c0 -51 57 -104 120 -104c45 0 86 25 111 63c27 40 32 91 32 138c0 68 -8 113 -34 150c-28 39 -64 55 -100 55c-48 0 -95 -28 -120 -66c-10 -15 -9 -20 -9 -35v-201z" />
    <glyph glyph-name="uni0181" unicode="&#x181;" horiz-adv-x="818" 
d="M21 578c0 63 71 105 154 105h338c130 0 222 -82 222 -169c0 -74 -69 -138 -166 -157c111 -12 193 -87 193 -174c0 -94 -90 -183 -223 -183h-392v31h24c77 0 79 11 79 47v527c0 36 -2 47 -79 47c-73 0 -95 -22 -105 -30c40 -4 47 -32 47 -47c0 -25 -21 -45 -46 -45
c-27 0 -46 20 -46 48zM333 71c0 -33 2 -40 49 -40h125c103 0 155 82 155 153c0 67 -42 160 -141 160h-188v-273zM333 366h145c111 0 160 84 160 148c0 53 -35 138 -132 138h-124c-47 0 -49 -7 -49 -40v-246z" />
    <glyph glyph-name="uni0182" unicode="&#x182;" horiz-adv-x="683" 
d="M35 0v31h24c77 0 79 11 79 47v527c0 36 -2 47 -79 47h-24v31h490l14 -170h-25c-9 101 -15 139 -126 139h-82c-77 0 -79 -11 -79 -47v-238h169c120 0 228 -81 228 -181c0 -98 -99 -186 -236 -186h-353zM224 71c0 -33 2 -40 49 -40h89c159 0 159 106 159 155
c0 47 0 155 -159 155h-138v-270z" />
    <glyph glyph-name="uni0183" unicode="&#x183;" horiz-adv-x="514" 
d="M65 0v683h382l14 -170h-25c-9 101 -15 139 -126 139h-100c-77 0 -79 -11 -79 -47v-228c16 18 59 65 137 65c114 0 212 -99 212 -226c0 -129 -104 -227 -223 -227c-74 0 -116 50 -131 73l-36 -62h-25zM134 114c0 -18 0 -21 14 -42c24 -37 60 -61 105 -61
c54 0 92 33 113 64c29 45 31 105 31 142c0 41 -3 98 -29 139c-24 38 -60 64 -105 64c-24 0 -79 -8 -118 -64c-11 -16 -11 -17 -11 -36v-206z" />
    <glyph glyph-name="uni0184" unicode="&#x184;" horiz-adv-x="682" 
d="M35 0v31h24c77 0 79 11 79 47v289l-103 138l192 178v-316h169c120 0 228 -81 228 -181c0 -98 -99 -186 -236 -186h-353zM224 71c0 -33 2 -40 49 -40h89c159 0 159 106 159 155c0 47 0 155 -159 155h-138v-270z" />
    <glyph glyph-name="uni0185" unicode="&#x185;" horiz-adv-x="556" 
d="M28 505l145 178v-306c16 18 59 65 137 65c114 0 212 -99 212 -226c0 -129 -104 -227 -223 -227c-74 0 -116 50 -131 73l-36 -62h-25v370zM176 114c0 -18 0 -21 14 -42c24 -37 60 -61 105 -61c54 0 92 33 113 64c29 45 31 105 31 142c0 41 -3 98 -29 139
c-24 38 -60 64 -105 64c-24 0 -79 -8 -118 -64c-11 -16 -11 -17 -11 -36v-206z" />
    <glyph glyph-name="uni0186" unicode="&#x186;" horiz-adv-x="722" 
d="M56 8v236c0 4 1 7 2 11c0 4 5 10 14 10c22 0 13 -30 30 -81c23 -69 83 -175 208 -175c92 0 254 69 254 324c0 70 -9 181 -71 253c-74 86 -165 90 -188 90c-109 0 -209 -82 -222 -212c-2 -11 1 -30 -14 -30h-3c-1 0 -2 1 -3 1s-6 6 -6 10c-1 4 0 7 0 11
c0 112 103 250 257 250h5c179 0 348 -152 348 -362c0 -230 -188 -365 -344 -365c-33 0 -113 1 -189 86c-26 -39 -54 -84 -68 -84c-6 0 -10 8 -10 27z" />
    <glyph glyph-name="uni0187" unicode="&#x187;" horiz-adv-x="756" 
d="M56 342c0 204 161 363 348 363c96 0 147 -50 184 -86c50 75 51 76 52 77c1 143 63 173 105 173c43 0 84 -30 84 -71c0 -28 -21 -46 -46 -46s-46 18 -46 45s19 39 32 45c-8 2 -17 4 -26 4c-31 0 -78 -23 -78 -165v-237c0 -21 0 -24 -16 -24c-14 0 -14 3 -16 17
c-21 146 -109 237 -218 237c-61 0 -256 -34 -256 -333c0 -298 196 -332 257 -332c109 0 216 82 224 225c1 10 1 16 12 16c13 0 13 -7 13 -17c0 -116 -98 -255 -261 -255c-186 0 -348 157 -348 364z" />
    <glyph glyph-name="uni0188" unicode="&#x188;" 
d="M33 216c0 119 88 231 219 231c77 0 114 -33 128 -45v68c0 147 63 177 105 177c43 0 84 -31 84 -71c0 -28 -21 -46 -46 -46s-46 18 -46 45s19 39 32 45c-9 2 -17 4 -26 4c-31 0 -78 -22 -78 -165v-106c0 -7 0 -15 -1 -22c-3 -18 -20 -37 -45 -37c-24 0 -46 19 -46 46
c0 26 17 42 47 46c-10 8 -43 35 -106 35c-59 0 -137 -44 -137 -205c0 -153 85 -201 142 -201c41 0 100 19 127 93c3 7 5 15 11 19c10 5 19 -1 17 -14c-5 -31 -49 -124 -164 -124c-113 0 -217 93 -217 227z" />
    <glyph glyph-name="uni0189" unicode="&#x189;" horiz-adv-x="763" 
d="M35 0v31h24c77 0 79 11 79 47v229l-68 -56l-20 24l88 72v258c0 36 -2 47 -79 47h-24v31h366c171 0 306 -157 306 -347c0 -188 -138 -336 -306 -336h-366zM224 71c0 -33 2 -40 49 -40h101c101 0 158 58 178 85c36 49 55 109 55 220c0 78 -9 164 -52 223
c-51 71 -120 93 -182 93h-100c-47 0 -49 -7 -49 -40v-194l68 56l20 -24l-88 -72v-307z" />
    <glyph glyph-name="uni018A" unicode="&#x18a;" horiz-adv-x="874" 
d="M21 578c0 63 71 105 154 105h337c171 0 306 -157 306 -347c0 -188 -138 -336 -306 -336h-366v31h24c77 0 79 11 79 47v527c0 36 -2 47 -79 47c-73 0 -94 -22 -104 -30c40 -4 47 -32 47 -47c0 -25 -21 -45 -46 -45c-27 0 -46 20 -46 48zM335 71c0 -33 2 -40 49 -40h101
c101 0 158 58 178 85c36 49 55 109 55 220c0 78 -9 164 -52 223c-51 71 -120 93 -182 93h-100c-47 0 -49 -7 -49 -40v-541z" />
    <glyph glyph-name="uni018B" unicode="&#x18b;" horiz-adv-x="668" 
d="M42 186c0 100 108 181 228 181h169v238c0 36 -2 47 -79 47h-82c-111 0 -117 -38 -126 -139h-25l14 170h490v-31h-24c-77 0 -79 -11 -79 -47v-527c0 -36 2 -47 79 -47h24v-31h-353c-137 0 -236 88 -236 186zM145 186c0 -49 0 -155 159 -155h89c47 0 49 7 49 40v270h-138
c-159 0 -159 -108 -159 -155z" />
    <glyph glyph-name="uni018C" unicode="&#x18c;" horiz-adv-x="555" 
d="M34 215c0 129 105 227 223 227c54 0 97 -26 126 -62v226c-2 39 -12 46 -79 46h-100c-111 0 -117 -38 -126 -139h-25l14 170h382v-596c0 -49 8 -56 78 -56v-31l-147 -11v66c-25 -32 -70 -66 -134 -66c-114 0 -212 99 -212 226zM117 214c0 -41 3 -98 29 -139
c24 -38 60 -64 105 -64c43 0 88 22 118 70c11 17 11 19 11 37v205c0 18 0 20 -11 37c-31 45 -73 60 -108 60c-54 0 -92 -33 -113 -64c-29 -45 -31 -105 -31 -142z" />
    <glyph glyph-name="uni018D" unicode="&#x18d;" horiz-adv-x="495" 
d="M58 335c0 120 86 213 191 213c114 0 198 -107 198 -233c0 -91 -45 -179 -120 -214c-9 -4 -18 -7 -27 -11c51 -34 140 -59 140 -127c0 -28 -17 -83 -85 -83c-75 0 -257 57 -257 113c0 11 8 29 34 29c55 0 85 -63 114 -78c53 -28 98 -28 125 -28c39 0 46 37 46 52
c0 52 -152 101 -217 137c-72 40 -142 119 -142 230zM128 369c0 -140 129 -256 148 -256s96 37 96 195c0 90 -25 214 -126 214c-71 0 -118 -70 -118 -153z" />
    <glyph glyph-name="uni018E" unicode="&#x18e;" horiz-adv-x="680" 
d="M28 258h25c25 -165 58 -224 209 -227h150c26 0 43 3 43 38v269h-69c-69 0 -114 -1 -126 -65c-3 -17 -3 -35 -3 -52h-25v264h25c0 -61 5 -107 72 -114c19 -2 38 -2 57 -2h69v244c0 29 -12 36 -37 36h-6c-28 1 -55 1 -83 1h-36c-9 0 -19 -1 -28 -1
c-107 -4 -124 -29 -140 -49c-35 -44 -40 -114 -44 -145h-25l27 225h564v-30c-76 0 -103 -2 -103 -42v-534c0 -35 15 -43 77 -43h26v-31h-577z" />
    <glyph glyph-name="uni018F" unicode="&#x18f;" horiz-adv-x="676" 
d="M27 318c0 19 10 21 26 21h477c0 50 3 242 -141 316c-29 15 -57 19 -81 19c-107 0 -200 -80 -220 -190c-1 -5 -2 -10 -4 -14s-9 -8 -16 -8s-13 4 -13 19v199c0 10 0 24 11 24c10 0 32 -26 66 -71c41 35 91 72 178 72c170 0 323 -153 323 -366c0 -201 -139 -361 -312 -361
c-210 0 -294 168 -294 340zM122 314c2 -254 121 -311 201 -311c83 0 204 73 207 311h-408z" />
    <glyph glyph-name="uni0190" unicode="&#x190;" horiz-adv-x="611" 
d="M41 175c0 79 69 148 168 175l26 7c-90 21 -166 85 -166 164c0 105 123 185 264 185s241 -81 241 -174c0 -43 -33 -51 -46 -51c-28 0 -46 22 -46 46c0 12 5 46 52 46c-46 96 -169 101 -197 101c-103 0 -176 -73 -176 -154c0 -57 42 -153 169 -153h61c9 0 22 -1 23 -11
c0 -9 -6 -12 -22 -12h-64c-21 0 -41 0 -61 -5c-62 -15 -131 -74 -131 -163c0 -86 70 -167 175 -167s230 51 242 159c1 8 1 19 7 22c9 5 19 -1 19 -15c0 -102 -112 -197 -272 -197c-162 0 -266 100 -266 197z" />
    <glyph glyph-name="uni0191" unicode="&#x191;" horiz-adv-x="652" 
d="M-29 -126c0 30 23 47 45 47c24 0 46 -18 46 -46c0 -18 -9 -38 -36 -45c17 -9 33 -12 47 -12c60 0 63 92 63 189v595c0 36 -2 47 -79 47h-24v31h549l28 -225h-25c-16 138 -41 194 -191 194h-120c-47 0 -49 -7 -49 -40v-253h86c96 0 106 33 106 117h25v-265h-25
c0 85 -10 117 -106 117h-86v-318c-3 -185 -99 -212 -150 -212c-50 0 -104 28 -104 79z" />
    <glyph glyph-name="florin" unicode="&#x192;" 
d="M12 -139c0 35 24 55 50 55c16 0 34 -10 34 -32c0 -20 -14 -44 -44 -49c10 -15 30 -18 40 -18c34 0 49 35 84 210l74 373h-62c-16 0 -26 0 -26 11c0 20 12 20 28 20h66c21 114 37 274 150 274c42 0 82 -23 82 -66c0 -35 -24 -55 -50 -55c-16 0 -34 10 -34 32
c0 20 14 44 44 49c-12 16 -34 18 -42 18c-43 0 -51 -67 -86 -252h78c16 0 24 0 24 -13c0 -18 -10 -18 -26 -18h-82l-70 -359c-8 -36 -48 -246 -152 -246c-38 0 -80 21 -80 66z" />
    <glyph glyph-name="uni0193" unicode="&#x193;" horiz-adv-x="784" 
d="M56 342c0 205 162 363 348 363c99 0 153 -54 185 -86c50 75 51 76 51 77c1 143 63 173 105 173c43 0 84 -30 84 -71c0 -28 -21 -46 -46 -46s-46 18 -46 45s19 39 32 45c-8 2 -17 4 -26 4c-30 0 -74 -21 -78 -149c1 -4 1 -9 1 -16v-237c0 -21 0 -24 -16 -24
c-14 0 -14 3 -16 17c-21 147 -111 237 -218 237c-60 0 -257 -33 -257 -332c0 -298 198 -333 263 -333c28 0 155 9 155 121v64c0 37 -3 48 -93 48h-32v31c36 -3 121 -3 161 -3c30 0 85 2 122 3v-31c-65 0 -69 -5 -69 -44v-174c0 -15 0 -23 -9 -23c-11 0 -51 40 -64 62
c-34 -59 -114 -85 -187 -85c-190 0 -350 159 -350 364z" />
    <glyph glyph-name="uni0194" unicode="&#x194;" horiz-adv-x="751" 
d="M19 652v31c36 -1 79 -3 127 -3c38 0 107 0 143 3v-31c-25 0 -82 0 -82 -29c0 -2 0 -4 6 -18l191 -433l183 410c2 6 5 12 5 20c0 23 -21 49 -73 50v31c26 -1 84 -3 114 -3c26 0 66 1 97 3v-31c-68 -1 -93 -31 -109 -67l-196 -454c52 -81 93 -135 93 -203
c0 -76 -56 -145 -132 -145c-64 0 -106 58 -106 132c0 33 4 78 66 164l-229 535c-14 38 -33 38 -98 38zM309 -88c0 -70 38 -100 73 -100c40 0 59 35 59 77c0 55 -40 104 -71 156c-55 -68 -61 -102 -61 -133z" />
    <glyph glyph-name="uni0195" unicode="&#x195;" horiz-adv-x="767" 
d="M31 0v31h10c56 0 67 7 68 40v525c0 51 -15 55 -64 57h-14v31l145 11v-349c15 33 58 95 145 95c134 0 136 -97 136 -152v-31c2 -198 72 -246 121 -246c86 0 129 119 129 257c0 85 -75 86 -75 130c0 24 20 42 42 42c50 0 58 -75 58 -146v-8c0 -233 -82 -298 -156 -298
c-76 0 -189 53 -189 286v18c0 49 0 125 -74 125c-51 0 -134 -41 -134 -166v-176c0 -38 6 -45 70 -45h7v-31c-39 2 -77 3 -116 3h-4c-14 0 -47 0 -105 -3z" />
    <glyph glyph-name="uni0196" unicode="&#x196;" horiz-adv-x="417" 
d="M33 652v31l167 11v-513c0 -164 58 -175 85 -175h10c22 0 65 22 65 87l30 1c0 -81 -49 -119 -97 -119c-116 0 -182 69 -182 210v411c0 49 -8 56 -78 56z" />
    <glyph glyph-name="uni0197" unicode="&#x197;" horiz-adv-x="361" 
d="M28 0v31h26c79 0 82 11 82 47v248h-108v32h108v247c0 36 -3 47 -82 47h-26v31c35 -3 114 -3 153 -3c38 0 117 0 152 3v-31h-26c-79 0 -82 -11 -82 -47v-247h108v-32h-108v-248c0 -36 3 -47 82 -47h26v-31c-35 3 -114 3 -153 3c-38 0 -117 0 -152 -3z" />
    <glyph glyph-name="uni0198" unicode="&#x198;" horiz-adv-x="765" 
d="M33 0v31h24c77 0 79 11 79 47v527c0 36 -2 47 -79 47h-24v31c35 -3 110 -3 148 -3s112 0 147 3v-31h-24c-77 0 -79 -11 -79 -47v-318l395 376c21 20 37 27 62 27c50 0 82 -27 82 -66c0 -33 -26 -45 -43 -45c-22 0 -44 18 -44 44c0 30 28 41 30 41c-1 1 -10 4 -24 4
c-13 0 -23 -3 -33 -10l-250 -239l231 -340c30 -44 51 -48 105 -48v-31c-42 2 -80 3 -115 3c-38 0 -108 0 -143 -3v31c20 0 59 0 59 30c0 12 -9 25 -15 34l-181 268l-116 -110v-175c0 -36 2 -47 79 -47h24v-31c-35 3 -110 3 -148 3s-112 0 -147 -3z" />
    <glyph glyph-name="uni0199" unicode="&#x199;" horiz-adv-x="528" 
d="M27 0v31h7c61 0 71 5 71 44v424c0 33 -1 108 76 167c35 26 77 39 120 39c75 0 140 -38 140 -96c0 -26 -15 -48 -46 -48c-24 0 -45 18 -45 46c0 12 5 42 44 46c-7 5 -37 30 -93 30c-58 0 -129 -49 -129 -178v-290c161 139 162 136 162 160c0 5 -2 20 -28 25v30l138 -2
l44 2v-30c-79 -4 -132 -60 -208 -125c14 -21 130 -186 146 -205c32 -39 51 -39 85 -39v-31c-29 2 -59 3 -89 3c-36 0 -71 -1 -107 -3v31c16 1 34 4 34 23c0 17 -2 19 -117 180c-55 -51 -62 -47 -63 -71v-65c0 -61 0 -67 74 -67h4v-31c-38 2 -75 3 -113 3
c-11 0 -43 0 -107 -3z" />
    <glyph glyph-name="uni019A" unicode="&#x19a;" horiz-adv-x="389" 
d="M50 353c0 14 12 16 31 16h79v220c0 60 -13 64 -78 64v31l145 11v-326h79c20 0 31 -2 31 -16s-11 -16 -32 -16c-6 0 -13 1 -21 1h-57v-266c1 -36 13 -41 71 -41h7v-31c-38 2 -77 3 -115 3c-22 0 -54 0 -108 -3v31h7c58 0 70 4 71 41v266h-85c-13 0 -25 1 -25 15z" />
    <glyph glyph-name="uni019b" unicode="&#x19b;" horiz-adv-x="528" 
d="M5 683c0 10 12 11 19 11h4c98 -4 121 -48 135 -74l77 -152c89 46 117 62 130 62c7 0 9 -4 13 -12c4 -7 7 -14 8 -22c-1 -11 -17 -18 -47 -33l-80 -40l24 -48l162 -315c28 -53 37 -49 37 -61c0 -8 -9 -10 -20 -10h-24c-32 0 -45 18 -70 66l-117 229l-136 -264
c-6 -12 -15 -32 -38 -32c-17 0 -35 16 -35 34c0 13 11 27 15 33l153 225c8 12 16 23 25 35l-38 75c-117 -60 -119 -62 -128 -62c-13 0 -24 26 -24 35c1 10 -2 6 128 73c-114 223 -108 222 -161 236c-5 1 -12 5 -12 11z" />
    <glyph glyph-name="uni019C" unicode="&#x19c;" horiz-adv-x="1056" 
d="M20 652v31c51 -2 103 -3 154 -3c57 0 99 2 141 3v-31h-16c-73 0 -86 -7 -87 -42l-1 -434c0 -85 13 -166 96 -166c84 0 175 83 175 238l1 361c-1 36 -13 43 -88 43h-14v31c51 -2 103 -3 154 -3c57 0 99 2 141 3v-31h-16c-73 0 -86 -7 -87 -42l-1 -434
c0 -85 15 -166 96 -166c83 0 176 83 176 238l1 361c-1 36 -14 43 -89 43h-14v31c51 -2 103 -3 154 -3c57 0 99 2 141 3v-31h-16c-73 0 -85 -7 -86 -42l-1 -537c1 -36 15 -42 88 -42h15v-31c-53 2 -102 3 -132 3c-28 0 -51 -2 -61 -3v115c-38 -81 -97 -138 -184 -138
c-59 0 -155 17 -174 146c-22 -57 -79 -146 -188 -146c-76 0 -119 30 -138 56c-38 54 -38 100 -38 227l1 349c-1 36 -14 43 -89 43h-14z" />
    <glyph glyph-name="uni019D" unicode="&#x19d;" horiz-adv-x="750" 
d="M-29 -126c0 30 23 47 45 47c24 0 46 -18 46 -46c0 -18 -9 -38 -36 -45c17 -9 27 -12 41 -12c61 0 69 94 69 192v617c0 21 1 25 -74 25h-29v31h170c19 0 20 -1 29 -13l353 -519v427c0 27 0 74 -103 74v31c35 -1 84 -3 117 -3s82 2 117 3v-31c-103 0 -103 -47 -103 -74
v-552c0 -19 0 -26 -14 -26c-7 0 -8 1 -17 13l-408 600c-4 6 -5 7 -10 12v-615c0 -190 -49 -215 -95 -215c-50 0 -98 28 -98 79z" />
    <glyph glyph-name="uni019E" unicode="&#x19e;" horiz-adv-x="528" 
d="M31 0v31h10c58 0 68 7 68 43v259c0 61 -8 67 -78 67v30l142 11v-60l1 -41c16 38 59 101 147 101c134 0 135 -100 135 -148v-414c0 -38 15 -43 74 -43h4v-31c-39 2 -77 3 -116 3h-4c-14 0 -47 0 -105 -3v31h8c56 0 70 5 70 41c0 4 -1 8 -1 11v424c0 78 -29 106 -73 106
c-42 0 -134 -33 -134 -165v-180c0 -37 13 -42 70 -42h7v-31c-37 2 -74 3 -111 3c-38 0 -76 -1 -114 -3z" />
    <glyph glyph-name="uni019F" unicode="&#x19f;" horiz-adv-x="777" 
d="M56 339c0 206 153 366 332 366c182 0 333 -162 333 -366c0 -202 -151 -361 -333 -361c-178 0 -332 156 -332 361zM159 321c11 -237 138 -317 230 -317c88 0 217 77 228 317h-458zM159 361h459c-3 249 -144 319 -230 319c-82 0 -226 -67 -229 -319z" />
    <glyph glyph-name="Ohorn" unicode="&#x1a0;" horiz-adv-x="778" 
d="M55 339c0 211 158 366 333 366c114 0 173 -59 190 -59c10 0 30 11 48 38c-3 0 -6 -1 -11 -1c-33 0 -54 23 -54 52c0 28 20 53 51 53c37 0 55 -34 55 -64c0 -41 -22 -84 -68 -100c66 -65 122 -154 122 -285c0 -208 -156 -361 -333 -361c-176 0 -333 152 -333 361zM158 355
c0 -270 138 -350 230 -350s230 81 230 350c0 247 -138 325 -230 325s-230 -78 -230 -325z" />
    <glyph glyph-name="ohorn" unicode="&#x1a1;" 
d="M27 213c0 122 93 234 222 234c58 0 107 -23 145 -57c24 8 40 20 54 41c-3 0 -7 -1 -12 -1c-43 0 -53 35 -53 53c0 28 21 52 51 52c36 0 54 -33 54 -64c0 -33 -17 -85 -74 -102c34 -43 57 -93 57 -155c0 -129 -103 -225 -223 -225c-124 0 -221 102 -221 224zM111 222
c0 -55 1 -126 50 -172c24 -22 55 -35 88 -35c65 0 99 44 108 58c29 44 30 98 30 141v12c0 75 -9 131 -55 169c-23 19 -53 29 -83 29c-51 0 -90 -29 -110 -60c-27 -42 -28 -91 -28 -142z" />
    <glyph glyph-name="uni01A2" unicode="&#x1a2;" horiz-adv-x="852" 
d="M55 339c0 206 153 366 332 366c73 0 140 -70 210 -70c88 0 138 71 175 71v-828c0 -36 3 -47 82 -47h26v-31c-35 3 -114 3 -153 3c-38 0 -117 0 -152 -3v31h26c79 0 82 11 82 47v727c0 11 -6 16 -14 16c-15 0 -37 -14 -47 -24c-20 -20 -22 -50 -22 -50v-489
c-57 -48 -136 -80 -213 -80c-178 0 -332 156 -332 361zM158 353c0 -261 134 -349 230 -349c73 0 103 44 123 69v541c-36 46 -75 66 -124 66c-83 0 -229 -68 -229 -327z" />
    <glyph glyph-name="uni01A3" unicode="&#x1a3;" horiz-adv-x="611" 
d="M38 219c0 133 115 229 230 229c47 0 91 -33 136 -33c57 0 113 33 137 33v-571c0 -45 11 -45 78 -45v-31c-37 1 -86 3 -111 3s-78 -2 -111 -3v31c67 0 78 0 78 45v507c-1 4 -3 5 -7 5c-12 0 -54 -21 -54 -52v-298c-36 -31 -88 -52 -146 -52c-114 0 -230 101 -230 232z
M121 228c0 -167 86 -217 148 -217c47 0 66 21 79 37v337c-23 30 -48 42 -80 42c-53 0 -147 -32 -147 -199z" />
    <glyph glyph-name="uni01A4" unicode="&#x1a4;" horiz-adv-x="791" 
d="M21 578c0 63 71 105 154 105h324c137 0 236 -88 236 -186c0 -100 -108 -181 -228 -181h-169v-238c0 -36 2 -47 79 -47h24v-31c-35 3 -110 3 -148 3s-112 0 -147 -3v31h24c77 0 79 11 79 47v527c0 36 -2 47 -79 47c-66 0 -94 -22 -104 -30c40 -4 47 -32 47 -47
c0 -25 -21 -45 -46 -45c-27 0 -46 20 -46 48zM335 342h138c159 0 159 108 159 155c0 49 0 155 -159 155h-89c-47 0 -49 -7 -49 -40v-270z" />
    <glyph glyph-name="uni01A5" unicode="&#x1a5;" horiz-adv-x="528" 
d="M0 -164h6c55 0 71 4 72 39v633c0 135 127 198 243 198c76 0 175 -20 175 -98c0 -30 -24 -47 -47 -47c-24 0 -45 20 -45 46c0 40 39 45 43 46c-19 11 -50 30 -126 30c-96 0 -176 -69 -176 -174v-132c53 63 120 64 137 64c110 0 212 -94 212 -225
c0 -135 -110 -227 -222 -227c-75 0 -112 47 -124 62v-160c0 -47 3 -55 70 -55h7v-31c-39 2 -77 3 -116 3h-4c-14 0 -47 0 -105 -3v31zM148 116c0 -51 56 -104 119 -104c45 0 87 25 112 63c27 40 32 90 32 137c0 68 -8 114 -34 151c-28 39 -64 55 -100 55
c-48 0 -95 -28 -120 -66c-10 -15 -9 -20 -9 -35v-201z" />
    <glyph glyph-name="uni01A6" unicode="&#x1a6;" horiz-adv-x="722" 
d="M35 0v31h24c77 0 79 11 79 47v527c0 36 -2 47 -79 47h-24v31c35 -3 110 -3 148 -3s112 0 147 3v-31h-24c-72 0 -79 -10 -79 -41c102 1 114 1 127 1c145 0 256 -44 256 -139c0 -78 -78 -109 -175 -133c55 -19 122 -73 122 -154c16 -235 10 -341 84 -341c25 0 60 18 66 89
c1 7 1 16 12 16c13 0 13 -11 13 -17c0 -28 -17 -110 -95 -110c-30 0 -85 5 -126 42s-41 133 -41 198c0 67 0 198 -38 234c-35 34 -77 34 -93 34h-115v-253c0 -36 2 -47 79 -47h24v-31c-36 3 -107 3 -146 3s-110 0 -146 -3zM224 353h111c148 0 172 51 172 120
c0 101 -86 107 -168 107h-35c-78 0 -80 0 -80 -40v-187z" />
    <glyph glyph-name="uni01A7" unicode="&#x1a7;" horiz-adv-x="555" 
d="M57 186c0 96 58 164 119 191c44 21 157 32 200 60c56 36 60 90 60 109c0 62 -45 131 -131 131c-179 0 -190 -186 -196 -212c0 -4 -10 -8 -11 -8s-4 1 -5 1c-7 3 -8 10 -8 17v217c1 7 5 12 11 12c10 0 13 -7 50 -69c31 36 82 71 159 71l27 -2c114 -16 169 -112 169 -191
c0 -99 -66 -163 -130 -184c-50 -16 -134 -31 -165 -44c-72 -30 -84 -101 -84 -134c0 -70 51 -143 131 -143c95 0 198 47 219 165l3 24c0 5 0 10 1 15c0 8 7 14 13 14s12 -5 12 -19v-215c-2 -8 -6 -13 -11 -13c-13 0 -39 46 -51 69c-22 -20 -73 -70 -182 -70
c-135 0 -200 112 -200 208z" />
    <glyph glyph-name="uni01A8" unicode="&#x1a8;" horiz-adv-x="394" 
d="M34 127c0 81 65 121 113 135c33 10 165 14 165 89c0 56 -61 75 -101 75h-11c-112 0 -116 -101 -116 -106c0 -10 -2 -21 -14 -21c-8 0 -12 11 -12 25v100c0 16 5 22 11 22c9 0 24 -14 37 -27c39 26 71 28 85 28c2 0 4 -1 5 -1c137 0 164 -73 164 -122
c0 -30 -15 -103 -136 -124c-40 -7 -142 -16 -142 -100c0 -35 20 -88 120 -88c129 9 124 146 138 153c3 2 6 3 8 3c7 0 13 -8 13 -17v-140c0 -13 -4 -21 -11 -21c-9 0 -20 12 -45 43c-26 -25 -52 -44 -110 -44c-95 0 -161 49 -161 138z" />
    <glyph glyph-name="uni01A9" unicode="&#x1a9;" horiz-adv-x="722" 
d="M56 667c0 15 11 16 22 16h560l28 -225h-26c-22 172 -80 194 -261 194h-210l196 -284c9 -13 14 -20 14 -26c0 -7 -6 -14 -17 -27l-242 -273h239c193 0 258 13 281 195h26l-28 -237h-561c-8 0 -20 2 -20 12c0 7 7 14 12 20l236 266c-10 13 -19 27 -28 41l-211 305
c-5 7 -10 15 -10 23z" />
    <glyph glyph-name="uni01AA" unicode="&#x1aa;" horiz-adv-x="332" 
d="M-1 604c0 52 35 101 89 101c66 0 111 -66 111 -159v-593c0 -90 17 -135 61 -135c18 0 32 6 44 12c-19 6 -36 18 -36 45c0 28 23 46 46 46c25 0 45 -20 45 -47c0 -40 -41 -79 -101 -79c-51 0 -126 37 -126 162v558c-12 -7 -27 -12 -44 -12c-53 0 -89 49 -89 101zM25 604
c0 -36 22 -79 63 -79c10 0 44 5 44 38v13c-1 33 0 106 -45 106c-39 0 -62 -41 -62 -78z" />
    <glyph glyph-name="uni01AB" unicode="&#x1ab;" horiz-adv-x="417" 
d="M18 400v22c103 6 129 117 130 193h25v-185h143v-30h-143v-271c0 -41 4 -80 32 -102c10 -8 22 -12 35 -12c40 0 64 44 67 95c1 9 0 19 0 28v43h26v-228c0 -120 -59 -158 -107 -158c-54 0 -100 35 -100 79c0 26 18 47 45 47c23 0 46 -18 46 -46s-18 -39 -37 -46
c17 -8 34 -11 47 -11c58 0 80 66 80 139v72c-25 -37 -57 -40 -74 -40c-58 0 -130 28 -130 139v272h-85z" />
    <glyph glyph-name="uni01AC" unicode="&#x1ac;" horiz-adv-x="722" 
d="M21 572c0 63 71 105 154 105h491l19 -225h-25c-14 161 -29 194 -180 194c-74 0 -75 -1 -75 -40v-527c0 -34 0 -48 105 -48h40v-31c-41 3 -144 3 -190 3s-148 0 -189 -3v31h40c105 0 105 14 105 48v527c0 38 -1 40 -75 40h-70c-73 0 -95 -22 -105 -30c40 -4 47 -32 47 -47
c0 -25 -21 -45 -46 -45c-27 0 -46 20 -46 48z" />
    <glyph glyph-name="uni01AD" unicode="&#x1ad;" horiz-adv-x="417" 
d="M18 400v30h88v36c0 38 3 61 20 94c12 22 48 76 121 76c63 0 113 -30 113 -76c0 -33 -26 -47 -45 -47c-27 0 -47 21 -47 46c0 27 19 37 32 44c-18 6 -35 10 -50 10c-72 0 -77 -94 -77 -147v-36h143v-30h-143v-271c0 -41 4 -80 32 -102c10 -8 22 -12 35 -12
c40 0 64 44 67 95c1 9 0 19 0 28v43h26v-51c0 -72 -28 -141 -100 -141c-44 0 -130 18 -130 139v272h-85z" />
    <glyph glyph-name="uni01AE" unicode="&#x1ae;" horiz-adv-x="722" 
d="M36 452l19 225h611l19 -225h-25c-14 161 -29 194 -180 194c-74 0 -75 -1 -75 -40v-600c0 -96 3 -188 63 -188c14 0 30 3 47 12c-27 7 -36 27 -36 45c0 28 22 46 46 46c22 0 45 -17 45 -47c0 -51 -54 -79 -104 -79c-51 0 -150 27 -150 211v600c0 38 -1 40 -75 40
c-151 0 -166 -33 -180 -194h-25z" />
    <glyph glyph-name="Uhorn" unicode="&#x1af;" horiz-adv-x="750" 
d="M33 652v31c51 -2 103 -3 154 -3c48 0 94 1 141 3v-31h-15c-76 0 -87 -7 -88 -44v-369c0 -54 4 -106 30 -151c12 -21 54 -79 135 -79c56 0 193 36 193 235v334c0 67 -52 73 -103 74v31l103 -3c11 0 21 1 30 3v-48c50 9 69 36 78 50c-6 -1 -11 -2 -17 -2
c-34 0 -53 26 -53 52c0 29 21 53 52 53c32 0 53 -30 53 -65c0 -45 -34 -102 -113 -113v-367c0 -58 -8 -111 -44 -165c-44 -65 -109 -100 -182 -100c-128 0 -232 95 -249 217c-2 16 -2 33 -2 49v364c-1 40 -17 44 -91 44h-12z" />
    <glyph glyph-name="uhorn" unicode="&#x1b0;" horiz-adv-x="555" 
d="M31 400v30l148 11v-323c0 -54 1 -106 87 -106c48 0 121 36 121 162c0 8 -1 17 -1 25v151c-1 43 -18 50 -72 50h-5v30l147 11v-52c35 8 53 18 74 42c-4 0 -7 -1 -10 -1c-33 0 -54 24 -54 53c0 28 21 52 52 52c32 0 54 -30 54 -65c0 -44 -35 -95 -116 -110v-259
c0 -59 5 -70 73 -70h5v-31l-145 -11v88c-20 -44 -58 -88 -127 -88c-144 0 -153 87 -153 141v214c0 51 -18 56 -78 56z" />
    <glyph glyph-name="uni01B1" unicode="&#x1b1;" horiz-adv-x="722" 
d="M44 543l33 162h153c24 0 32 -1 32 -23c0 -136 -104 -284 -104 -432c0 -158 110 -228 202 -228c94 0 203 71 203 228c0 145 -104 296 -104 433c0 21 10 22 25 22h160l33 -162h-26c-20 94 -14 97 -96 97h-67c38 -142 178 -240 178 -390c0 -136 -133 -250 -306 -250
c-174 0 -305 115 -305 250c0 151 140 249 178 390h-67c-84 0 -77 -4 -97 -97h-25z" />
    <glyph glyph-name="uni01B2" unicode="&#x1b2;" horiz-adv-x="724" 
d="M33 652v31c35 -3 110 -3 148 -3s112 0 147 3v-31h-24c-77 0 -79 -11 -79 -47v-381c0 -190 59 -215 106 -215c87 0 179 98 223 175c23 39 72 89 72 329c0 142 -41 161 -72 161c-9 0 -18 -2 -26 -4c13 -6 32 -18 32 -45s-21 -45 -46 -45s-46 18 -46 46c0 41 41 71 84 71
c42 0 105 -30 105 -173c0 -265 -51 -318 -77 -361c-50 -81 -146 -185 -251 -185c-136 0 -193 109 -193 250v377c0 36 -2 47 -79 47h-24z" />
    <glyph glyph-name="uni01B3" unicode="&#x1b3;" horiz-adv-x="749" 
d="M11 652v31c42 -2 88 -3 130 -3c39 0 112 0 148 3v-31c-45 0 -70 -4 -70 -25c0 -5 0 -7 7 -17l181 -295l215 350c13 20 37 24 61 24c50 0 82 -27 82 -66c0 -33 -26 -45 -43 -45c-22 0 -44 18 -44 44c0 30 28 41 30 41c-1 1 -10 4 -24 4c-12 0 -28 -6 -39 -23l-228 -371
v-193c0 -39 3 -49 80 -49h23v-31c-36 3 -107 3 -146 3s-110 0 -146 -3v31h24c77 0 79 11 79 47v195l-210 342c-16 26 -24 37 -92 37h-18z" />
    <glyph glyph-name="uni01B4" unicode="&#x1b4;" horiz-adv-x="640" 
d="M19 -124c0 30 22 43 42 43c23 0 42 -16 42 -42c0 -16 -8 -38 -39 -42c19 -18 42 -18 47 -18c70 0 95 78 139 183l-150 365c-14 35 -33 35 -81 35v31c30 -2 70 -3 97 -3c17 0 83 2 109 3v-31c-19 0 -56 0 -56 -26c0 -4 2 -8 6 -18l111 -269l229 556c14 35 44 46 69 46
c50 0 82 -27 82 -66c0 -33 -26 -45 -43 -45c-22 0 -44 18 -44 44c0 30 28 41 30 41c-1 1 -10 4 -24 4c-13 0 -39 -5 -50 -41l-296 -717c-24 -57 -65 -114 -128 -114c-50 0 -92 36 -92 81z" />
    <glyph glyph-name="uni01B5" unicode="&#x1b5;" horiz-adv-x="611" 
d="M56 17c0 8 0 9 7 20l183 289h-122v32h142l186 294h-157c-164 0 -194 -81 -201 -194h-25l11 225h448c20 0 26 0 26 -16c0 -7 0 -8 -7 -19l-184 -290h121v-32h-141l-184 -292h164c185 0 204 94 212 233h25l-17 -267h-461c-21 0 -26 0 -26 17z" />
    <glyph glyph-name="uni01B6" unicode="&#x1b6;" horiz-adv-x="443" 
d="M28 14c0 8 -3 2 132 185h-69v32h93l132 178h-114c-110 0 -129 -37 -135 -139h-25l11 161h320c18 0 26 0 26 -13c0 -7 -2 -8 -135 -187h70v-32h-93l-129 -174h118c116 0 137 44 146 162h25l-17 -187h-330c-19 0 -26 0 -26 14z" />
    <glyph glyph-name="uni01B7" unicode="&#x1b7;" horiz-adv-x="555" 
d="M41 127c0 47 37 59 56 59c31 0 56 -23 56 -56c0 -30 -20 -55 -58 -55h-11c32 -52 92 -72 178 -72c59 0 147 24 147 181c0 71 -15 103 -34 125c-29 33 -68 46 -116 46c-68 0 -56 -10 -72 -10c-7 0 -12 4 -12 10c0 11 17 22 22 27l282 240h-189c-155 0 -204 -13 -224 -164
h-25l28 225h415c24 0 26 -8 26 -22v-29c0 -18 -5 -21 -18 -32l-249 -213c8 1 16 1 24 1c137 0 245 -90 245 -204c0 -100 -90 -206 -248 -206c-103 0 -223 31 -223 149z" />
    <glyph glyph-name="uni01B8" unicode="&#x1b8;" horiz-adv-x="550" 
d="M41 184c0 114 109 204 245 204c8 0 16 0 24 -1l-249 213c-13 11 -18 14 -18 32v29c0 14 2 22 26 22h415l28 -225h-25c-21 152 -72 164 -224 164h-189l282 -240c17 -15 21 -18 22 -24c2 -6 -2 -13 -12 -13c-15 0 -4 9 -72 10c-48 0 -86 -13 -116 -46
c-19 -22 -34 -55 -34 -125c0 -157 88 -181 147 -181c85 0 146 21 178 72h-11c-38 0 -58 26 -58 55c0 33 26 56 56 56c20 0 56 -12 56 -59c0 -118 -120 -149 -223 -149c-158 0 -248 106 -248 206z" />
    <glyph glyph-name="uni01B9" unicode="&#x1b9;" horiz-adv-x="444" 
d="M41 -24c0 82 55 189 190 210c-187 201 -187 193 -187 217c0 22 3 26 21 27h326l10 -166h-25c-9 98 -47 107 -150 107h-133l192 -206c6 -6 17 -17 17 -25c0 -4 -2 -8 -9 -10c-3 -1 -108 6 -149 -68c-14 -25 -19 -57 -19 -92c0 -47 5 -106 55 -138c15 -10 31 -15 52 -15
c39 0 94 16 127 69c-41 2 -49 29 -49 46c0 28 23 46 46 46c19 0 45 -12 45 -49c0 -65 -66 -134 -170 -134c-101 0 -190 75 -190 181z" />
    <glyph glyph-name="uni01BA" unicode="&#x1ba;" horiz-adv-x="444" 
d="M41 264l11 166h326c18 -1 21 -6 21 -27c0 -16 -4 -18 -14 -32c-15 -10 -13 -9 -166 -145c152 -7 182 -67 182 -112c0 -110 -212 -130 -212 -224c0 -33 23 -72 70 -72c14 0 63 1 110 49c5 5 14 19 24 15c3 -2 8 -5 8 -11c0 -15 -60 -76 -146 -76c-79 0 -146 49 -146 117
c0 107 212 135 212 219c0 33 -64 43 -126 43c-10 0 -21 -1 -31 -1l1 -1c-11 0 -22 2 -24 11l1 4l3 6l15 14l184 164h-127c-104 0 -142 -9 -151 -107h-25z" />
    <glyph glyph-name="uni01BB" unicode="&#x1bb;" horiz-adv-x="499" 
d="M50 0c0 24 0 26 11 37l192 214c8 9 17 19 25 30h-207v32h230c33 49 57 104 57 159c0 82 -43 163 -134 163c-58 0 -112 -37 -135 -102c3 1 5 1 13 1c35 0 53 -26 53 -52c0 -41 -35 -53 -52 -53c-3 0 -53 0 -53 56c0 89 74 181 187 181c122 0 212 -80 212 -194
c0 -60 -22 -104 -73 -159h79v-32h-111c-30 -29 -66 -62 -111 -101l-106 -103h180c22 0 88 0 95 8c10 15 17 59 22 89h25l-28 -174h-371z" />
    <glyph glyph-name="uni01BC" unicode="&#x1bc;" horiz-adv-x="519" 
d="M17 637v46h437l14 -170h-25c-9 101 -15 124 -126 124h-87c-70 0 -79 -9 -79 -38v-230c36 35 79 51 127 51c108 0 190 -100 190 -219c0 -127 -102 -223 -218 -223c-112 0 -181 97 -181 183c0 46 35 53 49 53c33 0 50 -25 50 -49s-17 -49 -50 -49c-11 0 -14 1 -17 2
c17 -59 74 -112 147 -112c46 0 84 26 107 65c23 40 24 95 24 131v6c0 50 -2 89 -18 126c-8 18 -33 64 -85 64c-81 0 -118 -54 -129 -70c-4 -6 -6 -9 -13 -9c-14 0 -14 8 -14 26v245c0 36 -2 47 -79 47h-24z" />
    <glyph glyph-name="uni01BD" unicode="&#x1bd;" horiz-adv-x="399" 
d="M27 394v36h329l11 -132h-19c-7 79 -12 96 -98 96h-68c-54 0 -61 -7 -61 -29v-127c28 28 61 40 99 40c83 0 147 -50 147 -142c0 -98 -79 -158 -169 -158c-87 0 -142 57 -142 124c0 36 30 41 40 41c26 0 39 -19 39 -38s-11 -38 -37 -38c-8 0 -9 1 -12 2
c13 -46 54 -65 110 -65c41 0 102 18 102 137c0 39 -4 59 -12 72s-28 39 -68 39c-63 0 -92 -42 -100 -54c-3 -5 -5 -7 -10 -7c-11 0 -14 6 -14 20v156c0 21 -3 27 -55 27h-12z" />
    <glyph glyph-name="uni01BE" unicode="&#x1be;" horiz-adv-x="460" 
d="M19 400v22c98 4 128 111 129 193h25v-184h143v-31h-143v-69c0 -75 143 -37 216 -108c12 -12 42 -42 42 -95c0 -72 -46 -139 -161 -139c-21 0 -66 1 -110 43c-18 -19 -34 -43 -45 -43s-11 7 -11 24v132c0 18 0 25 13 25c10 0 11 -4 14 -17c20 -85 55 -142 139 -142
c78 0 113 40 113 91c0 72 -82 88 -104 92c-72 14 -100 20 -132 46c-27 22 -43 50 -43 85v75h-85z" />
    <glyph glyph-name="uni01BF" unicode="&#x1bf;" 
d="M27 -205c62 18 77 19 77 60v489c0 47 -6 62 -30 62c-17 0 -36 -6 -47 -8v23l145 36v-57c106 34 107 36 134 36c79 0 161 -69 161 -180c0 -77 -39 -165 -122 -208c-28 -15 -79 -26 -171 -51v-183l-147 -42v23zM174 23c30 7 59 16 88 24c44 12 118 11 118 203
c0 95 -38 159 -89 159c-17 0 -55 -15 -117 -35v-351z" />
    <glyph glyph-name="uni01C0" unicode="&#x1c0;" horiz-adv-x="278" 
d="M117 -171v836c0 18 0 29 21 29c18 0 22 -5 22 -23v-835c0 -20 -1 -30 -20 -30c-18 0 -23 5 -23 23z" />
    <glyph glyph-name="uni01C1" unicode="&#x1c1;" horiz-adv-x="444" 
d="M114 -169v834c0 18 0 29 18 29h1c19 0 19 -14 19 -29v-830c0 -18 0 -29 -19 -29h-1c-15 0 -18 7 -18 25zM291 -169v834c0 17 0 29 18 29c16 0 20 -7 20 -21v-838c0 -18 0 -29 -19 -29c-17 0 -19 12 -19 25z" />
    <glyph glyph-name="uni01C2" unicode="&#x1c2;" horiz-adv-x="556" 
d="M55 161c0 20 10 22 26 22h174v123h-173c-15 0 -28 1 -27 23c0 20 10 21 26 21h174v323c0 11 2 22 21 22c18 0 23 -6 23 -25v-320h175c14 0 25 -1 25 -21c1 -22 -12 -23 -27 -23h-173v-123h175c14 0 25 -2 25 -22c1 -19 -7 -22 -26 -22h-174v-310c0 -18 -5 -24 -23 -24
c-19 0 -21 11 -21 23v311h-173c-17 0 -28 1 -27 22z" />
    <glyph glyph-name="uni01C3" unicode="&#x1c3;" horiz-adv-x="278" 
d="M85 664c0 34 28 52 53 52c26 0 53 -19 53 -52c0 -4 -1 -7 -1 -11l-38 -442c-1 -14 -4 -23 -15 -23c-12 0 -12 15 -13 27l-38 435c0 5 -1 9 -1 14zM85 53c0 31 26 53 53 53c28 0 52 -22 52 -53s-26 -52 -52 -52c-31 0 -53 25 -53 52z" />
    <glyph glyph-name="uni01C4" unicode="&#x1c4;" horiz-adv-x="1375" 
d="M906 919l11 16h1c106 -62 130 -79 143 -79c9 0 96 56 139 79l11 -16c-143 -122 -145 -125 -152 -125c-8 0 -10 3 -153 125zM820 17c0 8 0 9 7 20l389 615h-157c-164 0 -194 -81 -201 -194h-25l11 225h448c20 0 26 0 26 -16c0 -7 0 -8 -7 -19l-388 -614h164
c185 0 204 94 212 233h25l-17 -267h-461c-21 0 -26 0 -26 17zM35 0v31h24c77 0 79 11 79 47v527c0 36 -2 47 -79 47h-24v31h366c171 0 306 -157 306 -347c0 -188 -138 -336 -306 -336h-366zM224 71c0 -33 2 -40 49 -40h101c101 0 158 58 178 85c36 49 55 109 55 220
c0 78 -9 164 -52 223c-51 71 -120 93 -182 93h-100c-47 0 -49 -7 -49 -40v-541z" />
    <glyph glyph-name="uni01C5" unicode="&#x1c5;" horiz-adv-x="1208" 
d="M825 631l13 15c134 -90 133 -90 140 -90c8 0 13 4 141 90l12 -15l-152 -147h-1zM792 14c0 5 0 7 9 18l279 377h-114c-110 0 -129 -37 -135 -139h-25l11 161h320c18 0 26 0 26 -13c0 -4 0 -6 -9 -17l-278 -376h118c116 0 137 44 146 162h25l-17 -187h-330
c-19 0 -26 0 -26 14zM35 0v31h24c77 0 79 11 79 47v527c0 36 -2 47 -79 47h-24v31h366c171 0 306 -157 306 -347c0 -188 -138 -336 -306 -336h-366zM224 71c0 -33 2 -40 49 -40h101c101 0 158 58 178 85c36 49 55 109 55 220c0 78 -9 164 -52 223c-51 71 -120 93 -182 93
h-100c-47 0 -49 -7 -49 -40v-541z" />
    <glyph glyph-name="uni01C6" unicode="&#x1c6;" horiz-adv-x="999" 
d="M616 631l13 15c134 -90 133 -90 140 -90c8 0 13 4 141 90l12 -15l-152 -147h-1zM583 14c0 5 0 7 9 18l279 377h-114c-110 0 -129 -37 -135 -139h-25l11 161h320c18 0 26 0 26 -13c0 -4 0 -6 -9 -17l-278 -376h118c116 0 137 44 146 162h25l-17 -187h-330
c-19 0 -26 0 -26 14zM34 215c0 129 105 227 223 227c54 0 97 -26 126 -62v216c0 49 -8 56 -78 56v31l144 11v-607c0 -49 8 -56 78 -56v-31l-147 -11v66c-25 -32 -70 -66 -134 -66c-114 0 -212 99 -212 226zM117 214c0 -41 3 -98 29 -139c24 -38 60 -64 105 -64
c43 0 88 22 118 70c11 17 11 19 11 37v205c0 18 0 20 -11 37c-31 45 -73 60 -108 60c-54 0 -92 -33 -113 -64c-29 -45 -31 -105 -31 -142z" />
    <glyph glyph-name="uni01C7" unicode="&#x1c7;" horiz-adv-x="1139" 
d="M666 112c0 44 34 58 56 58c28 0 56 -20 56 -56c0 -26 -12 -56 -64 -56c36 -58 104 -58 110 -58c53 0 103 56 103 148v456c0 35 0 48 -98 48h-36v31c38 -3 126 -3 168 -3c47 0 85 1 129 3v-31c-63 0 -77 0 -77 -41v-444c0 -34 0 -36 -1 -44c-11 -75 -84 -145 -186 -145
c-89 0 -160 60 -160 134zM33 0v31h24c77 0 79 11 79 47v527c0 36 -2 47 -79 47h-24v31c35 -3 113 -3 152 -3c41 0 132 0 168 3v-31h-33c-95 0 -95 -14 -95 -48v-533c0 -33 2 -40 49 -40h82c176 0 190 125 201 227h25l-28 -258h-521z" />
    <glyph glyph-name="uni01C8" unicode="&#x1c8;" horiz-adv-x="930" 
d="M729 616c0 29 24 53 53 53s53 -24 53 -53s-24 -53 -53 -53s-53 24 -53 53zM585 -125c0 26 18 46 46 46s46 -20 46 -46c0 -27 -20 -41 -35 -45c26 -13 49 -13 54 -13c64 0 73 86 73 131v396c0 49 -9 56 -86 56v31l152 11v-492c0 -91 -62 -155 -137 -155
c-57 0 -113 28 -113 80zM33 0v31h24c77 0 79 11 79 47v527c0 36 -2 47 -79 47h-24v31c35 -3 113 -3 152 -3c41 0 132 0 168 3v-31h-33c-95 0 -95 -14 -95 -48v-533c0 -33 2 -40 49 -40h82c176 0 190 125 201 227h25l-28 -258h-521z" />
    <glyph glyph-name="uni01C9" unicode="&#x1c9;" horiz-adv-x="583" 
d="M382 616c0 29 24 53 53 53s53 -24 53 -53s-24 -53 -53 -53s-53 24 -53 53zM238 -125c0 26 18 46 46 46s46 -20 46 -46c0 -27 -20 -41 -35 -45c26 -13 49 -13 54 -13c64 0 73 86 73 131v396c0 49 -9 56 -86 56v31l152 11v-492c0 -91 -62 -155 -137 -155
c-57 0 -113 28 -113 80zM33 0v31c67 0 78 0 78 45v520c0 49 -8 56 -78 56v31l144 11v-618c0 -45 11 -45 78 -45v-31c-37 1 -86 3 -111 3s-78 -2 -111 -3z" />
    <glyph glyph-name="uni01CA" unicode="&#x1ca;" horiz-adv-x="1264" 
d="M791 112c0 44 34 58 56 58c28 0 56 -20 56 -56c0 -26 -12 -56 -64 -56c36 -58 104 -58 110 -58c53 0 103 56 103 148v456c0 35 0 48 -98 48h-36v31c38 -3 126 -3 168 -3c47 0 85 1 129 3v-31c-63 0 -77 0 -77 -41v-444c0 -34 0 -36 -1 -44c-11 -75 -84 -145 -186 -145
c-89 0 -160 60 -160 134zM33 0v31c103 0 103 47 103 74v522c0 19 -1 20 -24 23c-15 1 -35 2 -50 2h-29v31h170c19 0 20 -1 29 -13l353 -519v427c0 27 0 74 -103 74v31c35 -1 84 -3 117 -3s82 2 117 3v-31c-103 0 -103 -47 -103 -74v-552c0 -19 0 -26 -14 -26
c-7 0 -8 1 -17 13l-408 600c-4 6 -5 7 -10 12v-520c0 -27 0 -74 103 -74v-31c-35 1 -84 3 -117 3s-82 -2 -117 -3z" />
    <glyph glyph-name="uni01CB" unicode="&#x1cb;" horiz-adv-x="1055" 
d="M854 616c0 29 24 53 53 53s53 -24 53 -53s-24 -53 -53 -53s-53 24 -53 53zM710 -125c0 26 18 46 46 46s46 -20 46 -46c0 -27 -20 -41 -35 -45c26 -13 49 -13 54 -13c64 0 73 86 73 131v396c0 49 -9 56 -86 56v31l152 11v-492c0 -91 -62 -155 -137 -155
c-57 0 -113 28 -113 80zM33 0v31c103 0 103 47 103 74v522c0 19 -1 20 -24 23c-15 1 -35 2 -50 2h-29v31h170c19 0 20 -1 29 -13l353 -519v427c0 27 0 74 -103 74v31c35 -1 84 -3 117 -3s82 2 117 3v-31c-103 0 -103 -47 -103 -74v-552c0 -19 0 -26 -14 -26
c-7 0 -8 1 -17 13l-408 600c-4 6 -5 7 -10 12v-520c0 -27 0 -74 103 -74v-31c-35 1 -84 3 -117 3s-82 -2 -117 -3z" />
    <glyph glyph-name="uni01CC" unicode="&#x1cc;" horiz-adv-x="860" 
d="M659 616c0 29 24 53 53 53s53 -24 53 -53s-24 -53 -53 -53s-53 24 -53 53zM515 -125c0 26 18 46 46 46s46 -20 46 -46c0 -27 -20 -41 -35 -45c26 -13 49 -13 54 -13c64 0 73 86 73 131v396c0 49 -9 56 -86 56v31l152 11v-492c0 -91 -62 -155 -137 -155
c-57 0 -113 28 -113 80zM32 0v31c67 0 78 0 78 45v268c0 49 -8 56 -78 56v31l141 11v-105c28 62 75 105 148 105c58 0 91 -20 105 -37c31 -36 31 -67 31 -153v-191c1 -30 26 -30 78 -30v-31c-34 1 -86 3 -112 3c-27 0 -78 -2 -113 -3v31c67 0 78 0 78 45v233
c0 57 -11 111 -74 111c-64 0 -135 -56 -135 -160v-184c0 -45 11 -45 78 -45v-31c-34 1 -86 3 -112 3c-27 0 -78 -2 -113 -3z" />
    <glyph glyph-name="uni01CD" unicode="&#x1cd;" horiz-adv-x="750" 
d="M223 891l11 16c130 -76 133 -79 141 -79h1c5 0 7 2 140 79l11 -16c-142 -122 -147 -125 -152 -125c-6 0 -6 0 -152 125zM32 0v31c54 1 94 16 112 67l207 598c5 14 8 20 24 20s18 -7 23 -20l216 -625c11 -33 25 -40 85 -40h18v-31c-42 2 -88 3 -131 3
c-38 0 -108 0 -144 -3v31c27 0 83 0 83 30c0 4 -2 10 -3 14l-53 153h-247l-46 -131c-1 -2 -2 -12 -2 -15c0 -26 25 -51 75 -51v-31c-32 1 -84 3 -115 3c-36 0 -79 -2 -102 -3zM233 259h225l-113 325z" />
    <glyph glyph-name="uni01CE" unicode="&#x1ce;" 
d="M68 631l13 15c134 -90 133 -90 140 -90c8 0 13 4 141 90l12 -15l-152 -147h-1zM42 95c0 44 25 96 100 130c63 30 133 33 184 36v37c0 89 -57 128 -106 128c-32 0 -81 -11 -108 -46c46 -1 51 -34 51 -46c0 -26 -18 -46 -46 -46c-26 0 -46 17 -46 47c0 66 69 113 151 113
c48 0 98 -16 137 -55c36 -37 36 -76 36 -118v-200c0 -5 4 -50 37 -50c11 0 36 6 36 64v56h25v-56c0 -81 -61 -95 -82 -95c-47 0 -74 42 -78 82c-19 -47 -65 -87 -131 -87c-63 0 -160 25 -160 106zM119 96c0 -50 41 -85 90 -85c45 0 117 34 117 129v100
c-165 -6 -207 -89 -207 -144z" />
    <glyph glyph-name="uni01CF" unicode="&#x1cf;" horiz-adv-x="361" 
d="M28 891l11 16c130 -76 133 -79 141 -79h1c5 0 7 2 140 79l11 -16c-142 -122 -147 -125 -152 -125c-6 0 -6 0 -152 125zM28 0v31h26c79 0 82 11 82 47v527c0 36 -3 47 -82 47h-26v31c35 -3 114 -3 153 -3c38 0 117 0 152 3v-31h-26c-79 0 -82 -11 -82 -47v-527
c0 -36 3 -47 82 -47h26v-31c-35 3 -114 3 -153 3c-38 0 -117 0 -152 -3z" />
    <glyph glyph-name="uni01D1" unicode="&#x1d1;" horiz-adv-x="777" 
d="M236 891l11 16c130 -76 133 -79 141 -79h1c5 0 7 2 140 79l11 -16c-142 -122 -147 -125 -152 -125c-6 0 -6 0 -152 125zM56 339c0 206 153 366 332 366c182 0 333 -162 333 -366c0 -202 -151 -361 -333 -361c-178 0 -332 156 -332 361zM159 353c0 -261 134 -349 230 -349
c92 0 229 84 229 349c0 256 -143 327 -230 327c-83 0 -229 -68 -229 -327z" />
    <glyph glyph-name="uni01D2" unicode="&#x1d2;" 
d="M96 631l13 15c134 -90 133 -90 140 -90c8 0 13 4 141 90l12 -15l-152 -147h-1zM28 214c0 125 97 234 222 234c121 0 221 -106 221 -234c0 -127 -101 -225 -222 -225c-117 0 -221 96 -221 225zM111 222c0 -36 0 -97 25 -141c27 -46 71 -67 114 -67c50 0 94 29 116 74
c22 44 22 98 22 134c0 38 0 96 -26 139s-69 65 -113 65c-40 0 -87 -21 -114 -67c-24 -44 -24 -98 -24 -137z" />
    <glyph glyph-name="uni01D3" unicode="&#x1d3;" horiz-adv-x="750" 
d="M222 891l11 16c130 -76 133 -79 141 -79h1c5 0 7 2 140 79l11 -16c-142 -122 -147 -125 -152 -125c-6 0 -6 0 -152 125zM33 652v31c35 -3 110 -3 148 -3s112 0 147 3v-31h-24c-77 0 -79 -11 -79 -47v-381c0 -190 118 -215 165 -215c95 0 192 80 192 222v347
c0 27 0 74 -103 74v31c36 -1 84 -3 119 -3c34 0 82 2 118 3v-31c-103 0 -103 -45 -103 -78v-320c0 -40 0 -49 -3 -69c-17 -114 -107 -207 -222 -207c-136 0 -252 109 -252 250v377c0 36 -2 47 -79 47h-24z" />
    <glyph glyph-name="uni01D4" unicode="&#x1d4;" horiz-adv-x="555" 
d="M130 631l13 15c134 -90 133 -90 140 -90c8 0 13 4 141 90l12 -15l-152 -147h-1zM32 400v31l147 11v-332c0 -52 4 -99 88 -99c73 0 121 68 121 155v178c0 49 -8 56 -78 56v31l147 11v-355c0 -49 8 -56 78 -56v-31l-144 -11v90c-29 -62 -73 -90 -129 -90
c-152 0 -152 91 -152 169v150c0 89 0 92 -78 92z" />
    <glyph glyph-name="uni01D5" unicode="&#x1d5;" horiz-adv-x="750" 
d="M33 652v31c35 -3 110 -3 148 -3s112 0 147 3v-31h-24c-77 0 -79 -11 -79 -47v-381c0 -190 118 -215 165 -215c95 0 192 80 192 222v347c0 27 0 74 -103 74v31c36 -1 84 -3 119 -3c34 0 82 2 118 3v-31c-103 0 -103 -45 -103 -78v-320c0 -40 0 -49 -3 -69
c-17 -114 -107 -207 -222 -207c-136 0 -252 109 -252 250v377c0 36 -2 47 -79 47h-24zM195 906v32h360v-32h-360zM224 814c0 27 22 52 53 52c28 0 52 -21 52 -52s-26 -53 -52 -53c-31 0 -53 26 -53 53zM419 814c0 27 22 52 53 52c28 0 52 -21 52 -52s-26 -53 -52 -53
c-31 0 -53 26 -53 53z" />
    <glyph glyph-name="uni01D6" unicode="&#x1d6;" horiz-adv-x="555" 
d="M327 606c0 31 26 53 53 53s52 -22 52 -53s-26 -52 -52 -52s-53 21 -53 52zM32 400v31l147 11v-332c0 -52 4 -99 88 -99c73 0 121 68 121 155v178c0 49 -8 56 -78 56v31l147 11v-355c0 -49 8 -56 78 -56v-31l-144 -11v90c-29 -62 -73 -90 -129 -90
c-152 0 -152 91 -152 169v150c0 89 0 92 -78 92zM132 606c0 31 26 53 53 53c28 0 52 -22 52 -53s-26 -52 -52 -52c-31 0 -53 25 -53 52zM103 721v32h360v-32h-360z" />
    <glyph glyph-name="uni01D7" unicode="&#x1d7;" horiz-adv-x="750" 
d="M328 891c148 92 153 97 167 97c22 0 35 -20 35 -37c0 -30 -22 -31 -146 -70c-15 -4 -30 -9 -46 -13zM33 652v31c35 -3 110 -3 148 -3s112 0 147 3v-31h-24c-77 0 -79 -11 -79 -47v-381c0 -190 118 -215 165 -215c95 0 192 80 192 222v347c0 27 0 74 -103 74v31
c36 -1 84 -3 119 -3c34 0 82 2 118 3v-31c-103 0 -103 -45 -103 -78v-320c0 -40 0 -49 -3 -69c-17 -114 -107 -207 -222 -207c-136 0 -252 109 -252 250v377c0 36 -2 47 -79 47h-24zM224 814c0 27 22 52 53 52c28 0 52 -21 52 -52s-26 -53 -52 -53c-31 0 -53 26 -53 53z
M419 814c0 27 22 52 53 52c28 0 52 -21 52 -52s-26 -53 -52 -53c-31 0 -53 26 -53 53z" />
    <glyph glyph-name="uni01D8" unicode="&#x1d8;" horiz-adv-x="555" 
d="M191 716c126 123 131 132 150 132c21 0 35 -20 35 -37c0 -23 -7 -23 -129 -92c-13 -8 -27 -16 -41 -23zM327 606c0 31 26 53 53 53s52 -22 52 -53s-26 -52 -52 -52s-53 21 -53 52zM32 400v31l147 11v-332c0 -52 4 -99 88 -99c73 0 121 68 121 155v178c0 49 -8 56 -78 56
v31l147 11v-355c0 -49 8 -56 78 -56v-31l-144 -11v90c-29 -62 -73 -90 -129 -90c-152 0 -152 91 -152 169v150c0 89 0 92 -78 92zM132 606c0 31 26 53 53 53c28 0 52 -22 52 -53s-26 -52 -52 -52c-31 0 -53 25 -53 52z" />
    <glyph glyph-name="uni01D9" unicode="&#x1d9;" horiz-adv-x="750" 
d="M222 993l11 16h1c106 -62 130 -79 143 -79c10 0 84 50 139 79l12 -16c-144 -122 -146 -125 -153 -125c-12 0 -94 78 -153 125zM33 652v31c35 -3 110 -3 148 -3s112 0 147 3v-31h-24c-77 0 -79 -11 -79 -47v-381c0 -190 118 -215 165 -215c95 0 192 80 192 222v347
c0 27 0 74 -103 74v31c36 -1 84 -3 119 -3c34 0 82 2 118 3v-31c-103 0 -103 -45 -103 -78v-320c0 -40 0 -49 -3 -69c-17 -114 -107 -207 -222 -207c-136 0 -252 109 -252 250v377c0 36 -2 47 -79 47h-24zM224 814c0 27 22 52 53 52c28 0 52 -21 52 -52s-26 -53 -52 -53
c-31 0 -53 26 -53 53zM419 814c0 27 22 52 53 52c28 0 52 -21 52 -52s-26 -53 -52 -53c-31 0 -53 26 -53 53z" />
    <glyph glyph-name="uni01DA" unicode="&#x1da;" horiz-adv-x="555" 
d="M124 803l13 15c134 -90 133 -90 140 -90c11 0 30 17 141 90l12 -15l-152 -147h-1zM327 606c0 31 26 53 53 53s52 -22 52 -53s-26 -52 -52 -52s-53 21 -53 52zM32 400v31l147 11v-332c0 -52 4 -99 88 -99c73 0 121 68 121 155v178c0 49 -8 56 -78 56v31l147 11v-355
c0 -49 8 -56 78 -56v-31l-144 -11v90c-29 -62 -73 -90 -129 -90c-152 0 -152 91 -152 169v150c0 89 0 92 -78 92zM132 606c0 31 26 53 53 53c28 0 52 -22 52 -53s-26 -52 -52 -52c-31 0 -53 25 -53 52z" />
    <glyph glyph-name="uni01DB" unicode="&#x1db;" horiz-adv-x="750" 
d="M261 968c0 16 12 37 34 37h1c13 0 12 -1 167 -97l-11 -23c-175 54 -191 49 -191 83zM33 652v31c35 -3 110 -3 148 -3s112 0 147 3v-31h-24c-77 0 -79 -11 -79 -47v-381c0 -190 118 -215 165 -215c95 0 192 80 192 222v347c0 27 0 74 -103 74v31c36 -1 84 -3 119 -3
c34 0 82 2 118 3v-31c-103 0 -103 -45 -103 -78v-320c0 -40 0 -49 -3 -69c-17 -114 -107 -207 -222 -207c-136 0 -252 109 -252 250v377c0 36 -2 47 -79 47h-24zM224 814c0 27 22 52 53 52c28 0 52 -21 52 -52s-26 -53 -52 -53c-31 0 -53 26 -53 53zM419 814
c0 27 22 52 53 52c28 0 52 -21 52 -52s-26 -53 -52 -53c-31 0 -53 26 -53 53z" />
    <glyph glyph-name="uni01DC" unicode="&#x1dc;" horiz-adv-x="555" 
d="M174 800c0 17 14 37 35 37c20 0 24 -11 150 -132l-15 -20c-18 9 -90 50 -134 75c-9 5 -36 16 -36 40zM327 606c0 31 26 53 53 53s52 -22 52 -53s-26 -52 -52 -52s-53 21 -53 52zM32 400v31l147 11v-332c0 -52 4 -99 88 -99c73 0 121 68 121 155v178c0 49 -8 56 -78 56v31
l147 11v-355c0 -49 8 -56 78 -56v-31l-144 -11v90c-29 -62 -73 -90 -129 -90c-152 0 -152 91 -152 169v150c0 89 0 92 -78 92zM132 606c0 31 26 53 53 53c28 0 52 -22 52 -53s-26 -52 -52 -52c-31 0 -53 25 -53 52z" />
    <glyph glyph-name="uni01DD" unicode="&#x1dd;" horiz-adv-x="444" 
d="M27 200c0 20 11 21 23 21h282c-1 48 -6 99 -34 140c-20 29 -56 62 -110 62c-66 0 -113 -45 -130 -86c-8 -18 -14 -24 -19 -24c-6 0 -10 8 -10 13c0 31 56 122 166 122c113 0 221 -95 221 -230c0 -120 -88 -227 -209 -227c-144 0 -180 129 -180 209zM94 199
c1 -151 69 -186 114 -186c43 0 122 35 124 186h-238z" />
    <glyph glyph-name="uni01DE" unicode="&#x1de;" horiz-adv-x="750" 
d="M32 0v31c54 1 94 16 112 67l207 598c5 14 8 20 24 20s18 -7 23 -20l216 -625c11 -33 25 -40 85 -40h18v-31c-42 2 -88 3 -131 3c-38 0 -108 0 -144 -3v31c27 0 83 0 83 30c0 7 1 2 -56 167h-247c-41 -116 -48 -132 -48 -146c0 -26 25 -51 75 -51v-31c-32 1 -84 3 -115 3
c-36 0 -79 -2 -102 -3zM233 259h225l-113 325zM195 906v32h360v-32h-360zM224 814c0 27 22 52 53 52c28 0 52 -21 52 -52s-26 -53 -52 -53c-31 0 -53 26 -53 53zM419 814c0 27 22 52 53 52c28 0 52 -21 52 -52s-26 -53 -52 -53c-31 0 -53 26 -53 53z" />
    <glyph glyph-name="uni01DF" unicode="&#x1df;" 
d="M100 606c0 31 25 53 52 53c26 0 53 -22 53 -53s-27 -52 -53 -52c-31 0 -52 25 -52 52zM294 606c0 31 26 53 53 53c28 0 52 -22 52 -53s-26 -52 -52 -52c-31 0 -53 25 -53 52zM42 95c0 44 25 96 100 130c63 30 133 33 184 36v37c0 89 -57 128 -106 128
c-32 0 -81 -11 -108 -46c46 -1 51 -34 51 -46c0 -26 -18 -46 -46 -46c-26 0 -46 17 -46 47c0 66 69 113 151 113c48 0 98 -16 137 -55c36 -37 36 -76 36 -118v-200c0 -5 4 -50 37 -50c11 0 36 6 36 64v56h25v-56c0 -81 -61 -95 -82 -95c-47 0 -74 42 -78 82
c-19 -47 -65 -87 -131 -87c-63 0 -160 25 -160 106zM119 96c0 -50 41 -85 90 -85c45 0 117 34 117 129v100c-165 -6 -207 -89 -207 -144zM71 721v32h360v-32h-360z" />
    <glyph glyph-name="uni01E0" unicode="&#x1e0;" horiz-adv-x="750" 
d="M32 0v31c54 1 94 16 112 67l207 598c5 14 8 20 24 20s18 -7 23 -20l216 -625c11 -33 25 -40 85 -40h18v-31c-42 2 -88 3 -131 3c-38 0 -108 0 -144 -3v31c27 0 83 0 83 30c0 7 1 2 -56 167h-247c-41 -116 -48 -132 -48 -146c0 -26 25 -51 75 -51v-31c-32 1 -84 3 -115 3
c-36 0 -79 -2 -102 -3zM233 259h225l-113 325zM322 818c0 31 26 53 53 53c28 0 52 -22 52 -53s-26 -52 -52 -52c-31 0 -53 25 -53 52zM195 906v32h360v-32h-360z" />
    <glyph glyph-name="uni01E1" unicode="&#x1e1;" 
d="M42 95c0 44 25 96 100 130c63 30 133 33 184 36v37c0 89 -57 128 -106 128c-32 0 -81 -11 -108 -46c46 -1 51 -34 51 -46c0 -26 -18 -46 -46 -46c-26 0 -46 17 -46 47c0 66 69 113 151 113c48 0 98 -16 137 -55c36 -37 36 -76 36 -118v-200c0 -5 4 -50 37 -50
c11 0 36 6 36 64v56h25v-56c0 -81 -61 -95 -82 -95c-47 0 -74 42 -78 82c-19 -47 -65 -87 -131 -87c-63 0 -160 25 -160 106zM119 96c0 -50 41 -85 90 -85c45 0 117 34 117 129v100c-165 -6 -207 -89 -207 -144zM71 664v32h360v-32h-360zM166 550c0 27 22 52 53 52
c28 0 52 -21 52 -52s-26 -53 -52 -53c-31 0 -53 26 -53 53z" />
    <glyph glyph-name="uni01E2" unicode="&#x1e2;" horiz-adv-x="903" 
d="M264 796v33h388v-33h-388zM32 0v31c90 2 104 42 121 90l191 530l-86 1v31h561l28 -225h-26c-18 139 -32 194 -186 194h-70c-4 0 -10 1 -17 1c-46 0 -49 -14 -49 -40v-269h75c50 0 101 1 110 64c3 17 3 35 3 52h25v-264h-25v11c0 96 -35 106 -113 106h-75v-245
c1 -35 17 -37 52 -37h90c169 0 183 79 208 227h25l-42 -258h-493v31h8c55 0 68 5 69 40v242h-161c-12 -35 -80 -217 -80 -232c0 -20 16 -47 73 -50v-31c-39 2 -77 3 -116 3c-10 0 -40 0 -100 -3zM266 344h150v255c0 28 0 44 -40 50z" />
    <glyph glyph-name="uni01E3" unicode="&#x1e3;" horiz-adv-x="722" 
d="M191 550v32h360v-32h-360zM44 92c0 95 114 156 282 158v39c0 118 -75 135 -107 135c-67 0 -99 -36 -107 -44h1c40 0 49 -30 49 -46c0 -27 -21 -46 -45 -46c-30 0 -46 22 -46 50c0 59 66 109 151 109c65 0 120 -28 154 -77h1c38 48 90 77 150 77c107 0 167 -86 167 -194
c0 -22 -9 -23 -22 -23h-276v-7c0 -162 88 -208 147 -208c63 0 105 49 120 91c2 5 6 19 13 22c11 4 19 -4 16 -18c-10 -44 -60 -121 -154 -121c-31 0 -102 7 -167 88c-46 -83 -140 -88 -169 -88c-66 0 -158 24 -158 103zM122 93c0 -49 41 -81 88 -81c69 0 127 55 127 119
c0 27 -11 33 -11 98c-163 -9 -204 -82 -204 -136zM397 252h230c-5 147 -61 172 -102 172c-26 0 -114 -15 -128 -172z" />
    <glyph glyph-name="uni01E4" unicode="&#x1e4;" horiz-adv-x="784" 
d="M56 342c0 205 162 363 348 363c99 0 153 -54 185 -86c57 84 56 86 66 86c11 0 11 -7 11 -24v-237c0 -21 0 -24 -16 -24c-14 0 -14 3 -16 17c-21 147 -111 237 -218 237c-60 0 -257 -33 -257 -332c0 -298 198 -333 263 -333c28 0 154 9 155 120h-177c-14 0 -25 2 -25 16
s12 16 32 16h170v33c0 37 -3 48 -93 48h-32v31c36 -3 121 -3 161 -3c30 0 85 2 122 3v-31c-65 0 -69 -5 -69 -44v-37h40c15 0 29 -1 29 -16c0 -14 -13 -16 -26 -16h-43v-105c0 -15 0 -23 -9 -23c-11 0 -51 40 -64 62c-34 -59 -114 -85 -187 -85c-190 0 -350 159 -350 364z
" />
    <glyph glyph-name="uni01E5" unicode="&#x1e5;" 
d="M-2 -78c0 14 12 16 32 16c7 35 38 68 90 83c-31 20 -44 58 -44 89c0 35 18 68 31 83c-25 21 -47 59 -47 103c0 77 69 146 162 146c22 0 64 -3 106 -36c42 41 86 47 106 47c39 0 51 -32 51 -49c0 -23 -19 -30 -29 -30c-16 0 -29 12 -29 29c0 12 5 23 16 27
c-3 1 -8 1 -10 1c-18 0 -54 -5 -90 -39c25 -23 41 -60 41 -97c0 -77 -69 -146 -162 -146c-19 0 -60 3 -99 31c-17 -20 -17 -43 -17 -47c0 -32 21 -63 53 -67c7 -1 50 -1 75 -1h9c58 0 113 -1 163 -28c44 -24 61 -65 64 -99h3c15 0 29 -1 29 -16c0 -14 -13 -16 -26 -16h-7
c-14 -68 -111 -112 -220 -112c-114 0 -207 48 -220 112h-6c-14 0 -25 2 -25 16zM81 -62h336c-14 69 -116 69 -196 69h-59c-39 -3 -73 -31 -81 -69zM81 -94c12 -47 77 -89 169 -89c89 0 155 41 167 89h-336zM135 295c0 -23 0 -123 87 -123c40 0 63 28 71 40
c15 25 16 57 16 84c0 23 0 123 -87 123c-40 0 -63 -28 -71 -40c-15 -25 -16 -57 -16 -84z" />
    <glyph glyph-name="Gcaron" unicode="&#x1e6;" horiz-adv-x="784" 
d="M251 891l11 16c130 -76 133 -79 141 -79h1c5 0 7 2 140 79l11 -16c-142 -122 -147 -125 -152 -125c-6 0 -6 0 -152 125zM56 342c0 205 162 363 348 363c99 0 153 -54 185 -86l50 74c8 12 12 12 16 12c11 0 11 -7 11 -24v-237c0 -21 0 -24 -16 -24c-14 0 -14 3 -16 17
c-20 147 -111 237 -218 237c-60 0 -257 -33 -257 -332c0 -298 198 -333 263 -333c28 0 155 9 155 121v64c0 37 -3 48 -93 48h-32v31c36 -3 121 -3 161 -3c30 0 85 2 122 3v-31c-65 0 -69 -5 -69 -44v-174c0 -15 0 -23 -9 -23c-11 0 -51 40 -64 62c-34 -59 -114 -85 -187 -85
c-190 0 -350 159 -350 364z" />
    <glyph glyph-name="gcaron" unicode="&#x1e7;" 
d="M68 631l13 15c134 -90 133 -90 140 -90c8 0 13 4 141 90l12 -15l-152 -147h-1zM28 -79c0 40 32 83 92 100c-31 20 -44 58 -44 89c0 35 18 68 31 83c-25 21 -47 59 -47 103c0 77 69 146 162 146c22 0 64 -3 106 -36c42 41 86 47 106 47c39 0 51 -32 51 -49
c0 -23 -19 -30 -29 -30c-16 0 -29 12 -29 29c0 12 5 23 16 27c-3 1 -8 1 -10 1c-18 0 -54 -5 -90 -39c25 -23 41 -60 41 -97c0 -77 -69 -146 -162 -146c-19 0 -60 3 -99 31c-17 -20 -17 -43 -17 -47c0 -32 21 -63 53 -67c7 -1 50 -1 75 -1c61 0 119 0 172 -28
c51 -28 65 -79 65 -114c0 -78 -104 -129 -222 -129c-122 0 -221 55 -221 127zM80 -79c0 -53 69 -104 170 -104c98 0 169 50 169 104c0 86 -112 86 -198 86h-59c-44 -3 -82 -40 -82 -86zM135 295c0 -23 0 -123 87 -123c40 0 63 28 71 40c15 25 16 57 16 84
c0 23 0 123 -87 123c-40 0 -63 -28 -71 -40c-15 -25 -16 -57 -16 -84z" />
    <glyph glyph-name="uni01E8" unicode="&#x1e8;" horiz-adv-x="777" 
d="M232 891l11 16c130 -76 133 -79 141 -79h1c5 0 7 2 140 79l11 -16c-142 -122 -147 -125 -152 -125c-6 0 -6 0 -152 125zM33 0v31h24c77 0 79 11 79 47v527c0 36 -2 47 -79 47h-24v31c35 -3 110 -3 148 -3s112 0 147 3v-31h-24c-77 0 -79 -11 -79 -47v-318l313 299
c8 7 18 17 18 33c0 9 -6 32 -46 33v31c34 -3 91 -3 127 -3c27 0 59 0 85 3v-31c-81 -1 -134 -52 -142 -60l-180 -173l231 -340c30 -44 51 -48 105 -48v-31c-42 2 -80 3 -115 3c-38 0 -108 0 -143 -3v31c20 0 59 0 59 30c0 12 -9 25 -15 34l-181 268l-116 -110v-175
c0 -36 2 -47 79 -47h24v-31c-35 3 -110 3 -148 3s-112 0 -147 -3z" />
    <glyph glyph-name="uni01E9" unicode="&#x1e9;" horiz-adv-x="527" 
d="M116 877l13 15c134 -90 133 -90 140 -90c8 0 13 4 141 90l12 -15l-152 -147h-1zM28 0v31c67 0 78 0 78 45v520c0 49 -8 56 -78 56v31l144 11v-480l141 122c8 7 22 19 22 39c0 13 -10 24 -29 25v31c14 -1 76 -3 112 -3c28 0 41 0 70 3v-31c-21 -1 -63 -3 -126 -54
c-10 -8 -81 -68 -81 -72c0 -3 5 -9 6 -11l127 -179c38 -53 60 -53 97 -53v-31c-29 2 -58 3 -87 3c-21 0 -80 -2 -108 -3v31c19 0 36 4 36 23c0 18 -42 74 -119 180l-64 -55v-103c0 -45 11 -45 78 -45v-31c-40 2 -80 3 -110 3c-29 0 -76 -2 -109 -3z" />
    <glyph glyph-name="uni01EA" unicode="&#x1ea;" horiz-adv-x="777" 
d="M56 339c0 206 153 366 332 366c182 0 333 -162 333 -366c0 -180 -120 -326 -275 -355c-18 -20 -42 -41 -42 -78c0 -46 45 -77 82 -77c55 0 63 55 77 55c4 0 9 -2 9 -11c0 -24 -36 -90 -105 -90c-52 0 -108 37 -108 99c0 21 5 55 47 97c-6 -1 -12 -1 -18 -1
c-178 0 -332 156 -332 361zM159 353c0 -261 134 -349 230 -349c92 0 229 84 229 349c0 256 -143 327 -230 327c-83 0 -229 -68 -229 -327z" />
    <glyph glyph-name="uni01EB" unicode="&#x1eb;" 
d="M28 214c0 125 97 234 222 234c121 0 221 -106 221 -234c0 -98 -60 -178 -142 -210c-35 -28 -71 -54 -71 -98c0 -45 44 -77 82 -77c48 0 63 44 69 50c9 11 18 1 18 -7c0 -21 -36 -89 -106 -89c-59 0 -108 44 -108 99c0 46 26 73 59 108c-7 -1 -15 -1 -23 -1
c-117 0 -221 96 -221 225zM111 222c0 -36 0 -97 25 -141c27 -46 71 -67 114 -67c50 0 94 29 116 74c22 44 22 98 22 134c0 38 0 96 -26 139s-69 65 -113 65c-40 0 -88 -21 -114 -67c-23 -41 -24 -93 -24 -131v-6z" />
    <glyph glyph-name="uni01EC" unicode="&#x1ec;" horiz-adv-x="777" 
d="M208 759v32h360v-32h-360zM56 339c0 206 153 366 332 366c182 0 333 -162 333 -366c0 -180 -120 -326 -275 -355c-18 -20 -42 -41 -42 -78c0 -46 45 -77 82 -77c55 0 63 55 77 55c4 0 9 -2 9 -11c0 -24 -36 -90 -105 -90c-52 0 -108 37 -108 99c0 21 5 55 47 97
c-6 -1 -12 -1 -18 -1c-178 0 -332 156 -332 361zM159 353c0 -261 134 -349 230 -349c92 0 229 84 229 349c0 256 -143 327 -230 327c-83 0 -229 -68 -229 -327z" />
    <glyph glyph-name="uni01ED" unicode="&#x1ed;" 
d="M70 539v32h360v-32h-360zM28 214c0 125 97 234 222 234c121 0 221 -106 221 -234c0 -98 -60 -178 -142 -210c-35 -28 -71 -54 -71 -98c0 -45 44 -77 82 -77c48 0 63 44 69 50c9 11 18 1 18 -7c0 -21 -36 -89 -106 -89c-59 0 -108 44 -108 99c0 46 26 73 59 108
c-7 -1 -15 -1 -23 -1c-117 0 -221 96 -221 225zM111 222c0 -36 0 -97 25 -141c27 -46 71 -67 114 -67c50 0 94 29 116 74c22 44 22 98 22 134c0 38 0 96 -26 139s-69 65 -113 65c-40 0 -88 -21 -114 -67c-23 -41 -24 -93 -24 -131v-6z" />
    <glyph glyph-name="uni01EE" unicode="&#x1ee;" horiz-adv-x="555" 
d="M41 127c0 47 36 59 56 59c30 0 56 -23 56 -56c0 -29 -20 -55 -58 -55h-11c32 -51 93 -72 178 -72c59 0 147 24 147 181c0 70 -15 103 -34 125c-30 33 -68 46 -116 46c-68 -1 -57 -10 -72 -10c-10 0 -14 7 -12 13c1 6 5 9 22 24l282 240h-189c-152 0 -203 -12 -224 -164
h-25l28 225h415c24 0 26 -8 26 -22v-29c0 -18 -5 -21 -18 -32l-249 -213c8 1 16 1 24 1c136 0 245 -90 245 -204c0 -100 -90 -206 -248 -206c-103 0 -223 31 -223 149zM122 902l13 15c134 -90 133 -90 140 -90c11 0 30 17 141 90l12 -15l-152 -147h-1z" />
    <glyph glyph-name="uni01EF" unicode="&#x1ef;" horiz-adv-x="444" 
d="M41 -71c0 37 28 49 46 49c23 0 46 -18 46 -46c0 -16 -7 -44 -49 -46c28 -44 78 -69 133 -69c43 0 109 28 109 156c0 169 -165 152 -182 157c-7 2 -9 6 -9 10c0 7 9 17 17 25l197 206h-132c-102 0 -142 -9 -151 -107h-25l11 166h325c18 0 22 -6 22 -25
c0 -34 -29 -43 -47 -68l-146 -153c112 -12 204 -97 204 -204c0 -97 -79 -185 -193 -185c-82 0 -176 48 -176 134zM72 645l13 15c134 -90 133 -90 140 -90c11 0 30 17 141 90l12 -15l-152 -147h-1z" />
    <glyph glyph-name="uni01F1" unicode="&#x1f1;" horiz-adv-x="1375" 
d="M820 17c0 8 0 9 7 20l389 615h-157c-164 0 -194 -81 -201 -194h-25l11 225h448c20 0 26 0 26 -16c0 -7 0 -8 -7 -19l-388 -614h164c185 0 204 94 212 233h25l-17 -267h-461c-21 0 -26 0 -26 17zM35 0v31h24c77 0 79 11 79 47v527c0 36 -2 47 -79 47h-24v31h366
c171 0 306 -157 306 -347c0 -188 -138 -336 -306 -336h-366zM224 71c0 -33 2 -40 49 -40h101c101 0 158 58 178 85c36 49 55 109 55 220c0 78 -9 164 -52 223c-51 71 -120 93 -182 93h-100c-47 0 -49 -7 -49 -40v-541z" />
    <glyph glyph-name="uni01F2" unicode="&#x1f2;" horiz-adv-x="1208" 
d="M792 14c0 5 0 7 9 18l279 377h-114c-110 0 -129 -37 -135 -139h-25l11 161h320c18 0 26 0 26 -13c0 -4 0 -6 -9 -17l-278 -376h118c116 0 137 44 146 162h25l-17 -187h-330c-19 0 -26 0 -26 14zM35 0v31h24c77 0 79 11 79 47v527c0 36 -2 47 -79 47h-24v31h366
c171 0 306 -157 306 -347c0 -188 -138 -336 -306 -336h-366zM224 71c0 -33 2 -40 49 -40h101c101 0 158 58 178 85c36 49 55 109 55 220c0 78 -9 164 -52 223c-51 71 -120 93 -182 93h-100c-47 0 -49 -7 -49 -40v-541z" />
    </font>
</defs>
</svg>
